<?xml version="1.0" encoding="UTF-8"?>
<svg xmlns="http://www.w3.org/2000/svg" xmlns:xlink="http://www.w3.org/1999/xlink" width="468pt" height="374pt" viewBox="0 0 468 374">
<defs>
<g>
<g id="glyph-0-0">
<path d="M 0.632812 0 L 0.632812 -6.109375 L 1.851562 -6.109375 L 3.296875 -1.785156 C 3.429688 -1.382812 3.527344 -1.078125 3.589844 -0.878906 C 3.65625 -1.101562 3.765625 -1.429688 3.914062 -1.859375 L 5.375 -6.109375 L 6.464844 -6.109375 L 6.464844 0 L 5.683594 0 L 5.683594 -5.113281 L 3.910156 0 L 3.179688 0 L 1.414062 -5.203125 L 1.414062 0 Z M 0.632812 0 "/>
</g>
<g id="glyph-0-1">
<path d="M 3.59375 -1.425781 L 4.367188 -1.328125 C 4.246094 -0.875 4.019531 -0.523438 3.6875 -0.273438 C 3.359375 -0.0234375 2.9375 0.101562 2.421875 0.101562 C 1.773438 0.101562 1.261719 -0.0976562 0.882812 -0.5 C 0.503906 -0.898438 0.3125 -1.457031 0.3125 -2.175781 C 0.3125 -2.921875 0.503906 -3.5 0.886719 -3.910156 C 1.269531 -4.320312 1.769531 -4.527344 2.378906 -4.527344 C 2.972656 -4.527344 3.457031 -4.324219 3.832031 -3.921875 C 4.207031 -3.519531 4.394531 -2.953125 4.394531 -2.222656 C 4.394531 -2.175781 4.390625 -2.109375 4.390625 -2.019531 L 1.085938 -2.019531 C 1.117188 -1.535156 1.253906 -1.164062 1.5 -0.90625 C 1.746094 -0.644531 2.054688 -0.515625 2.425781 -0.515625 C 2.699219 -0.515625 2.9375 -0.589844 3.128906 -0.734375 C 3.324219 -0.878906 3.480469 -1.109375 3.59375 -1.425781 M 1.128906 -2.636719 L 3.601562 -2.636719 C 3.566406 -3.011719 3.472656 -3.289062 3.316406 -3.476562 C 3.078125 -3.765625 2.769531 -3.910156 2.386719 -3.910156 C 2.042969 -3.910156 1.753906 -3.792969 1.519531 -3.5625 C 1.285156 -3.332031 1.15625 -3.023438 1.128906 -2.636719 Z M 1.128906 -2.636719 "/>
</g>
<g id="glyph-0-2">
<path d="M 3.433594 0 L 3.433594 -0.558594 C 3.152344 -0.121094 2.742188 0.101562 2.195312 0.101562 C 1.84375 0.101562 1.519531 0.00390625 1.222656 -0.191406 C 0.925781 -0.386719 0.699219 -0.65625 0.535156 -1.007812 C 0.371094 -1.355469 0.292969 -1.757812 0.292969 -2.207031 C 0.292969 -2.652344 0.367188 -3.050781 0.511719 -3.410156 C 0.660156 -3.769531 0.878906 -4.046875 1.175781 -4.238281 C 1.46875 -4.429688 1.800781 -4.527344 2.164062 -4.527344 C 2.429688 -4.527344 2.667969 -4.46875 2.875 -4.359375 C 3.085938 -4.246094 3.253906 -4.097656 3.382812 -3.917969 L 3.382812 -6.109375 L 4.128906 -6.109375 L 4.128906 0 L 3.433594 0 M 1.0625 -2.207031 C 1.0625 -1.640625 1.183594 -1.21875 1.421875 -0.9375 C 1.660156 -0.65625 1.941406 -0.515625 2.265625 -0.515625 C 2.59375 -0.515625 2.875 -0.652344 3.101562 -0.917969 C 3.332031 -1.1875 3.445312 -1.597656 3.445312 -2.144531 C 3.445312 -2.753906 3.332031 -3.195312 3.097656 -3.480469 C 2.863281 -3.761719 2.574219 -3.90625 2.234375 -3.90625 C 1.902344 -3.90625 1.621094 -3.769531 1.398438 -3.496094 C 1.175781 -3.222656 1.0625 -2.796875 1.0625 -2.207031 Z M 1.0625 -2.207031 "/>
</g>
<g id="glyph-0-3">
<path d="M 0.566406 -5.246094 L 0.566406 -6.109375 L 1.316406 -6.109375 L 1.316406 -5.246094 L 0.566406 -5.246094 M 0.566406 0 L 0.566406 -4.425781 L 1.316406 -4.425781 L 1.316406 0 Z M 0.566406 0 "/>
</g>
<g id="glyph-0-4">
<path d="M 3.449219 -0.546875 C 3.171875 -0.308594 2.90625 -0.144531 2.648438 -0.046875 C 2.390625 0.0507812 2.117188 0.101562 1.820312 0.101562 C 1.335938 0.101562 0.960938 -0.0195312 0.699219 -0.257812 C 0.4375 -0.492188 0.308594 -0.796875 0.308594 -1.167969 C 0.308594 -1.382812 0.359375 -1.582031 0.457031 -1.761719 C 0.554688 -1.941406 0.683594 -2.082031 0.84375 -2.191406 C 1.003906 -2.300781 1.183594 -2.382812 1.382812 -2.4375 C 1.53125 -2.476562 1.753906 -2.515625 2.050781 -2.550781 C 2.65625 -2.621094 3.101562 -2.710938 3.386719 -2.808594 C 3.390625 -2.910156 3.394531 -2.976562 3.394531 -3.003906 C 3.394531 -3.3125 3.320312 -3.527344 3.179688 -3.652344 C 2.988281 -3.820312 2.703125 -3.90625 2.324219 -3.90625 C 1.972656 -3.90625 1.710938 -3.84375 1.542969 -3.71875 C 1.375 -3.597656 1.25 -3.378906 1.171875 -3.0625 L 0.4375 -3.164062 C 0.503906 -3.476562 0.613281 -3.730469 0.765625 -3.925781 C 0.917969 -4.117188 1.140625 -4.265625 1.429688 -4.371094 C 1.71875 -4.472656 2.054688 -4.527344 2.433594 -4.527344 C 2.8125 -4.527344 3.117188 -4.480469 3.355469 -4.394531 C 3.589844 -4.304688 3.765625 -4.191406 3.875 -4.058594 C 3.988281 -3.921875 4.066406 -3.753906 4.109375 -3.546875 C 4.132812 -3.417969 4.148438 -3.1875 4.148438 -2.855469 L 4.148438 -1.855469 C 4.148438 -1.15625 4.164062 -0.714844 4.195312 -0.53125 C 4.226562 -0.347656 4.289062 -0.167969 4.382812 0 L 3.601562 0 C 3.523438 -0.15625 3.472656 -0.335938 3.449219 -0.546875 M 3.386719 -2.222656 C 3.117188 -2.109375 2.707031 -2.015625 2.164062 -1.9375 C 1.855469 -1.894531 1.636719 -1.84375 1.507812 -1.789062 C 1.382812 -1.734375 1.28125 -1.652344 1.210938 -1.542969 C 1.144531 -1.4375 1.109375 -1.320312 1.109375 -1.1875 C 1.109375 -0.988281 1.183594 -0.820312 1.335938 -0.6875 C 1.488281 -0.554688 1.707031 -0.488281 2 -0.488281 C 2.289062 -0.488281 2.546875 -0.550781 2.773438 -0.675781 C 2.996094 -0.804688 3.160156 -0.976562 3.269531 -1.195312 C 3.347656 -1.367188 3.386719 -1.617188 3.386719 -1.945312 Z M 3.386719 -2.222656 "/>
</g>
<g id="glyph-0-5">
<path d="M 0.5625 0 L 0.5625 -4.425781 L 1.238281 -4.425781 L 1.238281 -3.796875 C 1.5625 -4.28125 2.03125 -4.527344 2.648438 -4.527344 C 2.914062 -4.527344 3.160156 -4.476562 3.382812 -4.382812 C 3.605469 -4.285156 3.773438 -4.160156 3.882812 -4.003906 C 3.996094 -3.851562 4.074219 -3.664062 4.117188 -3.449219 C 4.144531 -3.3125 4.160156 -3.070312 4.160156 -2.722656 L 4.160156 0 L 3.410156 0 L 3.410156 -2.691406 C 3.410156 -3 3.378906 -3.226562 3.320312 -3.378906 C 3.261719 -3.53125 3.160156 -3.648438 3.011719 -3.742188 C 2.863281 -3.832031 2.6875 -3.875 2.488281 -3.875 C 2.167969 -3.875 1.894531 -3.773438 1.660156 -3.570312 C 1.429688 -3.367188 1.3125 -2.984375 1.3125 -2.417969 L 1.3125 0 Z M 0.5625 0 "/>
</g>
<g id="glyph-0-6">
</g>
<g id="glyph-0-7">
<path d="M 4.296875 -0.722656 L 4.296875 0 L 0.257812 0 C 0.253906 -0.179688 0.28125 -0.355469 0.347656 -0.519531 C 0.449219 -0.796875 0.613281 -1.066406 0.839844 -1.332031 C 1.066406 -1.601562 1.394531 -1.910156 1.820312 -2.257812 C 2.484375 -2.804688 2.933594 -3.234375 3.167969 -3.554688 C 3.402344 -3.871094 3.519531 -4.171875 3.519531 -4.457031 C 3.519531 -4.753906 3.410156 -5.003906 3.199219 -5.207031 C 2.984375 -5.410156 2.710938 -5.515625 2.367188 -5.515625 C 2.007812 -5.515625 1.71875 -5.40625 1.5 -5.1875 C 1.285156 -4.972656 1.175781 -4.671875 1.171875 -4.289062 L 0.398438 -4.367188 C 0.453125 -4.941406 0.652344 -5.382812 0.996094 -5.683594 C 1.339844 -5.984375 1.804688 -6.136719 2.382812 -6.136719 C 2.96875 -6.136719 3.433594 -5.972656 3.777344 -5.648438 C 4.117188 -5.324219 4.289062 -4.917969 4.289062 -4.4375 C 4.289062 -4.195312 4.238281 -3.953125 4.140625 -3.71875 C 4.039062 -3.480469 3.871094 -3.234375 3.640625 -2.972656 C 3.410156 -2.710938 3.023438 -2.351562 2.484375 -1.894531 C 2.035156 -1.519531 1.746094 -1.261719 1.617188 -1.128906 C 1.488281 -0.992188 1.382812 -0.855469 1.300781 -0.722656 Z M 4.296875 -0.722656 "/>
</g>
<g id="glyph-0-8">
<path d="M 0.355469 -3.011719 C 0.355469 -3.734375 0.429688 -4.316406 0.578125 -4.757812 C 0.726562 -5.199219 0.945312 -5.539062 1.238281 -5.777344 C 1.53125 -6.015625 1.902344 -6.136719 2.347656 -6.136719 C 2.675781 -6.136719 2.960938 -6.070312 3.210938 -5.9375 C 3.457031 -5.804688 3.660156 -5.613281 3.820312 -5.367188 C 3.984375 -5.117188 4.109375 -4.816406 4.203125 -4.457031 C 4.292969 -4.101562 4.339844 -3.617188 4.339844 -3.011719 C 4.339844 -2.296875 4.265625 -1.71875 4.117188 -1.277344 C 3.96875 -0.835938 3.75 -0.496094 3.457031 -0.257812 C 3.164062 -0.015625 2.792969 0.105469 2.347656 0.105469 C 1.757812 0.105469 1.292969 -0.105469 0.957031 -0.53125 C 0.554688 -1.039062 0.355469 -1.867188 0.355469 -3.011719 M 1.125 -3.011719 C 1.125 -2.011719 1.242188 -1.34375 1.476562 -1.011719 C 1.710938 -0.679688 2.003906 -0.511719 2.347656 -0.511719 C 2.691406 -0.511719 2.980469 -0.679688 3.214844 -1.011719 C 3.449219 -1.347656 3.566406 -2.011719 3.566406 -3.011719 C 3.566406 -4.019531 3.449219 -4.6875 3.214844 -5.019531 C 2.980469 -5.347656 2.6875 -5.515625 2.339844 -5.515625 C 1.992188 -5.515625 1.71875 -5.367188 1.511719 -5.078125 C 1.253906 -4.703125 1.125 -4.015625 1.125 -3.011719 Z M 1.125 -3.011719 "/>
</g>
<g id="glyph-0-9">
<path d="M 0.355469 -1.601562 L 1.140625 -1.667969 C 1.199219 -1.285156 1.335938 -0.996094 1.546875 -0.800781 C 1.761719 -0.609375 2.015625 -0.511719 2.316406 -0.511719 C 2.679688 -0.511719 2.984375 -0.648438 3.234375 -0.921875 C 3.484375 -1.195312 3.609375 -1.554688 3.609375 -2.003906 C 3.609375 -2.433594 3.488281 -2.769531 3.25 -3.015625 C 3.007812 -3.265625 2.695312 -3.386719 2.304688 -3.386719 C 2.0625 -3.386719 1.84375 -3.332031 1.652344 -3.222656 C 1.457031 -3.113281 1.304688 -2.972656 1.191406 -2.796875 L 0.488281 -2.886719 L 1.078125 -6.027344 L 4.117188 -6.027344 L 4.117188 -5.308594 L 1.679688 -5.308594 L 1.351562 -3.667969 C 1.71875 -3.921875 2.101562 -4.050781 2.503906 -4.050781 C 3.039062 -4.050781 3.488281 -3.867188 3.855469 -3.496094 C 4.222656 -3.128906 4.40625 -2.652344 4.40625 -2.070312 C 4.40625 -1.519531 4.246094 -1.039062 3.921875 -0.636719 C 3.53125 -0.144531 2.996094 0.105469 2.316406 0.105469 C 1.761719 0.105469 1.308594 -0.0507812 0.957031 -0.363281 C 0.605469 -0.671875 0.402344 -1.085938 0.355469 -1.601562 Z M 0.355469 -1.601562 "/>
</g>
<g id="glyph-0-10">
<path d="M 2.125 0.878906 L 2.125 0.128906 C 1.75 0.0820312 1.445312 -0.00390625 1.210938 -0.121094 C 0.976562 -0.242188 0.773438 -0.4375 0.601562 -0.707031 C 0.429688 -0.976562 0.332031 -1.308594 0.304688 -1.695312 L 1.058594 -1.839844 C 1.117188 -1.433594 1.21875 -1.140625 1.367188 -0.949219 C 1.578125 -0.683594 1.832031 -0.535156 2.125 -0.503906 L 2.125 -2.890625 C 1.816406 -2.949219 1.5 -3.070312 1.179688 -3.25 C 0.941406 -3.382812 0.757812 -3.570312 0.628906 -3.804688 C 0.5 -4.042969 0.433594 -4.308594 0.433594 -4.609375 C 0.433594 -5.144531 0.621094 -5.574219 1 -5.90625 C 1.253906 -6.128906 1.628906 -6.265625 2.125 -6.3125 L 2.125 -6.671875 L 2.566406 -6.671875 L 2.566406 -6.3125 C 3.003906 -6.273438 3.347656 -6.144531 3.605469 -5.929688 C 3.933594 -5.660156 4.128906 -5.285156 4.195312 -4.808594 L 3.421875 -4.691406 C 3.378906 -4.988281 3.285156 -5.214844 3.144531 -5.371094 C 3.003906 -5.527344 2.8125 -5.628906 2.566406 -5.679688 L 2.566406 -3.519531 C 2.945312 -3.421875 3.195312 -3.347656 3.316406 -3.296875 C 3.550781 -3.195312 3.742188 -3.070312 3.886719 -2.921875 C 4.035156 -2.773438 4.148438 -2.597656 4.226562 -2.398438 C 4.308594 -2.195312 4.347656 -1.972656 4.347656 -1.738281 C 4.347656 -1.21875 4.183594 -0.785156 3.851562 -0.4375 C 3.519531 -0.0898438 3.09375 0.0976562 2.566406 0.121094 L 2.566406 0.878906 L 2.125 0.878906 M 2.125 -5.6875 C 1.832031 -5.644531 1.605469 -5.527344 1.4375 -5.339844 C 1.269531 -5.148438 1.183594 -4.925781 1.183594 -4.667969 C 1.183594 -4.414062 1.253906 -4.199219 1.398438 -4.027344 C 1.542969 -3.855469 1.785156 -3.714844 2.125 -3.613281 L 2.125 -5.6875 M 2.566406 -0.503906 C 2.859375 -0.539062 3.101562 -0.667969 3.289062 -0.882812 C 3.480469 -1.101562 3.574219 -1.367188 3.574219 -1.6875 C 3.574219 -1.960938 3.507812 -2.179688 3.375 -2.34375 C 3.238281 -2.507812 2.96875 -2.65625 2.566406 -2.789062 Z M 2.566406 -0.503906 "/>
</g>
<g id="glyph-0-11">
<path d="M 4.246094 -4.613281 L 3.5 -4.554688 C 3.433594 -4.851562 3.339844 -5.0625 3.21875 -5.199219 C 3.015625 -5.410156 2.765625 -5.519531 2.46875 -5.519531 C 2.226562 -5.519531 2.019531 -5.453125 1.839844 -5.316406 C 1.601562 -5.144531 1.414062 -4.894531 1.28125 -4.5625 C 1.144531 -4.234375 1.074219 -3.761719 1.066406 -3.152344 C 1.246094 -3.425781 1.46875 -3.628906 1.730469 -3.761719 C 1.992188 -3.898438 2.265625 -3.964844 2.550781 -3.964844 C 3.050781 -3.964844 3.476562 -3.78125 3.828125 -3.410156 C 4.179688 -3.042969 4.355469 -2.566406 4.355469 -1.984375 C 4.355469 -1.601562 4.273438 -1.242188 4.109375 -0.914062 C 3.941406 -0.585938 3.714844 -0.332031 3.425781 -0.160156 C 3.136719 0.015625 2.808594 0.105469 2.441406 0.105469 C 1.816406 0.105469 1.308594 -0.125 0.914062 -0.585938 C 0.519531 -1.046875 0.320312 -1.804688 0.320312 -2.859375 C 0.320312 -4.039062 0.539062 -4.898438 0.976562 -5.433594 C 1.355469 -5.902344 1.867188 -6.136719 2.511719 -6.136719 C 2.992188 -6.136719 3.386719 -6 3.695312 -5.730469 C 4 -5.460938 4.1875 -5.089844 4.246094 -4.613281 M 1.183594 -1.980469 C 1.183594 -1.722656 1.238281 -1.472656 1.347656 -1.238281 C 1.457031 -1 1.613281 -0.820312 1.808594 -0.699219 C 2.007812 -0.574219 2.214844 -0.511719 2.429688 -0.511719 C 2.746094 -0.511719 3.019531 -0.640625 3.246094 -0.894531 C 3.476562 -1.152344 3.589844 -1.5 3.589844 -1.9375 C 3.589844 -2.359375 3.476562 -2.691406 3.25 -2.9375 C 3.027344 -3.179688 2.742188 -3.300781 2.402344 -3.300781 C 2.0625 -3.300781 1.773438 -3.179688 1.539062 -2.9375 C 1.300781 -2.691406 1.183594 -2.375 1.183594 -1.980469 Z M 1.183594 -1.980469 "/>
</g>
<g id="glyph-1-0">
<path d="M 0.5 -4.234375 C 0.5 -5.25 0.601562 -6.070312 0.8125 -6.6875 C 1.019531 -7.308594 1.332031 -7.785156 1.742188 -8.121094 C 2.15625 -8.457031 2.671875 -8.625 3.296875 -8.625 C 3.757812 -8.625 4.164062 -8.53125 4.511719 -8.347656 C 4.859375 -8.160156 5.144531 -7.894531 5.375 -7.542969 C 5.597656 -7.195312 5.777344 -6.769531 5.90625 -6.265625 C 6.035156 -5.765625 6.101562 -5.085938 6.101562 -4.234375 C 6.101562 -3.226562 5.996094 -2.414062 5.789062 -1.796875 C 5.582031 -1.175781 5.273438 -0.699219 4.859375 -0.359375 C 4.449219 -0.0234375 3.925781 0.148438 3.296875 0.148438 C 2.46875 0.148438 1.820312 -0.152344 1.347656 -0.742188 C 0.78125 -1.460938 0.5 -2.621094 0.5 -4.234375 M 1.582031 -4.234375 C 1.582031 -2.824219 1.746094 -1.886719 2.078125 -1.421875 C 2.40625 -0.953125 2.8125 -0.71875 3.296875 -0.71875 C 3.78125 -0.71875 4.191406 -0.953125 4.519531 -1.421875 C 4.851562 -1.890625 5.015625 -2.828125 5.015625 -4.234375 C 5.015625 -5.648438 4.851562 -6.589844 4.519531 -7.054688 C 4.191406 -7.519531 3.78125 -7.75 3.289062 -7.75 C 2.800781 -7.75 2.414062 -7.546875 2.125 -7.136719 C 1.765625 -6.613281 1.582031 -5.644531 1.582031 -4.234375 Z M 1.582031 -4.234375 "/>
</g>
<g id="glyph-1-1">
<path d="M 0.695312 -6.527344 C 0.695312 -7.140625 0.851562 -7.660156 1.160156 -8.09375 C 1.46875 -8.519531 1.914062 -8.734375 2.5 -8.734375 C 3.039062 -8.734375 3.488281 -8.542969 3.839844 -8.160156 C 4.195312 -7.773438 4.371094 -7.207031 4.371094 -6.460938 C 4.371094 -5.734375 4.191406 -5.175781 3.835938 -4.785156 C 3.476562 -4.390625 3.035156 -4.195312 2.515625 -4.195312 C 1.992188 -4.195312 1.5625 -4.390625 1.214844 -4.773438 C 0.871094 -5.164062 0.695312 -5.746094 0.695312 -6.527344 M 2.53125 -8.007812 C 2.269531 -8.007812 2.050781 -7.894531 1.878906 -7.671875 C 1.703125 -7.441406 1.617188 -7.027344 1.617188 -6.421875 C 1.617188 -5.871094 1.703125 -5.484375 1.882812 -5.257812 C 2.054688 -5.035156 2.273438 -4.921875 2.53125 -4.921875 C 2.796875 -4.921875 3.015625 -5.035156 3.191406 -5.261719 C 3.363281 -5.488281 3.453125 -5.902344 3.453125 -6.503906 C 3.453125 -7.058594 3.363281 -7.449219 3.1875 -7.671875 C 3.011719 -7.898438 2.792969 -8.007812 2.53125 -8.007812 M 2.539062 0.316406 L 7.234375 -8.734375 L 8.09375 -8.734375 L 3.410156 0.316406 L 2.539062 0.316406 M 6.25 -2.015625 C 6.25 -2.632812 6.40625 -3.15625 6.714844 -3.582031 C 7.023438 -4.011719 7.472656 -4.226562 8.0625 -4.226562 C 8.601562 -4.226562 9.046875 -4.03125 9.402344 -3.648438 C 9.753906 -3.261719 9.929688 -2.695312 9.929688 -1.953125 C 9.929688 -1.226562 9.753906 -0.664062 9.394531 -0.273438 C 9.039062 0.121094 8.59375 0.316406 8.070312 0.316406 C 7.546875 0.316406 7.117188 0.121094 6.769531 -0.265625 C 6.425781 -0.65625 6.25 -1.238281 6.25 -2.015625 M 8.09375 -3.5 C 7.824219 -3.5 7.605469 -3.382812 7.433594 -3.15625 C 7.257812 -2.929688 7.171875 -2.515625 7.171875 -1.910156 C 7.171875 -1.363281 7.257812 -0.976562 7.4375 -0.75 C 7.609375 -0.523438 7.828125 -0.410156 8.085938 -0.410156 C 8.355469 -0.410156 8.578125 -0.523438 8.75 -0.75 C 8.925781 -0.976562 9.011719 -1.390625 9.011719 -1.992188 C 9.011719 -2.546875 8.921875 -2.9375 8.75 -3.160156 C 8.570312 -3.386719 8.351562 -3.5 8.09375 -3.5 Z M 8.09375 -3.5 "/>
</g>
<g id="glyph-1-2">
<path d="M 0.503906 -2.265625 L 1.558594 -2.40625 C 1.679688 -1.8125 1.886719 -1.378906 2.175781 -1.117188 C 2.46875 -0.851562 2.820312 -0.71875 3.242188 -0.71875 C 3.734375 -0.71875 4.15625 -0.890625 4.496094 -1.234375 C 4.839844 -1.578125 5.007812 -2.003906 5.007812 -2.515625 C 5.007812 -2.996094 4.851562 -3.398438 4.535156 -3.710938 C 4.21875 -4.027344 3.816406 -4.183594 3.328125 -4.183594 C 3.128906 -4.183594 2.878906 -4.144531 2.585938 -4.066406 L 2.703125 -4.992188 C 2.773438 -4.984375 2.828125 -4.980469 2.871094 -4.980469 C 3.320312 -4.980469 3.722656 -5.097656 4.085938 -5.332031 C 4.441406 -5.566406 4.621094 -5.925781 4.625 -6.414062 C 4.621094 -6.804688 4.492188 -7.121094 4.230469 -7.375 C 3.96875 -7.628906 3.628906 -7.757812 3.21875 -7.757812 C 2.804688 -7.757812 2.464844 -7.628906 2.191406 -7.371094 C 1.917969 -7.113281 1.742188 -6.726562 1.664062 -6.210938 L 0.609375 -6.398438 C 0.738281 -7.105469 1.03125 -7.652344 1.488281 -8.042969 C 1.945312 -8.429688 2.515625 -8.625 3.195312 -8.625 C 3.664062 -8.625 4.09375 -8.523438 4.488281 -8.324219 C 4.882812 -8.121094 5.183594 -7.847656 5.394531 -7.5 C 5.601562 -7.152344 5.707031 -6.78125 5.707031 -6.390625 C 5.707031 -6.019531 5.609375 -5.683594 5.40625 -5.378906 C 5.210938 -5.074219 4.914062 -4.832031 4.523438 -4.652344 C 5.03125 -4.535156 5.425781 -4.292969 5.707031 -3.921875 C 5.988281 -3.554688 6.128906 -3.089844 6.128906 -2.539062 C 6.128906 -1.789062 5.855469 -1.152344 5.308594 -0.628906 C 4.761719 -0.109375 4.070312 0.152344 3.234375 0.152344 C 2.480469 0.152344 1.855469 -0.0742188 1.355469 -0.523438 C 0.859375 -0.96875 0.574219 -1.554688 0.503906 -2.265625 Z M 0.503906 -2.265625 "/>
</g>
<g id="glyph-1-3">
<path d="M 5.96875 -6.484375 L 4.921875 -6.40625 C 4.828125 -6.816406 4.695312 -7.117188 4.523438 -7.304688 C 4.238281 -7.605469 3.886719 -7.757812 3.46875 -7.757812 C 3.132812 -7.757812 2.835938 -7.664062 2.585938 -7.476562 C 2.25 -7.234375 1.988281 -6.878906 1.796875 -6.414062 C 1.605469 -5.949219 1.507812 -5.289062 1.5 -4.429688 C 1.753906 -4.816406 2.0625 -5.101562 2.429688 -5.289062 C 2.796875 -5.476562 3.183594 -5.570312 3.585938 -5.570312 C 4.289062 -5.570312 4.886719 -5.3125 5.382812 -4.796875 C 5.875 -4.277344 6.125 -3.609375 6.125 -2.789062 C 6.125 -2.25 6.007812 -1.75 5.773438 -1.285156 C 5.542969 -0.824219 5.222656 -0.46875 4.816406 -0.222656 C 4.410156 0.0234375 3.949219 0.148438 3.433594 0.148438 C 2.554688 0.148438 1.835938 -0.175781 1.28125 -0.824219 C 0.726562 -1.46875 0.453125 -2.535156 0.453125 -4.019531 C 0.453125 -5.679688 0.757812 -6.886719 1.371094 -7.640625 C 1.90625 -8.296875 2.625 -8.625 3.53125 -8.625 C 4.207031 -8.625 4.761719 -8.433594 5.195312 -8.054688 C 5.625 -7.675781 5.882812 -7.15625 5.96875 -6.484375 M 1.664062 -2.78125 C 1.664062 -2.421875 1.742188 -2.070312 1.894531 -1.742188 C 2.050781 -1.40625 2.265625 -1.15625 2.542969 -0.980469 C 2.820312 -0.808594 3.109375 -0.71875 3.414062 -0.71875 C 3.859375 -0.71875 4.242188 -0.898438 4.5625 -1.257812 C 4.882812 -1.617188 5.042969 -2.105469 5.046875 -2.726562 C 5.042969 -3.316406 4.886719 -3.785156 4.570312 -4.128906 C 4.253906 -4.46875 3.855469 -4.640625 3.375 -4.640625 C 2.898438 -4.640625 2.492188 -4.46875 2.164062 -4.128906 C 1.828125 -3.785156 1.664062 -3.335938 1.664062 -2.78125 Z M 1.664062 -2.78125 "/>
</g>
<g id="glyph-1-4">
<path d="M 0.65625 -1.984375 L 1.671875 -2.078125 C 1.753906 -1.601562 1.917969 -1.257812 2.164062 -1.042969 C 2.402344 -0.828125 2.714844 -0.71875 3.09375 -0.71875 C 3.417969 -0.71875 3.703125 -0.792969 3.945312 -0.945312 C 4.191406 -1.089844 4.390625 -1.289062 4.546875 -1.539062 C 4.703125 -1.785156 4.832031 -2.121094 4.9375 -2.542969 C 5.042969 -2.964844 5.097656 -3.394531 5.097656 -3.832031 C 5.097656 -3.878906 5.09375 -3.949219 5.09375 -4.042969 C 4.882812 -3.707031 4.59375 -3.433594 4.226562 -3.226562 C 3.863281 -3.015625 3.464844 -2.914062 3.039062 -2.914062 C 2.328125 -2.914062 1.726562 -3.171875 1.234375 -3.6875 C 0.742188 -4.203125 0.5 -4.882812 0.5 -5.726562 C 0.5 -6.59375 0.753906 -7.296875 1.269531 -7.828125 C 1.78125 -8.359375 2.425781 -8.625 3.199219 -8.625 C 3.757812 -8.625 4.269531 -8.472656 4.730469 -8.171875 C 5.195312 -7.871094 5.546875 -7.445312 5.785156 -6.886719 C 6.027344 -6.332031 6.148438 -5.523438 6.148438 -4.46875 C 6.148438 -3.371094 6.027344 -2.5 5.789062 -1.847656 C 5.550781 -1.199219 5.195312 -0.703125 4.726562 -0.363281 C 4.253906 -0.0234375 3.703125 0.148438 3.070312 0.148438 C 2.398438 0.148438 1.847656 -0.0390625 1.421875 -0.414062 C 0.996094 -0.785156 0.742188 -1.308594 0.65625 -1.984375 M 4.976562 -5.777344 C 4.972656 -6.382812 4.8125 -6.863281 4.492188 -7.21875 C 4.167969 -7.574219 3.78125 -7.75 3.328125 -7.75 C 2.859375 -7.75 2.449219 -7.558594 2.101562 -7.179688 C 1.753906 -6.792969 1.582031 -6.296875 1.582031 -5.6875 C 1.582031 -5.140625 1.746094 -4.699219 2.078125 -4.355469 C 2.40625 -4.015625 2.8125 -3.84375 3.296875 -3.84375 C 3.785156 -3.84375 4.1875 -4.015625 4.503906 -4.355469 C 4.816406 -4.699219 4.972656 -5.171875 4.976562 -5.777344 Z M 4.976562 -5.777344 "/>
</g>
<g id="glyph-1-5">
<path d="M 4.46875 0 L 3.414062 0 L 3.414062 -6.71875 C 3.160156 -6.476562 2.828125 -6.234375 2.417969 -5.992188 C 2.003906 -5.75 1.632812 -5.570312 1.304688 -5.449219 L 1.304688 -6.46875 C 1.894531 -6.746094 2.410156 -7.082031 2.851562 -7.476562 C 3.292969 -7.871094 3.605469 -8.253906 3.789062 -8.625 L 4.46875 -8.625 Z M 4.46875 0 "/>
</g>
<g id="glyph-1-6">
<path d="M 6.039062 -1.015625 L 6.039062 0 L 0.363281 0 C 0.355469 -0.253906 0.394531 -0.5 0.484375 -0.734375 C 0.628906 -1.117188 0.863281 -1.5 1.179688 -1.875 C 1.5 -2.25 1.957031 -2.683594 2.5625 -3.175781 C 3.492188 -3.941406 4.125 -4.546875 4.453125 -4.996094 C 4.78125 -5.441406 4.945312 -5.867188 4.945312 -6.265625 C 4.945312 -6.679688 4.796875 -7.035156 4.496094 -7.320312 C 4.199219 -7.609375 3.808594 -7.75 3.328125 -7.75 C 2.820312 -7.75 2.414062 -7.601562 2.109375 -7.296875 C 1.804688 -6.992188 1.648438 -6.570312 1.648438 -6.03125 L 0.5625 -6.140625 C 0.636719 -6.949219 0.917969 -7.566406 1.398438 -7.988281 C 1.882812 -8.414062 2.535156 -8.625 3.351562 -8.625 C 4.175781 -8.625 4.828125 -8.398438 5.308594 -7.9375 C 5.789062 -7.484375 6.03125 -6.914062 6.03125 -6.242188 C 6.03125 -5.894531 5.957031 -5.558594 5.820312 -5.226562 C 5.675781 -4.894531 5.445312 -4.542969 5.117188 -4.179688 C 4.792969 -3.808594 4.25 -3.304688 3.492188 -2.664062 C 2.859375 -2.132812 2.453125 -1.773438 2.273438 -1.585938 C 2.09375 -1.394531 1.945312 -1.203125 1.828125 -1.015625 Z M 6.039062 -1.015625 "/>
</g>
<g id="glyph-1-7">
<path d="M 1.117188 0 L 1.117188 -8.589844 L 2.257812 -8.589844 L 2.257812 0 Z M 1.117188 0 "/>
</g>
<g id="glyph-1-8">
<path d="M 0.789062 0 L 0.789062 -6.222656 L 1.742188 -6.222656 L 1.742188 -5.335938 C 2.195312 -6.019531 2.855469 -6.363281 3.71875 -6.363281 C 4.09375 -6.363281 4.441406 -6.296875 4.753906 -6.160156 C 5.070312 -6.027344 5.304688 -5.847656 5.460938 -5.632812 C 5.617188 -5.410156 5.726562 -5.152344 5.789062 -4.851562 C 5.828125 -4.65625 5.847656 -4.3125 5.847656 -3.828125 L 5.847656 0 L 4.792969 0 L 4.792969 -3.785156 C 4.792969 -4.214844 4.75 -4.535156 4.671875 -4.75 C 4.585938 -4.960938 4.441406 -5.132812 4.234375 -5.257812 C 4.023438 -5.386719 3.78125 -5.449219 3.5 -5.449219 C 3.046875 -5.449219 2.660156 -5.304688 2.335938 -5.023438 C 2.007812 -4.734375 1.84375 -4.195312 1.84375 -3.398438 L 1.84375 0 Z M 0.789062 0 "/>
</g>
<g id="glyph-1-9">
<path d="M 0.597656 0.515625 L 1.625 0.667969 C 1.664062 0.984375 1.785156 1.214844 1.980469 1.359375 C 2.242188 1.554688 2.597656 1.652344 3.054688 1.652344 C 3.539062 1.652344 3.917969 1.554688 4.183594 1.359375 C 4.449219 1.164062 4.628906 0.890625 4.722656 0.539062 C 4.777344 0.324219 4.800781 -0.128906 4.796875 -0.8125 C 4.335938 -0.273438 3.761719 0 3.078125 0 C 2.21875 0 1.558594 -0.308594 1.089844 -0.925781 C 0.621094 -1.542969 0.386719 -2.28125 0.386719 -3.148438 C 0.386719 -3.738281 0.492188 -4.289062 0.710938 -4.789062 C 0.921875 -5.292969 1.234375 -5.679688 1.644531 -5.953125 C 2.050781 -6.226562 2.53125 -6.363281 3.082031 -6.363281 C 3.816406 -6.363281 4.421875 -6.066406 4.898438 -5.472656 L 4.898438 -6.222656 L 5.871094 -6.222656 L 5.871094 -0.84375 C 5.871094 0.125 5.773438 0.8125 5.574219 1.214844 C 5.378906 1.621094 5.066406 1.9375 4.636719 2.171875 C 4.210938 2.40625 3.683594 2.523438 3.058594 2.523438 C 2.316406 2.523438 1.71875 2.359375 1.257812 2.023438 C 0.804688 1.691406 0.582031 1.1875 0.597656 0.515625 M 1.46875 -3.222656 C 1.46875 -2.40625 1.632812 -1.8125 1.957031 -1.4375 C 2.28125 -1.0625 2.6875 -0.875 3.175781 -0.875 C 3.660156 -0.875 4.066406 -1.058594 4.394531 -1.433594 C 4.722656 -1.804688 4.886719 -2.390625 4.886719 -3.1875 C 4.886719 -3.949219 4.71875 -4.523438 4.378906 -4.910156 C 4.042969 -5.296875 3.632812 -5.492188 3.15625 -5.492188 C 2.6875 -5.492188 2.289062 -5.300781 1.960938 -4.917969 C 1.632812 -4.539062 1.46875 -3.972656 1.46875 -3.222656 Z M 1.46875 -3.222656 "/>
</g>
<g id="glyph-1-10">
<path d="M 0.78125 0 L 0.78125 -6.222656 L 1.726562 -6.222656 L 1.726562 -5.28125 C 1.96875 -5.71875 2.195312 -6.011719 2.398438 -6.152344 C 2.605469 -6.292969 2.828125 -6.363281 3.078125 -6.363281 C 3.429688 -6.363281 3.792969 -6.25 4.160156 -6.023438 L 3.796875 -5.046875 C 3.539062 -5.195312 3.28125 -5.273438 3.023438 -5.273438 C 2.792969 -5.273438 2.585938 -5.203125 2.402344 -5.066406 C 2.21875 -4.925781 2.085938 -4.734375 2.007812 -4.488281 C 1.890625 -4.113281 1.835938 -3.703125 1.835938 -3.257812 L 1.835938 0 Z M 0.78125 0 "/>
</g>
<g id="glyph-1-11">
<path d="M 5.050781 -2.003906 L 6.140625 -1.867188 C 5.96875 -1.230469 5.648438 -0.738281 5.1875 -0.386719 C 4.71875 -0.0351562 4.125 0.140625 3.40625 0.140625 C 2.492188 0.140625 1.773438 -0.140625 1.238281 -0.699219 C 0.707031 -1.261719 0.4375 -2.046875 0.4375 -3.058594 C 0.4375 -4.105469 0.710938 -4.917969 1.25 -5.496094 C 1.789062 -6.074219 2.484375 -6.363281 3.34375 -6.363281 C 4.179688 -6.363281 4.859375 -6.078125 5.382812 -5.515625 C 5.914062 -4.945312 6.175781 -4.148438 6.175781 -3.125 C 6.175781 -3.058594 6.171875 -2.964844 6.171875 -2.84375 L 1.53125 -2.84375 C 1.566406 -2.15625 1.761719 -1.632812 2.109375 -1.273438 C 2.457031 -0.90625 2.890625 -0.726562 3.410156 -0.726562 C 3.796875 -0.726562 4.125 -0.828125 4.398438 -1.03125 C 4.671875 -1.234375 4.890625 -1.558594 5.050781 -2.003906 M 1.585938 -3.710938 L 5.0625 -3.710938 C 5.015625 -4.230469 4.882812 -4.625 4.664062 -4.886719 C 4.328125 -5.292969 3.890625 -5.496094 3.359375 -5.496094 C 2.871094 -5.496094 2.464844 -5.332031 2.136719 -5.007812 C 1.804688 -4.683594 1.625 -4.25 1.585938 -3.710938 Z M 1.585938 -3.710938 "/>
</g>
<g id="glyph-1-12">
<path d="M 0.367188 -1.859375 L 1.414062 -2.023438 C 1.46875 -1.601562 1.632812 -1.28125 1.902344 -1.0625 C 2.167969 -0.835938 2.542969 -0.726562 3.023438 -0.726562 C 3.507812 -0.726562 3.867188 -0.824219 4.101562 -1.023438 C 4.335938 -1.21875 4.453125 -1.449219 4.453125 -1.71875 C 4.453125 -1.953125 4.347656 -2.140625 4.140625 -2.28125 C 3.996094 -2.375 3.640625 -2.492188 3.0625 -2.636719 C 2.289062 -2.832031 1.753906 -3 1.457031 -3.144531 C 1.15625 -3.285156 0.929688 -3.484375 0.777344 -3.734375 C 0.621094 -3.988281 0.546875 -4.265625 0.546875 -4.570312 C 0.546875 -4.847656 0.609375 -5.105469 0.734375 -5.339844 C 0.863281 -5.578125 1.035156 -5.773438 1.253906 -5.929688 C 1.417969 -6.050781 1.640625 -6.152344 1.925781 -6.238281 C 2.207031 -6.320312 2.511719 -6.363281 2.835938 -6.363281 C 3.324219 -6.363281 3.753906 -6.292969 4.121094 -6.152344 C 4.492188 -6.011719 4.761719 -5.820312 4.9375 -5.582031 C 5.113281 -5.339844 5.234375 -5.019531 5.304688 -4.617188 L 4.273438 -4.476562 C 4.226562 -4.796875 4.089844 -5.046875 3.863281 -5.226562 C 3.640625 -5.40625 3.320312 -5.496094 2.914062 -5.496094 C 2.425781 -5.496094 2.082031 -5.414062 1.875 -5.257812 C 1.667969 -5.09375 1.5625 -4.90625 1.5625 -4.695312 C 1.5625 -4.554688 1.605469 -4.433594 1.695312 -4.324219 C 1.777344 -4.210938 1.914062 -4.117188 2.097656 -4.042969 C 2.203125 -4.003906 2.515625 -3.914062 3.03125 -3.773438 C 3.773438 -3.574219 4.296875 -3.410156 4.589844 -3.285156 C 4.886719 -3.15625 5.117188 -2.972656 5.285156 -2.730469 C 5.453125 -2.488281 5.535156 -2.1875 5.539062 -1.828125 C 5.535156 -1.476562 5.433594 -1.144531 5.230469 -0.835938 C 5.023438 -0.523438 4.726562 -0.285156 4.34375 -0.113281 C 3.953125 0.0546875 3.515625 0.140625 3.03125 0.140625 C 2.21875 0.140625 1.605469 -0.0273438 1.179688 -0.363281 C 0.757812 -0.699219 0.484375 -1.199219 0.367188 -1.859375 Z M 0.367188 -1.859375 "/>
</g>
<g id="glyph-1-13">
<path d="M 0.398438 -3.109375 C 0.398438 -4.261719 0.71875 -5.117188 1.359375 -5.671875 C 1.894531 -6.132812 2.546875 -6.363281 3.316406 -6.363281 C 4.171875 -6.363281 4.871094 -6.082031 5.414062 -5.523438 C 5.957031 -4.960938 6.226562 -4.1875 6.226562 -3.199219 C 6.226562 -2.398438 6.109375 -1.769531 5.867188 -1.308594 C 5.628906 -0.851562 5.277344 -0.492188 4.820312 -0.242188 C 4.359375 0.0117188 3.859375 0.140625 3.316406 0.140625 C 2.445312 0.140625 1.742188 -0.140625 1.203125 -0.695312 C 0.667969 -1.253906 0.398438 -2.058594 0.398438 -3.109375 M 1.484375 -3.109375 C 1.484375 -2.3125 1.65625 -1.71875 2.003906 -1.320312 C 2.351562 -0.925781 2.789062 -0.726562 3.316406 -0.726562 C 3.839844 -0.726562 4.273438 -0.925781 4.625 -1.324219 C 4.96875 -1.722656 5.144531 -2.328125 5.144531 -3.148438 C 5.144531 -3.914062 4.96875 -4.5 4.621094 -4.894531 C 4.269531 -5.292969 3.835938 -5.492188 3.316406 -5.492188 C 2.789062 -5.492188 2.351562 -5.292969 2.003906 -4.898438 C 1.65625 -4.503906 1.484375 -3.90625 1.484375 -3.109375 Z M 1.484375 -3.109375 "/>
</g>
<g id="glyph-1-14">
</g>
<g id="glyph-1-15">
<path d="M 0.789062 0 L 0.789062 -6.222656 L 1.734375 -6.222656 L 1.734375 -5.351562 C 1.929688 -5.65625 2.1875 -5.898438 2.515625 -6.085938 C 2.835938 -6.269531 3.207031 -6.363281 3.621094 -6.363281 C 4.082031 -6.363281 4.460938 -6.265625 4.753906 -6.078125 C 5.050781 -5.882812 5.257812 -5.617188 5.378906 -5.273438 C 5.871094 -6 6.511719 -6.363281 7.300781 -6.363281 C 7.917969 -6.363281 8.390625 -6.191406 8.726562 -5.851562 C 9.054688 -5.507812 9.222656 -4.980469 9.222656 -4.273438 L 9.222656 0 L 8.171875 0 L 8.171875 -3.921875 C 8.171875 -4.339844 8.140625 -4.644531 8.070312 -4.832031 C 8.003906 -5.015625 7.878906 -5.164062 7.699219 -5.28125 C 7.519531 -5.390625 7.308594 -5.449219 7.066406 -5.449219 C 6.628906 -5.449219 6.265625 -5.304688 5.976562 -5.011719 C 5.6875 -4.722656 5.542969 -4.253906 5.542969 -3.617188 L 5.542969 0 L 4.488281 0 L 4.488281 -4.042969 C 4.488281 -4.511719 4.402344 -4.863281 4.230469 -5.097656 C 4.058594 -5.332031 3.777344 -5.449219 3.386719 -5.449219 C 3.089844 -5.449219 2.816406 -5.371094 2.5625 -5.214844 C 2.3125 -5.058594 2.128906 -4.828125 2.015625 -4.53125 C 1.902344 -4.226562 1.84375 -3.792969 1.84375 -3.226562 L 1.84375 0 Z M 0.789062 0 "/>
</g>
<g id="glyph-1-16">
<path d="M 3.09375 -0.945312 L 3.246094 -0.0117188 C 2.949219 0.0507812 2.683594 0.0820312 2.449219 0.0820312 C 2.066406 0.0820312 1.769531 0.0195312 1.558594 -0.101562 C 1.347656 -0.21875 1.199219 -0.378906 1.113281 -0.578125 C 1.027344 -0.773438 0.984375 -1.1875 0.984375 -1.820312 L 0.984375 -5.402344 L 0.210938 -5.402344 L 0.210938 -6.222656 L 0.984375 -6.222656 L 0.984375 -7.765625 L 2.03125 -8.398438 L 2.03125 -6.222656 L 3.09375 -6.222656 L 3.09375 -5.402344 L 2.03125 -5.402344 L 2.03125 -1.765625 C 2.03125 -1.460938 2.050781 -1.269531 2.089844 -1.183594 C 2.125 -1.097656 2.1875 -1.027344 2.269531 -0.976562 C 2.355469 -0.925781 2.472656 -0.902344 2.632812 -0.902344 C 2.75 -0.902344 2.902344 -0.914062 3.09375 -0.945312 Z M 3.09375 -0.945312 "/>
</g>
<g id="glyph-1-17">
<path d="M 4.851562 -0.765625 C 4.460938 -0.433594 4.085938 -0.199219 3.722656 -0.0625 C 3.363281 0.0703125 2.972656 0.140625 2.5625 0.140625 C 1.875 0.140625 1.351562 -0.0273438 0.984375 -0.359375 C 0.617188 -0.695312 0.433594 -1.121094 0.433594 -1.640625 C 0.433594 -1.945312 0.503906 -2.222656 0.640625 -2.476562 C 0.78125 -2.726562 0.960938 -2.929688 1.1875 -3.082031 C 1.410156 -3.234375 1.664062 -3.347656 1.945312 -3.429688 C 2.152344 -3.480469 2.464844 -3.535156 2.882812 -3.585938 C 3.734375 -3.6875 4.359375 -3.808594 4.765625 -3.949219 C 4.765625 -4.09375 4.769531 -4.183594 4.769531 -4.226562 C 4.769531 -4.652344 4.671875 -4.957031 4.46875 -5.132812 C 4.203125 -5.371094 3.800781 -5.492188 3.269531 -5.492188 C 2.773438 -5.492188 2.40625 -5.402344 2.171875 -5.230469 C 1.933594 -5.054688 1.757812 -4.746094 1.648438 -4.304688 L 0.617188 -4.445312 C 0.707031 -4.886719 0.863281 -5.246094 1.078125 -5.515625 C 1.292969 -5.789062 1.601562 -5.996094 2.007812 -6.144531 C 2.414062 -6.289062 2.886719 -6.363281 3.421875 -6.363281 C 3.953125 -6.363281 4.382812 -6.300781 4.71875 -6.175781 C 5.046875 -6.050781 5.292969 -5.894531 5.449219 -5.703125 C 5.605469 -5.515625 5.714844 -5.273438 5.777344 -4.984375 C 5.8125 -4.804688 5.828125 -4.484375 5.828125 -4.015625 L 5.828125 -2.609375 C 5.828125 -1.628906 5.851562 -1.007812 5.898438 -0.746094 C 5.941406 -0.488281 6.03125 -0.238281 6.164062 0 L 5.0625 0 C 4.953125 -0.21875 4.882812 -0.476562 4.851562 -0.765625 M 4.765625 -3.125 C 4.378906 -2.964844 3.804688 -2.832031 3.039062 -2.726562 C 2.605469 -2.660156 2.300781 -2.589844 2.121094 -2.515625 C 1.941406 -2.433594 1.800781 -2.320312 1.703125 -2.171875 C 1.605469 -2.019531 1.558594 -1.851562 1.558594 -1.671875 C 1.558594 -1.386719 1.664062 -1.152344 1.878906 -0.96875 C 2.089844 -0.78125 2.402344 -0.683594 2.8125 -0.6875 C 3.21875 -0.683594 3.578125 -0.773438 3.898438 -0.953125 C 4.210938 -1.128906 4.445312 -1.371094 4.59375 -1.679688 C 4.707031 -1.917969 4.761719 -2.269531 4.765625 -2.734375 Z M 4.765625 -3.125 "/>
</g>
<g id="glyph-1-18">
<path d="M 0.796875 -7.375 L 0.796875 -8.589844 L 1.851562 -8.589844 L 1.851562 -7.375 L 0.796875 -7.375 M 0.796875 0 L 0.796875 -6.222656 L 1.851562 -6.222656 L 1.851562 0 Z M 0.796875 0 "/>
</g>
<g id="glyph-1-19">
<path d="M 4.851562 -2.28125 L 5.890625 -2.144531 C 5.773438 -1.429688 5.484375 -0.871094 5.019531 -0.464844 C 4.550781 -0.0625 3.976562 0.140625 3.296875 0.140625 C 2.445312 0.140625 1.761719 -0.136719 1.246094 -0.695312 C 0.726562 -1.25 0.46875 -2.046875 0.46875 -3.085938 C 0.46875 -3.757812 0.578125 -4.347656 0.804688 -4.851562 C 1.023438 -5.355469 1.363281 -5.734375 1.820312 -5.984375 C 2.273438 -6.238281 2.769531 -6.363281 3.304688 -6.363281 C 3.980469 -6.363281 4.53125 -6.191406 4.960938 -5.851562 C 5.390625 -5.507812 5.667969 -5.023438 5.789062 -4.394531 L 4.765625 -4.234375 C 4.664062 -4.652344 4.492188 -4.96875 4.246094 -5.179688 C 3.996094 -5.390625 3.695312 -5.496094 3.34375 -5.496094 C 2.8125 -5.496094 2.382812 -5.304688 2.050781 -4.925781 C 1.71875 -4.542969 1.554688 -3.941406 1.554688 -3.117188 C 1.554688 -2.28125 1.710938 -1.671875 2.03125 -1.296875 C 2.351562 -0.917969 2.769531 -0.726562 3.289062 -0.726562 C 3.699219 -0.726562 4.046875 -0.851562 4.324219 -1.109375 C 4.601562 -1.359375 4.777344 -1.75 4.851562 -2.28125 Z M 4.851562 -2.28125 "/>
</g>
<g id="glyph-1-20">
<path d="M 4.867188 0 L 4.867188 -0.914062 C 4.382812 -0.210938 3.726562 0.140625 2.894531 0.140625 C 2.527344 0.140625 2.183594 0.0703125 1.867188 -0.0703125 C 1.546875 -0.210938 1.3125 -0.386719 1.15625 -0.601562 C 1.003906 -0.8125 0.894531 -1.074219 0.832031 -1.382812 C 0.789062 -1.589844 0.765625 -1.917969 0.765625 -2.367188 L 0.765625 -6.222656 L 1.820312 -6.222656 L 1.820312 -2.773438 C 1.820312 -2.21875 1.84375 -1.847656 1.886719 -1.65625 C 1.953125 -1.378906 2.09375 -1.164062 2.308594 -1.003906 C 2.523438 -0.847656 2.789062 -0.765625 3.105469 -0.765625 C 3.421875 -0.765625 3.71875 -0.847656 3.996094 -1.011719 C 4.273438 -1.171875 4.46875 -1.394531 4.585938 -1.671875 C 4.699219 -1.953125 4.757812 -2.355469 4.757812 -2.890625 L 4.757812 -6.222656 L 5.8125 -6.222656 L 5.8125 0 Z M 4.867188 0 "/>
</g>
<g id="glyph-1-21">
<path d="M 0.765625 0 L 0.765625 -8.589844 L 1.820312 -8.589844 L 1.820312 0 Z M 0.765625 0 "/>
</g>
<g id="glyph-1-22">
<path d="M 4.828125 0 L 4.828125 -0.785156 C 4.433594 -0.167969 3.851562 0.140625 3.085938 0.140625 C 2.589844 0.140625 2.136719 0.00390625 1.71875 -0.269531 C 1.304688 -0.542969 0.980469 -0.925781 0.753906 -1.414062 C 0.523438 -1.90625 0.410156 -2.46875 0.410156 -3.105469 C 0.410156 -3.726562 0.511719 -4.289062 0.71875 -4.796875 C 0.925781 -5.300781 1.238281 -5.6875 1.652344 -5.960938 C 2.066406 -6.226562 2.527344 -6.363281 3.039062 -6.363281 C 3.414062 -6.363281 3.75 -6.285156 4.042969 -6.125 C 4.335938 -5.96875 4.574219 -5.761719 4.757812 -5.507812 L 4.757812 -8.589844 L 5.804688 -8.589844 L 5.804688 0 L 4.828125 0 M 1.492188 -3.105469 C 1.492188 -2.308594 1.660156 -1.710938 2 -1.320312 C 2.332031 -0.921875 2.730469 -0.726562 3.1875 -0.726562 C 3.648438 -0.726562 4.039062 -0.914062 4.363281 -1.292969 C 4.683594 -1.667969 4.84375 -2.242188 4.84375 -3.015625 C 4.84375 -3.867188 4.679688 -4.492188 4.351562 -4.890625 C 4.023438 -5.289062 3.621094 -5.492188 3.140625 -5.492188 C 2.671875 -5.492188 2.28125 -5.296875 1.964844 -4.914062 C 1.652344 -4.53125 1.492188 -3.929688 1.492188 -3.105469 Z M 1.492188 -3.105469 "/>
</g>
<g id="glyph-1-23">
<path d="M 0.789062 0 L 0.789062 -8.589844 L 1.84375 -8.589844 L 1.84375 -5.507812 C 2.335938 -6.078125 2.957031 -6.363281 3.710938 -6.363281 C 4.167969 -6.363281 4.570312 -6.273438 4.910156 -6.089844 C 5.25 -5.910156 5.492188 -5.65625 5.640625 -5.335938 C 5.785156 -5.015625 5.859375 -4.554688 5.859375 -3.945312 L 5.859375 0 L 4.804688 0 L 4.804688 -3.945312 C 4.804688 -4.46875 4.691406 -4.855469 4.460938 -5.09375 C 4.234375 -5.335938 3.910156 -5.453125 3.492188 -5.453125 C 3.179688 -5.453125 2.886719 -5.375 2.609375 -5.210938 C 2.335938 -5.050781 2.140625 -4.828125 2.023438 -4.554688 C 1.90625 -4.273438 1.84375 -3.890625 1.84375 -3.40625 L 1.84375 0 Z M 0.789062 0 "/>
</g>
<g id="glyph-2-0">
<path d="M 2.988281 -1.238281 L 2.242188 -1.984375 C 1.820312 -1.660156 1.433594 -1.4375 1.082031 -1.324219 C 0.726562 -1.210938 0.332031 -1.203125 -0.105469 -1.304688 C -0.542969 -1.402344 -0.96875 -1.628906 -1.382812 -1.988281 L -0.773438 -2.878906 C -0.316406 -2.535156 0.0820312 -2.34375 0.414062 -2.304688 C 0.890625 -2.25 1.289062 -2.351562 1.613281 -2.613281 L -0.761719 -4.988281 C -1.125 -4.738281 -1.558594 -4.546875 -2.058594 -4.402344 C -2.429688 -4.300781 -2.796875 -4.300781 -3.160156 -4.40625 C -3.523438 -4.511719 -3.851562 -4.714844 -4.152344 -5.011719 C -4.683594 -5.542969 -4.921875 -6.160156 -4.875 -6.867188 C -4.847656 -7.335938 -4.609375 -7.847656 -4.164062 -8.390625 L -4.519531 -8.746094 L -4.082031 -9.183594 L -3.726562 -8.828125 C -3.25 -9.222656 -2.777344 -9.4375 -2.3125 -9.480469 C -1.714844 -9.535156 -1.148438 -9.359375 -0.609375 -8.953125 L -1.265625 -8.066406 C -1.601562 -8.316406 -1.917969 -8.449219 -2.210938 -8.464844 C -2.507812 -8.480469 -2.800781 -8.394531 -3.09375 -8.199219 L -0.945312 -6.050781 C -0.476562 -6.332031 -0.152344 -6.507812 0.0195312 -6.574219 C 0.355469 -6.707031 0.667969 -6.769531 0.960938 -6.769531 C 1.253906 -6.769531 1.539062 -6.707031 1.820312 -6.585938 C 2.101562 -6.460938 2.359375 -6.285156 2.59375 -6.050781 C 3.109375 -5.53125 3.375 -4.9375 3.394531 -4.261719 C 3.410156 -3.589844 3.167969 -2.980469 2.671875 -2.433594 L 3.425781 -1.679688 L 2.988281 -1.238281 M -3.542969 -7.769531 C -3.789062 -7.433594 -3.902344 -7.089844 -3.878906 -6.734375 C -3.859375 -6.378906 -3.71875 -6.074219 -3.464844 -5.816406 C -3.210938 -5.5625 -2.925781 -5.421875 -2.613281 -5.390625 C -2.296875 -5.363281 -1.921875 -5.46875 -1.480469 -5.707031 L -3.542969 -7.769531 M 2.050781 -3.054688 C 2.304688 -3.378906 2.417969 -3.746094 2.394531 -4.148438 C 2.367188 -4.554688 2.195312 -4.914062 1.875 -5.234375 C 1.605469 -5.503906 1.320312 -5.652344 1.023438 -5.683594 C 0.726562 -5.714844 0.3125 -5.59375 -0.21875 -5.324219 Z M 2.050781 -3.054688 "/>
</g>
<g id="glyph-2-1">
<path d="M -2.644531 -3.347656 C -3.363281 -4.066406 -3.867188 -4.71875 -4.15625 -5.304688 C -4.445312 -5.890625 -4.5625 -6.445312 -4.511719 -6.976562 C -4.457031 -7.503906 -4.207031 -7.988281 -3.765625 -8.429688 C -3.441406 -8.757812 -3.089844 -8.976562 -2.710938 -9.09375 C -2.335938 -9.207031 -1.941406 -9.21875 -1.535156 -9.132812 C -1.128906 -9.046875 -0.699219 -8.871094 -0.253906 -8.609375 C 0.191406 -8.34375 0.714844 -7.910156 1.316406 -7.308594 C 2.03125 -6.597656 2.53125 -5.949219 2.824219 -5.363281 C 3.113281 -4.777344 3.234375 -4.222656 3.183594 -3.691406 C 3.128906 -3.160156 2.882812 -2.671875 2.4375 -2.230469 C 1.851562 -1.644531 1.179688 -1.394531 0.425781 -1.480469 C -0.480469 -1.585938 -1.503906 -2.207031 -2.644531 -3.347656 M -1.875 -4.113281 C -0.878906 -3.117188 -0.0976562 -2.570312 0.464844 -2.472656 C 1.027344 -2.375 1.480469 -2.5 1.824219 -2.84375 C 2.164062 -3.183594 2.289062 -3.636719 2.191406 -4.203125 C 2.089844 -4.769531 1.546875 -5.546875 0.550781 -6.542969 C -0.449219 -7.542969 -1.230469 -8.089844 -1.792969 -8.183594 C -2.355469 -8.28125 -2.808594 -8.152344 -3.15625 -7.804688 C -3.5 -7.464844 -3.628906 -7.042969 -3.542969 -6.550781 C -3.429688 -5.921875 -2.875 -5.113281 -1.875 -4.113281 Z M -1.875 -4.113281 "/>
</g>
<g id="glyph-2-2">
<path d="M 3.554688 -4.988281 L 4.273438 -4.273438 L 0.257812 -0.257812 C 0.0703125 -0.429688 -0.0703125 -0.632812 -0.175781 -0.863281 C -0.34375 -1.238281 -0.449219 -1.671875 -0.492188 -2.160156 C -0.53125 -2.652344 -0.511719 -3.28125 -0.433594 -4.054688 C -0.316406 -5.257812 -0.300781 -6.132812 -0.382812 -6.679688 C -0.46875 -7.230469 -0.652344 -7.644531 -0.933594 -7.925781 C -1.226562 -8.222656 -1.582031 -8.363281 -1.996094 -8.355469 C -2.410156 -8.347656 -2.789062 -8.175781 -3.128906 -7.835938 C -3.488281 -7.476562 -3.667969 -7.082031 -3.667969 -6.648438 C -3.667969 -6.21875 -3.476562 -5.8125 -3.097656 -5.425781 L -3.945312 -4.738281 C -4.464844 -5.363281 -4.703125 -5.996094 -4.660156 -6.640625 C -4.617188 -7.28125 -4.304688 -7.890625 -3.730469 -8.46875 C -3.144531 -9.050781 -2.523438 -9.351562 -1.859375 -9.367188 C -1.199219 -9.382812 -0.628906 -9.152344 -0.148438 -8.675781 C 0.09375 -8.433594 0.28125 -8.144531 0.417969 -7.808594 C 0.554688 -7.476562 0.636719 -7.0625 0.664062 -6.574219 C 0.695312 -6.082031 0.667969 -5.34375 0.585938 -4.355469 C 0.511719 -3.53125 0.480469 -2.988281 0.488281 -2.726562 C 0.492188 -2.46875 0.523438 -2.226562 0.574219 -2.007812 Z M 3.554688 -4.988281 "/>
</g>
<g id="glyph-2-3">
<path d="M -1.238281 -1.941406 L -0.523438 -2.792969 C -0.0820312 -2.46875 0.339844 -2.316406 0.742188 -2.335938 C 1.144531 -2.355469 1.496094 -2.515625 1.792969 -2.8125 C 2.152344 -3.171875 2.320312 -3.613281 2.300781 -4.128906 C 2.277344 -4.648438 2.042969 -5.132812 1.59375 -5.582031 C 1.167969 -6.007812 0.714844 -6.222656 0.230469 -6.230469 C -0.253906 -6.234375 -0.691406 -6.046875 -1.078125 -5.660156 C -1.316406 -5.417969 -1.480469 -5.148438 -1.5625 -4.84375 C -1.648438 -4.542969 -1.660156 -4.25 -1.59375 -3.964844 L -2.386719 -3.355469 L -4.917969 -7.0625 L -1.898438 -10.085938 L -1.183594 -9.371094 L -3.609375 -6.949219 L -2.304688 -4.988281 C -2.191406 -5.605469 -1.9375 -6.117188 -1.539062 -6.515625 C -1.007812 -7.046875 -0.375 -7.3125 0.355469 -7.308594 C 1.089844 -7.304688 1.742188 -7.015625 2.320312 -6.4375 C 2.871094 -5.890625 3.183594 -5.253906 3.265625 -4.53125 C 3.367188 -3.652344 3.082031 -2.875 2.40625 -2.199219 C 1.855469 -1.648438 1.25 -1.351562 0.589844 -1.3125 C -0.0703125 -1.269531 -0.679688 -1.480469 -1.238281 -1.941406 Z M -1.238281 -1.941406 "/>
</g>
<g id="glyph-2-4">
<path d="M -4.875 -5.679688 L -5.59375 -6.398438 L -1.660156 -10.328125 L -1.082031 -9.75 C -1.054688 -8.949219 -0.894531 -8.019531 -0.589844 -6.957031 C -0.289062 -5.894531 0.121094 -4.902344 0.632812 -3.972656 C 0.992188 -3.316406 1.453125 -2.664062 2.019531 -2.019531 L 1.25 -1.25 C 0.78125 -1.738281 0.296875 -2.410156 -0.199219 -3.265625 C -0.695312 -4.121094 -1.089844 -5.03125 -1.382812 -5.996094 C -1.675781 -6.960938 -1.847656 -7.847656 -1.902344 -8.65625 Z M -4.875 -5.679688 "/>
</g>
<g id="glyph-2-5">
<path d="M 3.160156 -3.160156 L 2.414062 -2.414062 L -2.335938 -7.167969 C -2.34375 -6.816406 -2.410156 -6.410156 -2.53125 -5.949219 C -2.648438 -5.484375 -2.78125 -5.09375 -2.929688 -4.777344 L -3.648438 -5.496094 C -3.429688 -6.109375 -3.300781 -6.714844 -3.269531 -7.304688 C -3.234375 -7.894531 -3.285156 -8.386719 -3.417969 -8.78125 L -2.9375 -9.261719 Z M 3.160156 -3.160156 "/>
</g>
<g id="glyph-2-6">
<path d="M 0.753906 -0.753906 L -0.09375 -1.601562 L 0.753906 -2.453125 L 1.601562 -1.601562 C 1.914062 -1.292969 2.113281 -0.984375 2.195312 -0.679688 C 2.273438 -0.378906 2.25 -0.0546875 2.113281 0.289062 L 1.585938 0.179688 C 1.675781 -0.046875 1.691406 -0.265625 1.628906 -0.472656 C 1.570312 -0.683594 1.417969 -0.917969 1.175781 -1.175781 Z M 0.753906 -0.753906 "/>
</g>
<g id="glyph-3-0">
<path d="M 0 -0.925781 L -8.589844 -0.925781 L -8.589844 -4.167969 C -8.589844 -4.734375 -8.5625 -5.171875 -8.507812 -5.472656 C -8.4375 -5.894531 -8.304688 -6.246094 -8.105469 -6.535156 C -7.910156 -6.816406 -7.632812 -7.046875 -7.277344 -7.222656 C -6.921875 -7.394531 -6.53125 -7.484375 -6.105469 -7.484375 C -5.375 -7.484375 -4.757812 -7.25 -4.25 -6.785156 C -3.746094 -6.320312 -3.492188 -5.480469 -3.492188 -4.265625 L -3.492188 -2.0625 L 0 -2.0625 L 0 -0.925781 M -4.507812 -2.0625 L -4.507812 -4.28125 C -4.507812 -5.015625 -4.640625 -5.539062 -4.914062 -5.847656 C -5.1875 -6.15625 -5.574219 -6.3125 -6.070312 -6.3125 C -6.429688 -6.3125 -6.738281 -6.21875 -6.992188 -6.039062 C -7.25 -5.855469 -7.417969 -5.617188 -7.5 -5.320312 C -7.550781 -5.128906 -7.578125 -4.777344 -7.578125 -4.261719 L -7.578125 -2.0625 Z M -4.507812 -2.0625 "/>
</g>
<g id="glyph-3-1">
<path d="M -3.109375 -0.398438 C -4.261719 -0.398438 -5.117188 -0.71875 -5.671875 -1.359375 C -6.132812 -1.894531 -6.363281 -2.546875 -6.363281 -3.316406 C -6.363281 -4.171875 -6.082031 -4.871094 -5.523438 -5.414062 C -4.960938 -5.957031 -4.1875 -6.226562 -3.199219 -6.226562 C -2.398438 -6.226562 -1.769531 -6.109375 -1.308594 -5.867188 C -0.851562 -5.628906 -0.492188 -5.277344 -0.238281 -4.820312 C 0.0117188 -4.359375 0.140625 -3.859375 0.140625 -3.316406 C 0.140625 -2.445312 -0.140625 -1.742188 -0.695312 -1.203125 C -1.253906 -0.667969 -2.058594 -0.398438 -3.109375 -0.398438 M -3.109375 -1.484375 C -2.3125 -1.484375 -1.71875 -1.65625 -1.320312 -2.003906 C -0.925781 -2.351562 -0.726562 -2.789062 -0.726562 -3.316406 C -0.726562 -3.839844 -0.925781 -4.273438 -1.324219 -4.625 C -1.722656 -4.96875 -2.328125 -5.144531 -3.144531 -5.144531 C -3.914062 -5.144531 -4.5 -4.96875 -4.894531 -4.621094 C -5.292969 -4.269531 -5.492188 -3.835938 -5.492188 -3.316406 C -5.492188 -2.789062 -5.292969 -2.351562 -4.898438 -2.003906 C -4.503906 -1.65625 -3.90625 -1.484375 -3.109375 -1.484375 Z M -3.109375 -1.484375 "/>
</g>
<g id="glyph-3-2">
<path d="M 0 -0.78125 L -6.222656 -0.78125 L -6.222656 -1.730469 L -5.28125 -1.730469 C -5.71875 -1.96875 -6.011719 -2.195312 -6.152344 -2.398438 C -6.292969 -2.605469 -6.363281 -2.828125 -6.363281 -3.078125 C -6.363281 -3.429688 -6.25 -3.792969 -6.023438 -4.160156 L -5.046875 -3.796875 C -5.195312 -3.539062 -5.273438 -3.28125 -5.273438 -3.023438 C -5.273438 -2.792969 -5.203125 -2.585938 -5.066406 -2.402344 C -4.925781 -2.21875 -4.734375 -2.085938 -4.488281 -2.011719 C -4.113281 -1.894531 -3.703125 -1.835938 -3.257812 -1.835938 L 0 -1.835938 Z M 0 -0.78125 "/>
</g>
<g id="glyph-3-3">
<path d="M -2.277344 -4.851562 L -2.144531 -5.890625 C -1.429688 -5.773438 -0.871094 -5.484375 -0.464844 -5.019531 C -0.0625 -4.550781 0.140625 -3.976562 0.140625 -3.296875 C 0.140625 -2.445312 -0.136719 -1.761719 -0.695312 -1.246094 C -1.25 -0.726562 -2.046875 -0.46875 -3.085938 -0.46875 C -3.757812 -0.46875 -4.347656 -0.582031 -4.851562 -0.804688 C -5.355469 -1.027344 -5.734375 -1.363281 -5.984375 -1.820312 C -6.238281 -2.273438 -6.363281 -2.769531 -6.363281 -3.304688 C -6.363281 -3.980469 -6.191406 -4.53125 -5.851562 -4.960938 C -5.507812 -5.390625 -5.023438 -5.667969 -4.394531 -5.789062 L -4.234375 -4.765625 C -4.652344 -4.664062 -4.96875 -4.492188 -5.179688 -4.246094 C -5.390625 -3.996094 -5.496094 -3.699219 -5.496094 -3.347656 C -5.496094 -2.8125 -5.304688 -2.382812 -4.925781 -2.050781 C -4.542969 -1.71875 -3.941406 -1.554688 -3.117188 -1.554688 C -2.28125 -1.554688 -1.671875 -1.710938 -1.292969 -2.03125 C -0.917969 -2.351562 -0.726562 -2.769531 -0.726562 -3.289062 C -0.726562 -3.699219 -0.851562 -4.046875 -1.105469 -4.324219 C -1.359375 -4.601562 -1.75 -4.777344 -2.277344 -4.851562 Z M -2.277344 -4.851562 "/>
</g>
<g id="glyph-3-4">
<path d="M -2.003906 -5.050781 L -1.867188 -6.140625 C -1.230469 -5.96875 -0.738281 -5.648438 -0.386719 -5.1875 C -0.0351562 -4.71875 0.140625 -4.125 0.140625 -3.40625 C 0.140625 -2.492188 -0.140625 -1.773438 -0.699219 -1.238281 C -1.261719 -0.707031 -2.046875 -0.441406 -3.058594 -0.441406 C -4.105469 -0.441406 -4.917969 -0.710938 -5.496094 -1.25 C -6.074219 -1.789062 -6.363281 -2.484375 -6.363281 -3.347656 C -6.363281 -4.179688 -6.078125 -4.859375 -5.515625 -5.382812 C -4.945312 -5.914062 -4.148438 -6.175781 -3.121094 -6.175781 C -3.058594 -6.175781 -2.964844 -6.171875 -2.839844 -6.171875 L -2.84375 -1.53125 C -2.15625 -1.566406 -1.632812 -1.761719 -1.269531 -2.109375 C -0.90625 -2.457031 -0.726562 -2.890625 -0.726562 -3.410156 C -0.726562 -3.796875 -0.828125 -4.125 -1.03125 -4.398438 C -1.234375 -4.671875 -1.558594 -4.890625 -2.003906 -5.050781 M -3.710938 -1.589844 L -3.707031 -5.0625 C -4.230469 -5.015625 -4.625 -4.882812 -4.886719 -4.664062 C -5.292969 -4.328125 -5.496094 -3.890625 -5.496094 -3.359375 C -5.496094 -2.871094 -5.332031 -2.464844 -5.007812 -2.136719 C -4.683594 -1.804688 -4.25 -1.625 -3.710938 -1.589844 Z M -3.710938 -1.589844 "/>
</g>
<g id="glyph-3-5">
<path d="M 0 -0.789062 L -6.222656 -0.792969 L -6.222656 -1.742188 L -5.335938 -1.742188 C -6.019531 -2.195312 -6.363281 -2.855469 -6.363281 -3.722656 C -6.363281 -4.09375 -6.296875 -4.441406 -6.160156 -4.753906 C -6.027344 -5.070312 -5.847656 -5.304688 -5.632812 -5.460938 C -5.410156 -5.617188 -5.152344 -5.726562 -4.851562 -5.789062 C -4.65625 -5.828125 -4.3125 -5.847656 -3.824219 -5.847656 L 0 -5.847656 L 0 -4.792969 L -3.785156 -4.792969 C -4.214844 -4.792969 -4.535156 -4.75 -4.75 -4.671875 C -4.960938 -4.585938 -5.132812 -4.441406 -5.257812 -4.234375 C -5.386719 -4.023438 -5.449219 -3.78125 -5.449219 -3.5 C -5.449219 -3.046875 -5.304688 -2.660156 -5.023438 -2.335938 C -4.734375 -2.007812 -4.195312 -1.847656 -3.398438 -1.847656 L 0 -1.84375 Z M 0 -0.789062 "/>
</g>
<g id="glyph-3-6">
<path d="M -0.941406 -3.09375 L -0.0117188 -3.246094 C 0.0507812 -2.949219 0.0820312 -2.683594 0.0820312 -2.449219 C 0.0820312 -2.066406 0.0195312 -1.769531 -0.0976562 -1.558594 C -0.21875 -1.347656 -0.378906 -1.199219 -0.578125 -1.113281 C -0.773438 -1.027344 -1.1875 -0.984375 -1.820312 -0.984375 L -5.402344 -0.984375 L -5.402344 -0.210938 L -6.222656 -0.210938 L -6.222656 -0.984375 L -7.765625 -0.984375 L -8.398438 -2.035156 L -6.222656 -2.035156 L -6.222656 -3.09375 L -5.402344 -3.09375 L -5.402344 -2.035156 L -1.761719 -2.03125 C -1.460938 -2.03125 -1.269531 -2.050781 -1.183594 -2.089844 C -1.097656 -2.125 -1.027344 -2.1875 -0.976562 -2.269531 C -0.925781 -2.355469 -0.902344 -2.472656 -0.902344 -2.632812 C -0.902344 -2.75 -0.914062 -2.902344 -0.941406 -3.09375 Z M -0.941406 -3.09375 "/>
</g>
<g id="glyph-3-7">
<path d="M -0.765625 -4.851562 C -0.433594 -4.460938 -0.199219 -4.085938 -0.0625 -3.722656 C 0.0703125 -3.363281 0.140625 -2.972656 0.140625 -2.5625 C 0.140625 -1.875 -0.0273438 -1.351562 -0.359375 -0.984375 C -0.695312 -0.617188 -1.121094 -0.433594 -1.640625 -0.433594 C -1.945312 -0.433594 -2.222656 -0.503906 -2.476562 -0.640625 C -2.726562 -0.78125 -2.929688 -0.960938 -3.082031 -1.1875 C -3.234375 -1.410156 -3.347656 -1.664062 -3.429688 -1.945312 C -3.480469 -2.152344 -3.535156 -2.464844 -3.585938 -2.882812 C -3.6875 -3.734375 -3.808594 -4.359375 -3.949219 -4.765625 C -4.09375 -4.765625 -4.183594 -4.769531 -4.226562 -4.769531 C -4.652344 -4.769531 -4.957031 -4.671875 -5.132812 -4.46875 C -5.371094 -4.203125 -5.492188 -3.800781 -5.492188 -3.269531 C -5.492188 -2.773438 -5.402344 -2.40625 -5.230469 -2.171875 C -5.054688 -1.933594 -4.746094 -1.757812 -4.304688 -1.648438 L -4.445312 -0.617188 C -4.886719 -0.707031 -5.246094 -0.863281 -5.515625 -1.078125 C -5.789062 -1.292969 -5.996094 -1.601562 -6.144531 -2.011719 C -6.289062 -2.414062 -6.363281 -2.886719 -6.363281 -3.421875 C -6.363281 -3.953125 -6.300781 -4.382812 -6.175781 -4.71875 C -6.050781 -5.046875 -5.894531 -5.292969 -5.703125 -5.449219 C -5.515625 -5.605469 -5.273438 -5.714844 -4.984375 -5.777344 C -4.804688 -5.8125 -4.484375 -5.828125 -4.015625 -5.828125 L -2.605469 -5.828125 C -1.628906 -5.828125 -1.007812 -5.851562 -0.746094 -5.898438 C -0.488281 -5.941406 -0.238281 -6.03125 0 -6.164062 L 0 -5.0625 C -0.21875 -4.953125 -0.472656 -4.882812 -0.765625 -4.851562 M -3.121094 -4.765625 C -2.964844 -4.378906 -2.832031 -3.804688 -2.726562 -3.039062 C -2.660156 -2.605469 -2.589844 -2.300781 -2.515625 -2.121094 C -2.433594 -1.941406 -2.320312 -1.800781 -2.171875 -1.707031 C -2.019531 -1.605469 -1.851562 -1.558594 -1.671875 -1.558594 C -1.386719 -1.558594 -1.152344 -1.664062 -0.964844 -1.878906 C -0.777344 -2.089844 -0.683594 -2.402344 -0.683594 -2.8125 C -0.683594 -3.21875 -0.773438 -3.578125 -0.953125 -3.898438 C -1.128906 -4.210938 -1.371094 -4.445312 -1.679688 -4.59375 C -1.917969 -4.707031 -2.269531 -4.761719 -2.734375 -4.765625 Z M -3.121094 -4.765625 "/>
</g>
<g id="glyph-3-8">
<path d="M -7.367188 -0.785156 L -8.589844 -0.785156 L -8.589844 -1.839844 L -7.367188 -1.839844 L -7.367188 -0.785156 M 2.414062 0.550781 L 1.515625 0.351562 C 1.570312 0.140625 1.601562 -0.0273438 1.601562 -0.144531 C 1.601562 -0.359375 1.527344 -0.519531 1.386719 -0.625 C 1.242188 -0.730469 0.886719 -0.785156 0.316406 -0.785156 L -6.222656 -0.785156 L -6.222656 -1.839844 L 0.339844 -1.839844 C 1.105469 -1.839844 1.636719 -1.742188 1.9375 -1.539062 C 2.328125 -1.285156 2.523438 -0.863281 2.523438 -0.273438 C 2.523438 0.0078125 2.488281 0.285156 2.414062 0.550781 Z M 2.414062 0.550781 "/>
</g>
<g id="glyph-3-9">
</g>
<g id="glyph-3-10">
<path d="M 0 -4.828125 L -0.785156 -4.828125 C -0.167969 -4.433594 0.140625 -3.851562 0.140625 -3.085938 C 0.140625 -2.589844 0.00390625 -2.136719 -0.269531 -1.71875 C -0.542969 -1.304688 -0.925781 -0.980469 -1.414062 -0.753906 C -1.90625 -0.523438 -2.46875 -0.410156 -3.105469 -0.410156 C -3.726562 -0.410156 -4.289062 -0.511719 -4.796875 -0.722656 C -5.300781 -0.925781 -5.6875 -1.238281 -5.960938 -1.652344 C -6.226562 -2.066406 -6.363281 -2.527344 -6.363281 -3.042969 C -6.363281 -3.417969 -6.285156 -3.75 -6.125 -4.042969 C -5.96875 -4.335938 -5.761719 -4.574219 -5.507812 -4.757812 L -8.589844 -4.757812 L -8.589844 -5.808594 L 0 -5.804688 L 0 -4.828125 M -3.105469 -1.496094 C -2.308594 -1.492188 -1.710938 -1.660156 -1.316406 -2 C -0.921875 -2.332031 -0.726562 -2.730469 -0.726562 -3.1875 C -0.726562 -3.648438 -0.914062 -4.039062 -1.292969 -4.363281 C -1.667969 -4.683594 -2.242188 -4.84375 -3.015625 -4.84375 C -3.867188 -4.84375 -4.492188 -4.679688 -4.890625 -4.351562 C -5.289062 -4.023438 -5.492188 -3.621094 -5.492188 -3.140625 C -5.492188 -2.671875 -5.296875 -2.28125 -4.914062 -1.964844 C -4.53125 -1.652344 -3.929688 -1.492188 -3.105469 -1.496094 Z M -3.105469 -1.496094 "/>
</g>
<g id="glyph-3-11">
<path d="M 0 -0.789062 L -8.589844 -0.792969 L -8.589844 -1.847656 L -5.507812 -1.847656 C -6.078125 -2.335938 -6.363281 -2.957031 -6.363281 -3.710938 C -6.363281 -4.167969 -6.273438 -4.570312 -6.089844 -4.910156 C -5.910156 -5.25 -5.65625 -5.492188 -5.335938 -5.640625 C -5.015625 -5.785156 -4.554688 -5.859375 -3.941406 -5.859375 L 0 -5.859375 L 0 -4.804688 L -3.941406 -4.804688 C -4.46875 -4.804688 -4.855469 -4.691406 -5.09375 -4.460938 C -5.335938 -4.234375 -5.453125 -3.910156 -5.453125 -3.492188 C -5.453125 -3.179688 -5.375 -2.886719 -5.210938 -2.609375 C -5.050781 -2.335938 -4.828125 -2.140625 -4.554688 -2.023438 C -4.273438 -1.90625 -3.890625 -1.847656 -3.40625 -1.847656 L 0 -1.84375 Z M 0 -0.789062 "/>
</g>
<g id="glyph-3-12">
<path d="M 0.515625 -0.597656 L 0.667969 -1.625 C 0.984375 -1.664062 1.214844 -1.785156 1.359375 -1.980469 C 1.554688 -2.242188 1.652344 -2.597656 1.652344 -3.054688 C 1.652344 -3.539062 1.554688 -3.917969 1.359375 -4.183594 C 1.164062 -4.449219 0.890625 -4.628906 0.539062 -4.722656 C 0.324219 -4.777344 -0.128906 -4.800781 -0.8125 -4.796875 C -0.273438 -4.335938 0 -3.761719 0 -3.078125 C 0 -2.21875 -0.308594 -1.558594 -0.925781 -1.089844 C -1.542969 -0.621094 -2.28125 -0.386719 -3.148438 -0.386719 C -3.738281 -0.386719 -4.289062 -0.492188 -4.789062 -0.710938 C -5.292969 -0.921875 -5.679688 -1.234375 -5.953125 -1.644531 C -6.226562 -2.050781 -6.363281 -2.53125 -6.363281 -3.082031 C -6.363281 -3.816406 -6.066406 -4.421875 -5.472656 -4.898438 L -6.222656 -4.898438 L -6.222656 -5.871094 L -0.84375 -5.871094 C 0.125 -5.871094 0.8125 -5.773438 1.214844 -5.574219 C 1.621094 -5.378906 1.941406 -5.066406 2.175781 -4.636719 C 2.410156 -4.210938 2.527344 -3.683594 2.523438 -3.058594 C 2.523438 -2.316406 2.359375 -1.714844 2.023438 -1.257812 C 1.691406 -0.800781 1.1875 -0.582031 0.515625 -0.597656 M -3.222656 -1.472656 C -2.40625 -1.472656 -1.8125 -1.632812 -1.433594 -1.957031 C -1.058594 -2.28125 -0.871094 -2.6875 -0.871094 -3.175781 C -0.871094 -3.660156 -1.058594 -4.066406 -1.433594 -4.394531 C -1.804688 -4.722656 -2.390625 -4.886719 -3.1875 -4.886719 C -3.949219 -4.886719 -4.523438 -4.71875 -4.910156 -4.378906 C -5.296875 -4.042969 -5.492188 -3.632812 -5.492188 -3.160156 C -5.492188 -2.691406 -5.300781 -2.292969 -4.917969 -1.964844 C -4.539062 -1.636719 -3.972656 -1.472656 -3.222656 -1.472656 Z M -3.222656 -1.472656 "/>
</g>
<g id="glyph-3-13">
<path d="M -1.859375 -0.371094 L -2.023438 -1.414062 C -1.601562 -1.46875 -1.28125 -1.632812 -1.058594 -1.902344 C -0.835938 -2.167969 -0.726562 -2.542969 -0.726562 -3.023438 C -0.726562 -3.507812 -0.824219 -3.867188 -1.023438 -4.101562 C -1.21875 -4.335938 -1.449219 -4.453125 -1.714844 -4.453125 C -1.953125 -4.453125 -2.140625 -4.347656 -2.277344 -4.140625 C -2.371094 -3.996094 -2.492188 -3.640625 -2.636719 -3.0625 C -2.832031 -2.289062 -3 -1.753906 -3.144531 -1.457031 C -3.285156 -1.15625 -3.484375 -0.929688 -3.734375 -0.777344 C -3.988281 -0.621094 -4.265625 -0.546875 -4.570312 -0.546875 C -4.847656 -0.546875 -5.105469 -0.609375 -5.339844 -0.734375 C -5.578125 -0.863281 -5.773438 -1.035156 -5.929688 -1.253906 C -6.050781 -1.417969 -6.152344 -1.640625 -6.238281 -1.925781 C -6.320312 -2.207031 -6.363281 -2.511719 -6.363281 -2.835938 C -6.363281 -3.324219 -6.292969 -3.753906 -6.152344 -4.121094 C -6.011719 -4.492188 -5.820312 -4.761719 -5.582031 -4.9375 C -5.339844 -5.113281 -5.019531 -5.234375 -4.617188 -5.304688 L -4.476562 -4.273438 C -4.796875 -4.226562 -5.046875 -4.089844 -5.226562 -3.863281 C -5.40625 -3.640625 -5.496094 -3.324219 -5.496094 -2.914062 C -5.496094 -2.425781 -5.414062 -2.082031 -5.257812 -1.875 C -5.09375 -1.667969 -4.90625 -1.566406 -4.695312 -1.566406 C -4.554688 -1.566406 -4.433594 -1.605469 -4.324219 -1.695312 C -4.210938 -1.777344 -4.117188 -1.914062 -4.042969 -2.097656 C -4.003906 -2.203125 -3.914062 -2.515625 -3.773438 -3.03125 C -3.574219 -3.773438 -3.410156 -4.296875 -3.285156 -4.589844 C -3.15625 -4.886719 -2.972656 -5.117188 -2.730469 -5.285156 C -2.488281 -5.453125 -2.1875 -5.535156 -1.828125 -5.539062 C -1.476562 -5.535156 -1.144531 -5.433594 -0.835938 -5.230469 C -0.523438 -5.023438 -0.285156 -4.726562 -0.113281 -4.34375 C 0.0546875 -3.953125 0.140625 -3.515625 0.140625 -3.03125 C 0.140625 -2.21875 -0.0273438 -1.605469 -0.363281 -1.179688 C -0.699219 -0.757812 -1.199219 -0.488281 -1.859375 -0.371094 Z M -1.859375 -0.371094 "/>
</g>
</g>
<clipPath id="clip-0">
<path clip-rule="nonzero" d="M 62.4375 7.96875 L 452.058594 7.96875 L 452.058594 304.335938 L 62.4375 304.335938 Z M 62.4375 7.96875 "/>
</clipPath>
<clipPath id="clip-1">
<path clip-rule="nonzero" d="M 62.4375 235 L 78 235 L 78 304.335938 L 62.4375 304.335938 Z M 62.4375 235 "/>
</clipPath>
<clipPath id="clip-2">
<path clip-rule="nonzero" d="M 77 131 L 93 131 L 93 304.335938 L 77 304.335938 Z M 77 131 "/>
</clipPath>
<clipPath id="clip-3">
<path clip-rule="nonzero" d="M 77 130 L 94 130 L 94 304.335938 L 77 304.335938 Z M 77 130 "/>
</clipPath>
<clipPath id="clip-4">
<path clip-rule="nonzero" d="M 92 67 L 109 67 L 109 304.335938 L 92 304.335938 Z M 92 67 "/>
</clipPath>
<clipPath id="clip-5">
<path clip-rule="nonzero" d="M 108 47 L 124 47 L 124 304.335938 L 108 304.335938 Z M 108 47 "/>
</clipPath>
<clipPath id="clip-6">
<path clip-rule="nonzero" d="M 123 34 L 139 34 L 139 304.335938 L 123 304.335938 Z M 123 34 "/>
</clipPath>
<clipPath id="clip-7">
<path clip-rule="nonzero" d="M 123 34 L 140 34 L 140 304.335938 L 123 304.335938 Z M 123 34 "/>
</clipPath>
<clipPath id="clip-8">
<path clip-rule="nonzero" d="M 138 59 L 155 59 L 155 304.335938 L 138 304.335938 Z M 138 59 "/>
</clipPath>
<clipPath id="clip-9">
<path clip-rule="nonzero" d="M 154 109 L 170 109 L 170 304.335938 L 154 304.335938 Z M 154 109 "/>
</clipPath>
<clipPath id="clip-10">
<path clip-rule="nonzero" d="M 153 109 L 170 109 L 170 304.335938 L 153 304.335938 Z M 153 109 "/>
</clipPath>
<clipPath id="clip-11">
<path clip-rule="nonzero" d="M 169 148 L 185 148 L 185 304.335938 L 169 304.335938 Z M 169 148 "/>
</clipPath>
<clipPath id="clip-12">
<path clip-rule="nonzero" d="M 184 165 L 200 165 L 200 304.335938 L 184 304.335938 Z M 184 165 "/>
</clipPath>
<clipPath id="clip-13">
<path clip-rule="nonzero" d="M 184 165 L 201 165 L 201 304.335938 L 184 304.335938 Z M 184 165 "/>
</clipPath>
<clipPath id="clip-14">
<path clip-rule="nonzero" d="M 199 190 L 216 190 L 216 304.335938 L 199 304.335938 Z M 199 190 "/>
</clipPath>
<clipPath id="clip-15">
<path clip-rule="nonzero" d="M 215 208 L 231 208 L 231 304.335938 L 215 304.335938 Z M 215 208 "/>
</clipPath>
<clipPath id="clip-16">
<path clip-rule="nonzero" d="M 230 223 L 246 223 L 246 304.335938 L 230 304.335938 Z M 230 223 "/>
</clipPath>
<clipPath id="clip-17">
<path clip-rule="nonzero" d="M 230 223 L 247 223 L 247 304.335938 L 230 304.335938 Z M 230 223 "/>
</clipPath>
<clipPath id="clip-18">
<path clip-rule="nonzero" d="M 245 233 L 262 233 L 262 304.335938 L 245 304.335938 Z M 245 233 "/>
</clipPath>
<clipPath id="clip-19">
<path clip-rule="nonzero" d="M 245 232 L 262 232 L 262 304.335938 L 245 304.335938 Z M 245 232 "/>
</clipPath>
<clipPath id="clip-20">
<path clip-rule="nonzero" d="M 261 243 L 277 243 L 277 304.335938 L 261 304.335938 Z M 261 243 "/>
</clipPath>
<clipPath id="clip-21">
<path clip-rule="nonzero" d="M 260 243 L 277 243 L 277 304.335938 L 260 304.335938 Z M 260 243 "/>
</clipPath>
<clipPath id="clip-22">
<path clip-rule="nonzero" d="M 276 249 L 292 249 L 292 304.335938 L 276 304.335938 Z M 276 249 "/>
</clipPath>
<clipPath id="clip-23">
<path clip-rule="nonzero" d="M 291 261 L 307 261 L 307 304.335938 L 291 304.335938 Z M 291 261 "/>
</clipPath>
<clipPath id="clip-24">
<path clip-rule="nonzero" d="M 291 261 L 308 261 L 308 304.335938 L 291 304.335938 Z M 291 261 "/>
</clipPath>
<clipPath id="clip-25">
<path clip-rule="nonzero" d="M 306 270 L 323 270 L 323 304.335938 L 306 304.335938 Z M 306 270 "/>
</clipPath>
<clipPath id="clip-26">
<path clip-rule="nonzero" d="M 322 271 L 338 271 L 338 304.335938 L 322 304.335938 Z M 322 271 "/>
</clipPath>
<clipPath id="clip-27">
<path clip-rule="nonzero" d="M 321 271 L 338 271 L 338 304.335938 L 321 304.335938 Z M 321 271 "/>
</clipPath>
<clipPath id="clip-28">
<path clip-rule="nonzero" d="M 337 272 L 353 272 L 353 304.335938 L 337 304.335938 Z M 337 272 "/>
</clipPath>
<clipPath id="clip-29">
<path clip-rule="nonzero" d="M 352 280 L 369 280 L 369 304.335938 L 352 304.335938 Z M 352 280 "/>
</clipPath>
<clipPath id="clip-30">
<path clip-rule="nonzero" d="M 368 281 L 384 281 L 384 304.335938 L 368 304.335938 Z M 368 281 "/>
</clipPath>
<clipPath id="clip-31">
<path clip-rule="nonzero" d="M 367 281 L 384 281 L 384 304.335938 L 367 304.335938 Z M 367 281 "/>
</clipPath>
<clipPath id="clip-32">
<path clip-rule="nonzero" d="M 383 286 L 399 286 L 399 304.335938 L 383 304.335938 Z M 383 286 "/>
</clipPath>
<clipPath id="clip-33">
<path clip-rule="nonzero" d="M 383 285 L 399 285 L 399 304.335938 L 383 304.335938 Z M 383 285 "/>
</clipPath>
<clipPath id="clip-34">
<path clip-rule="nonzero" d="M 398 289 L 414 289 L 414 304.335938 L 398 304.335938 Z M 398 289 "/>
</clipPath>
<clipPath id="clip-35">
<path clip-rule="nonzero" d="M 398 288 L 415 288 L 415 304.335938 L 398 304.335938 Z M 398 288 "/>
</clipPath>
<clipPath id="clip-36">
<path clip-rule="nonzero" d="M 413 289 L 430 289 L 430 304.335938 L 413 304.335938 Z M 413 289 "/>
</clipPath>
<clipPath id="clip-37">
<path clip-rule="nonzero" d="M 429 288 L 445 288 L 445 304.335938 L 429 304.335938 Z M 429 288 "/>
</clipPath>
<clipPath id="clip-38">
<path clip-rule="nonzero" d="M 428 288 L 445 288 L 445 304.335938 L 428 304.335938 Z M 428 288 "/>
</clipPath>
<clipPath id="clip-39">
<path clip-rule="nonzero" d="M 156 7.96875 L 159 7.96875 L 159 304.335938 L 156 304.335938 Z M 156 7.96875 "/>
</clipPath>
</defs>
<rect x="-46.8" y="-37.4" width="561.6" height="448.8" fill="rgb(100%, 100%, 100%)" fill-opacity="1"/>
<rect x="-46.8" y="-37.4" width="561.6" height="448.8" fill="rgb(100%, 100%, 100%)" fill-opacity="1"/>
<path fill="none" stroke-width="1.163976" stroke-linecap="round" stroke-linejoin="round" stroke="rgb(100%, 100%, 100%)" stroke-opacity="1" stroke-miterlimit="10" d="M 0 374 L 468 374 L 468 0 L 0 0 Z M 0 374 "/>
<g clip-path="url(#clip-0)">
<path fill-rule="nonzero" fill="rgb(100%, 100%, 100%)" fill-opacity="1" d="M 62.4375 304.335938 L 452.058594 304.335938 L 452.058594 7.96875 L 62.4375 7.96875 Z M 62.4375 304.335938 "/>
</g>
<g clip-path="url(#clip-1)">
<path fill-rule="nonzero" fill="rgb(17.647059%, 41.568627%, 62.352941%)" fill-opacity="1" stroke-width="0.426791" stroke-linecap="butt" stroke-linejoin="miter" stroke="rgb(100%, 100%, 100%)" stroke-opacity="1" stroke-miterlimit="10" d="M 62.4375 304.335938 L 77.714844 304.335938 L 77.714844 235.40625 L 62.4375 235.40625 Z M 62.4375 304.335938 "/>
</g>
<g clip-path="url(#clip-2)">
<path fill-rule="nonzero" fill="rgb(17.647059%, 41.568627%, 62.352941%)" fill-opacity="1" d="M 77.71875 304.335938 L 92.996094 304.335938 L 92.996094 131.175781 L 77.71875 131.175781 Z M 77.71875 304.335938 "/>
</g>
<g clip-path="url(#clip-3)">
<path fill="none" stroke-width="0.426791" stroke-linecap="butt" stroke-linejoin="miter" stroke="rgb(100%, 100%, 100%)" stroke-opacity="1" stroke-miterlimit="10" d="M 77.71875 304.335938 L 92.996094 304.335938 L 92.996094 131.175781 L 77.71875 131.175781 Z M 77.71875 304.335938 "/>
</g>
<g clip-path="url(#clip-4)">
<path fill-rule="nonzero" fill="rgb(17.647059%, 41.568627%, 62.352941%)" fill-opacity="1" stroke-width="0.426791" stroke-linecap="butt" stroke-linejoin="miter" stroke="rgb(100%, 100%, 100%)" stroke-opacity="1" stroke-miterlimit="10" d="M 92.996094 304.335938 L 108.273438 304.335938 L 108.273438 67.855469 L 92.996094 67.855469 Z M 92.996094 304.335938 "/>
</g>
<g clip-path="url(#clip-5)">
<path fill-rule="nonzero" fill="rgb(17.647059%, 41.568627%, 62.352941%)" fill-opacity="1" stroke-width="0.426791" stroke-linecap="butt" stroke-linejoin="miter" stroke="rgb(100%, 100%, 100%)" stroke-opacity="1" stroke-miterlimit="10" d="M 108.277344 304.335938 L 123.554688 304.335938 L 123.554688 47.878906 L 108.277344 47.878906 Z M 108.277344 304.335938 "/>
</g>
<g clip-path="url(#clip-6)">
<path fill-rule="nonzero" fill="rgb(17.647059%, 41.568627%, 62.352941%)" fill-opacity="1" d="M 123.554688 304.335938 L 138.832031 304.335938 L 138.832031 34.910156 L 123.554688 34.910156 Z M 123.554688 304.335938 "/>
</g>
<g clip-path="url(#clip-7)">
<path fill="none" stroke-width="0.426791" stroke-linecap="butt" stroke-linejoin="miter" stroke="rgb(100%, 100%, 100%)" stroke-opacity="1" stroke-miterlimit="10" d="M 123.554688 304.335938 L 138.832031 304.335938 L 138.832031 34.910156 L 123.554688 34.910156 Z M 123.554688 304.335938 "/>
</g>
<g clip-path="url(#clip-8)">
<path fill-rule="nonzero" fill="rgb(17.647059%, 41.568627%, 62.352941%)" fill-opacity="1" stroke-width="0.426791" stroke-linecap="butt" stroke-linejoin="miter" stroke="rgb(100%, 100%, 100%)" stroke-opacity="1" stroke-miterlimit="10" d="M 138.835938 304.335938 L 154.113281 304.335938 L 154.113281 59.699219 L 138.835938 59.699219 Z M 138.835938 304.335938 "/>
</g>
<g clip-path="url(#clip-9)">
<path fill-rule="nonzero" fill="rgb(17.647059%, 41.568627%, 62.352941%)" fill-opacity="1" d="M 154.113281 304.335938 L 169.390625 304.335938 L 169.390625 109.222656 L 154.113281 109.222656 Z M 154.113281 304.335938 "/>
</g>
<g clip-path="url(#clip-10)">
<path fill="none" stroke-width="0.426791" stroke-linecap="butt" stroke-linejoin="miter" stroke="rgb(100%, 100%, 100%)" stroke-opacity="1" stroke-miterlimit="10" d="M 154.113281 304.335938 L 169.390625 304.335938 L 169.390625 109.222656 L 154.113281 109.222656 Z M 154.113281 304.335938 "/>
</g>
<g clip-path="url(#clip-11)">
<path fill-rule="nonzero" fill="rgb(17.647059%, 41.568627%, 62.352941%)" fill-opacity="1" stroke-width="0.426791" stroke-linecap="butt" stroke-linejoin="miter" stroke="rgb(100%, 100%, 100%)" stroke-opacity="1" stroke-miterlimit="10" d="M 169.394531 304.335938 L 184.671875 304.335938 L 184.671875 148.992188 L 169.394531 148.992188 Z M 169.394531 304.335938 "/>
</g>
<g clip-path="url(#clip-12)">
<path fill-rule="nonzero" fill="rgb(17.647059%, 41.568627%, 62.352941%)" fill-opacity="1" d="M 184.671875 304.335938 L 199.949219 304.335938 L 199.949219 165.28125 L 184.671875 165.28125 Z M 184.671875 304.335938 "/>
</g>
<g clip-path="url(#clip-13)">
<path fill="none" stroke-width="0.426791" stroke-linecap="butt" stroke-linejoin="miter" stroke="rgb(100%, 100%, 100%)" stroke-opacity="1" stroke-miterlimit="10" d="M 184.671875 304.335938 L 199.949219 304.335938 L 199.949219 165.28125 L 184.671875 165.28125 Z M 184.671875 304.335938 "/>
</g>
<g clip-path="url(#clip-14)">
<path fill-rule="nonzero" fill="rgb(17.647059%, 41.568627%, 62.352941%)" fill-opacity="1" stroke-width="0.426791" stroke-linecap="butt" stroke-linejoin="miter" stroke="rgb(100%, 100%, 100%)" stroke-opacity="1" stroke-miterlimit="10" d="M 199.953125 304.335938 L 215.230469 304.335938 L 215.230469 190.703125 L 199.953125 190.703125 Z M 199.953125 304.335938 "/>
</g>
<g clip-path="url(#clip-15)">
<path fill-rule="nonzero" fill="rgb(17.647059%, 41.568627%, 62.352941%)" fill-opacity="1" stroke-width="0.426791" stroke-linecap="butt" stroke-linejoin="miter" stroke="rgb(100%, 100%, 100%)" stroke-opacity="1" stroke-miterlimit="10" d="M 215.230469 304.335938 L 230.507812 304.335938 L 230.507812 208.992188 L 215.230469 208.992188 Z M 215.230469 304.335938 "/>
</g>
<g clip-path="url(#clip-16)">
<path fill-rule="nonzero" fill="rgb(17.647059%, 41.568627%, 62.352941%)" fill-opacity="1" d="M 230.511719 304.335938 L 245.789062 304.335938 L 245.789062 223.570312 L 230.511719 223.570312 Z M 230.511719 304.335938 "/>
</g>
<g clip-path="url(#clip-17)">
<path fill="none" stroke-width="0.426791" stroke-linecap="butt" stroke-linejoin="miter" stroke="rgb(100%, 100%, 100%)" stroke-opacity="1" stroke-miterlimit="10" d="M 230.511719 304.335938 L 245.789062 304.335938 L 245.789062 223.570312 L 230.511719 223.570312 Z M 230.511719 304.335938 "/>
</g>
<g clip-path="url(#clip-18)">
<path fill-rule="nonzero" fill="rgb(17.647059%, 41.568627%, 62.352941%)" fill-opacity="1" d="M 245.789062 304.335938 L 261.066406 304.335938 L 261.066406 233.042969 L 245.789062 233.042969 Z M 245.789062 304.335938 "/>
</g>
<g clip-path="url(#clip-19)">
<path fill="none" stroke-width="0.426791" stroke-linecap="butt" stroke-linejoin="miter" stroke="rgb(100%, 100%, 100%)" stroke-opacity="1" stroke-miterlimit="10" d="M 245.789062 304.335938 L 261.066406 304.335938 L 261.066406 233.042969 L 245.789062 233.042969 Z M 245.789062 304.335938 "/>
</g>
<g clip-path="url(#clip-20)">
<path fill-rule="nonzero" fill="rgb(17.647059%, 41.568627%, 62.352941%)" fill-opacity="1" d="M 261.070312 304.335938 L 276.347656 304.335938 L 276.347656 243.296875 L 261.070312 243.296875 Z M 261.070312 304.335938 "/>
</g>
<g clip-path="url(#clip-21)">
<path fill="none" stroke-width="0.426791" stroke-linecap="butt" stroke-linejoin="miter" stroke="rgb(100%, 100%, 100%)" stroke-opacity="1" stroke-miterlimit="10" d="M 261.070312 304.335938 L 276.347656 304.335938 L 276.347656 243.296875 L 261.070312 243.296875 Z M 261.070312 304.335938 "/>
</g>
<g clip-path="url(#clip-22)">
<path fill-rule="nonzero" fill="rgb(17.647059%, 41.568627%, 62.352941%)" fill-opacity="1" stroke-width="0.426791" stroke-linecap="butt" stroke-linejoin="miter" stroke="rgb(100%, 100%, 100%)" stroke-opacity="1" stroke-miterlimit="10" d="M 276.347656 304.335938 L 291.625 304.335938 L 291.625 249.480469 L 276.347656 249.480469 Z M 276.347656 304.335938 "/>
</g>
<g clip-path="url(#clip-23)">
<path fill-rule="nonzero" fill="rgb(17.647059%, 41.568627%, 62.352941%)" fill-opacity="1" d="M 291.628906 304.335938 L 306.90625 304.335938 L 306.90625 261.253906 L 291.628906 261.253906 Z M 291.628906 304.335938 "/>
</g>
<g clip-path="url(#clip-24)">
<path fill="none" stroke-width="0.426791" stroke-linecap="butt" stroke-linejoin="miter" stroke="rgb(100%, 100%, 100%)" stroke-opacity="1" stroke-miterlimit="10" d="M 291.628906 304.335938 L 306.90625 304.335938 L 306.90625 261.253906 L 291.628906 261.253906 Z M 291.628906 304.335938 "/>
</g>
<g clip-path="url(#clip-25)">
<path fill-rule="nonzero" fill="rgb(17.647059%, 41.568627%, 62.352941%)" fill-opacity="1" stroke-width="0.426791" stroke-linecap="butt" stroke-linejoin="miter" stroke="rgb(100%, 100%, 100%)" stroke-opacity="1" stroke-miterlimit="10" d="M 306.90625 304.335938 L 322.183594 304.335938 L 322.183594 270.429688 L 306.90625 270.429688 Z M 306.90625 304.335938 "/>
</g>
<g clip-path="url(#clip-26)">
<path fill-rule="nonzero" fill="rgb(17.647059%, 41.568627%, 62.352941%)" fill-opacity="1" d="M 322.1875 304.335938 L 337.464844 304.335938 L 337.464844 271.695312 L 322.1875 271.695312 Z M 322.1875 304.335938 "/>
</g>
<g clip-path="url(#clip-27)">
<path fill="none" stroke-width="0.426791" stroke-linecap="butt" stroke-linejoin="miter" stroke="rgb(100%, 100%, 100%)" stroke-opacity="1" stroke-miterlimit="10" d="M 322.1875 304.335938 L 337.464844 304.335938 L 337.464844 271.695312 L 322.1875 271.695312 Z M 322.1875 304.335938 "/>
</g>
<g clip-path="url(#clip-28)">
<path fill-rule="nonzero" fill="rgb(17.647059%, 41.568627%, 62.352941%)" fill-opacity="1" stroke-width="0.426791" stroke-linecap="butt" stroke-linejoin="miter" stroke="rgb(100%, 100%, 100%)" stroke-opacity="1" stroke-miterlimit="10" d="M 337.464844 304.335938 L 352.742188 304.335938 L 352.742188 272.496094 L 337.464844 272.496094 Z M 337.464844 304.335938 "/>
</g>
<g clip-path="url(#clip-29)">
<path fill-rule="nonzero" fill="rgb(17.647059%, 41.568627%, 62.352941%)" fill-opacity="1" stroke-width="0.426791" stroke-linecap="butt" stroke-linejoin="miter" stroke="rgb(100%, 100%, 100%)" stroke-opacity="1" stroke-miterlimit="10" d="M 352.746094 304.335938 L 368.023438 304.335938 L 368.023438 280.652344 L 352.746094 280.652344 Z M 352.746094 304.335938 "/>
</g>
<g clip-path="url(#clip-30)">
<path fill-rule="nonzero" fill="rgb(17.647059%, 41.568627%, 62.352941%)" fill-opacity="1" d="M 368.023438 304.335938 L 383.300781 304.335938 L 383.300781 281.441406 L 368.023438 281.441406 Z M 368.023438 304.335938 "/>
</g>
<g clip-path="url(#clip-31)">
<path fill="none" stroke-width="0.426791" stroke-linecap="butt" stroke-linejoin="miter" stroke="rgb(100%, 100%, 100%)" stroke-opacity="1" stroke-miterlimit="10" d="M 368.023438 304.335938 L 383.300781 304.335938 L 383.300781 281.441406 L 368.023438 281.441406 Z M 368.023438 304.335938 "/>
</g>
<g clip-path="url(#clip-32)">
<path fill-rule="nonzero" fill="rgb(17.647059%, 41.568627%, 62.352941%)" fill-opacity="1" d="M 383.304688 304.335938 L 398.582031 304.335938 L 398.582031 286.171875 L 383.304688 286.171875 Z M 383.304688 304.335938 "/>
</g>
<g clip-path="url(#clip-33)">
<path fill="none" stroke-width="0.426791" stroke-linecap="butt" stroke-linejoin="miter" stroke="rgb(100%, 100%, 100%)" stroke-opacity="1" stroke-miterlimit="10" d="M 383.304688 304.335938 L 398.582031 304.335938 L 398.582031 286.171875 L 383.304688 286.171875 Z M 383.304688 304.335938 "/>
</g>
<g clip-path="url(#clip-34)">
<path fill-rule="nonzero" fill="rgb(17.647059%, 41.568627%, 62.352941%)" fill-opacity="1" d="M 398.582031 304.335938 L 413.859375 304.335938 L 413.859375 289.183594 L 398.582031 289.183594 Z M 398.582031 304.335938 "/>
</g>
<g clip-path="url(#clip-35)">
<path fill="none" stroke-width="0.426791" stroke-linecap="butt" stroke-linejoin="miter" stroke="rgb(100%, 100%, 100%)" stroke-opacity="1" stroke-miterlimit="10" d="M 398.582031 304.335938 L 413.859375 304.335938 L 413.859375 289.183594 L 398.582031 289.183594 Z M 398.582031 304.335938 "/>
</g>
<g clip-path="url(#clip-36)">
<path fill-rule="nonzero" fill="rgb(17.647059%, 41.568627%, 62.352941%)" fill-opacity="1" stroke-width="0.426791" stroke-linecap="butt" stroke-linejoin="miter" stroke="rgb(100%, 100%, 100%)" stroke-opacity="1" stroke-miterlimit="10" d="M 413.863281 304.335938 L 429.140625 304.335938 L 429.140625 289.273438 L 413.863281 289.273438 Z M 413.863281 304.335938 "/>
</g>
<g clip-path="url(#clip-37)">
<path fill-rule="nonzero" fill="rgb(17.647059%, 41.568627%, 62.352941%)" fill-opacity="1" d="M 429.140625 304.335938 L 444.417969 304.335938 L 444.417969 288.824219 L 429.140625 288.824219 Z M 429.140625 304.335938 "/>
</g>
<g clip-path="url(#clip-38)">
<path fill="none" stroke-width="0.426791" stroke-linecap="butt" stroke-linejoin="miter" stroke="rgb(100%, 100%, 100%)" stroke-opacity="1" stroke-miterlimit="10" d="M 429.140625 304.335938 L 444.417969 304.335938 L 444.417969 288.824219 L 429.140625 288.824219 Z M 429.140625 304.335938 "/>
</g>
<g clip-path="url(#clip-39)">
<path fill="none" stroke-width="1.707165" stroke-linecap="butt" stroke-linejoin="round" stroke="rgb(65.882353%, 25.098039%, 3.921569%)" stroke-opacity="1" stroke-dasharray="6.828661 6.828661" stroke-miterlimit="10" d="M 157.167969 304.335938 L 157.167969 7.96875 "/>
</g>
<g fill="rgb(65.882353%, 25.098039%, 3.921569%)" fill-opacity="1">
<use xlink:href="#glyph-0-0" x="161.496094" y="69.40625"/>
<use xlink:href="#glyph-0-1" x="168.606504" y="69.40625"/>
<use xlink:href="#glyph-0-2" x="173.353724" y="69.40625"/>
<use xlink:href="#glyph-0-3" x="178.100944" y="69.40625"/>
<use xlink:href="#glyph-0-4" x="179.997332" y="69.40625"/>
<use xlink:href="#glyph-0-5" x="184.744552" y="69.40625"/>
<use xlink:href="#glyph-0-4" x="189.491772" y="69.40625"/>
<use xlink:href="#glyph-0-6" x="194.238992" y="69.40625"/>
<use xlink:href="#glyph-0-7" x="196.610518" y="69.40625"/>
<use xlink:href="#glyph-0-8" x="201.357738" y="69.40625"/>
<use xlink:href="#glyph-0-7" x="206.104958" y="69.40625"/>
<use xlink:href="#glyph-0-9" x="210.852178" y="69.40625"/>
</g>
<g fill="rgb(65.882353%, 25.098039%, 3.921569%)" fill-opacity="1">
<use xlink:href="#glyph-0-10" x="158.6875" y="81.695312"/>
<use xlink:href="#glyph-0-11" x="163.43472" y="81.695312"/>
<use xlink:href="#glyph-0-7" x="168.18194" y="81.695312"/>
<use xlink:href="#glyph-0-8" x="172.92916" y="81.695312"/>
</g>
<path fill="none" stroke-width="1.163976" stroke-linecap="square" stroke-linejoin="round" stroke="rgb(60%, 60%, 60%)" stroke-opacity="1" stroke-miterlimit="10" d="M 62.4375 304.335938 L 62.4375 7.96875 "/>
<g fill="rgb(20%, 20%, 20%)" fill-opacity="1">
<use xlink:href="#glyph-1-0" x="39.714844" y="309.132812"/>
<use xlink:href="#glyph-1-1" x="46.388672" y="309.132812"/>
</g>
<g fill="rgb(20%, 20%, 20%)" fill-opacity="1">
<use xlink:href="#glyph-1-2" x="39.714844" y="235.109375"/>
<use xlink:href="#glyph-1-1" x="46.388672" y="235.109375"/>
</g>
<g fill="rgb(20%, 20%, 20%)" fill-opacity="1">
<use xlink:href="#glyph-1-3" x="39.714844" y="161.085938"/>
<use xlink:href="#glyph-1-1" x="46.388672" y="161.085938"/>
</g>
<g fill="rgb(20%, 20%, 20%)" fill-opacity="1">
<use xlink:href="#glyph-1-4" x="39.714844" y="87.0625"/>
<use xlink:href="#glyph-1-1" x="46.388672" y="87.0625"/>
</g>
<g fill="rgb(20%, 20%, 20%)" fill-opacity="1">
<use xlink:href="#glyph-1-5" x="33.042969" y="13.035156"/>
<use xlink:href="#glyph-1-6" x="39.716797" y="13.035156"/>
<use xlink:href="#glyph-1-1" x="46.390625" y="13.035156"/>
</g>
<path fill="none" stroke-width="1.163976" stroke-linecap="butt" stroke-linejoin="round" stroke="rgb(0%, 0%, 0%)" stroke-opacity="1" stroke-miterlimit="10" d="M 59.449219 304.335938 L 62.4375 304.335938 "/>
<path fill="none" stroke-width="1.163976" stroke-linecap="butt" stroke-linejoin="round" stroke="rgb(0%, 0%, 0%)" stroke-opacity="1" stroke-miterlimit="10" d="M 59.449219 230.3125 L 62.4375 230.3125 "/>
<path fill="none" stroke-width="1.163976" stroke-linecap="butt" stroke-linejoin="round" stroke="rgb(0%, 0%, 0%)" stroke-opacity="1" stroke-miterlimit="10" d="M 59.449219 156.289062 L 62.4375 156.289062 "/>
<path fill="none" stroke-width="1.163976" stroke-linecap="butt" stroke-linejoin="round" stroke="rgb(0%, 0%, 0%)" stroke-opacity="1" stroke-miterlimit="10" d="M 59.449219 82.265625 L 62.4375 82.265625 "/>
<path fill="none" stroke-width="1.163976" stroke-linecap="butt" stroke-linejoin="round" stroke="rgb(0%, 0%, 0%)" stroke-opacity="1" stroke-miterlimit="10" d="M 59.449219 8.242188 L 62.4375 8.242188 "/>
<path fill="none" stroke-width="1.163976" stroke-linecap="square" stroke-linejoin="round" stroke="rgb(60%, 60%, 60%)" stroke-opacity="1" stroke-miterlimit="10" d="M 62.4375 304.335938 L 452.058594 304.335938 "/>
<path fill="none" stroke-width="1.163976" stroke-linecap="butt" stroke-linejoin="round" stroke="rgb(0%, 0%, 0%)" stroke-opacity="1" stroke-miterlimit="10" d="M 62.4375 307.328125 L 62.4375 304.335938 "/>
<path fill="none" stroke-width="1.163976" stroke-linecap="butt" stroke-linejoin="round" stroke="rgb(0%, 0%, 0%)" stroke-opacity="1" stroke-miterlimit="10" d="M 100.636719 307.328125 L 100.636719 304.335938 "/>
<path fill="none" stroke-width="1.163976" stroke-linecap="butt" stroke-linejoin="round" stroke="rgb(0%, 0%, 0%)" stroke-opacity="1" stroke-miterlimit="10" d="M 138.835938 307.328125 L 138.835938 304.335938 "/>
<path fill="none" stroke-width="1.163976" stroke-linecap="butt" stroke-linejoin="round" stroke="rgb(0%, 0%, 0%)" stroke-opacity="1" stroke-miterlimit="10" d="M 177.03125 307.328125 L 177.03125 304.335938 "/>
<path fill="none" stroke-width="1.163976" stroke-linecap="butt" stroke-linejoin="round" stroke="rgb(0%, 0%, 0%)" stroke-opacity="1" stroke-miterlimit="10" d="M 215.230469 307.328125 L 215.230469 304.335938 "/>
<path fill="none" stroke-width="1.163976" stroke-linecap="butt" stroke-linejoin="round" stroke="rgb(0%, 0%, 0%)" stroke-opacity="1" stroke-miterlimit="10" d="M 253.429688 307.328125 L 253.429688 304.335938 "/>
<path fill="none" stroke-width="1.163976" stroke-linecap="butt" stroke-linejoin="round" stroke="rgb(0%, 0%, 0%)" stroke-opacity="1" stroke-miterlimit="10" d="M 291.628906 307.328125 L 291.628906 304.335938 "/>
<path fill="none" stroke-width="1.163976" stroke-linecap="butt" stroke-linejoin="round" stroke="rgb(0%, 0%, 0%)" stroke-opacity="1" stroke-miterlimit="10" d="M 329.824219 307.328125 L 329.824219 304.335938 "/>
<path fill="none" stroke-width="1.163976" stroke-linecap="butt" stroke-linejoin="round" stroke="rgb(0%, 0%, 0%)" stroke-opacity="1" stroke-miterlimit="10" d="M 368.023438 307.328125 L 368.023438 304.335938 "/>
<path fill="none" stroke-width="1.163976" stroke-linecap="butt" stroke-linejoin="round" stroke="rgb(0%, 0%, 0%)" stroke-opacity="1" stroke-miterlimit="10" d="M 406.222656 307.328125 L 406.222656 304.335938 "/>
<path fill="none" stroke-width="1.163976" stroke-linecap="butt" stroke-linejoin="round" stroke="rgb(0%, 0%, 0%)" stroke-opacity="1" stroke-miterlimit="10" d="M 444.421875 307.328125 L 444.421875 304.335938 "/>
<g fill="rgb(20%, 20%, 20%)" fill-opacity="1">
<use xlink:href="#glyph-2-0" x="59.78125" y="325.9375"/>
<use xlink:href="#glyph-2-1" x="64.500359" y="321.218391"/>
</g>
<g fill="rgb(20%, 20%, 20%)" fill-opacity="1">
<use xlink:href="#glyph-2-0" x="88.542969" y="335.375"/>
<use xlink:href="#glyph-2-2" x="93.262078" y="330.655891"/>
<use xlink:href="#glyph-2-3" x="97.981187" y="325.936782"/>
<use xlink:href="#glyph-2-1" x="102.700296" y="321.217673"/>
</g>
<g fill="rgb(20%, 20%, 20%)" fill-opacity="1">
<use xlink:href="#glyph-2-0" x="126.742188" y="335.375"/>
<use xlink:href="#glyph-2-3" x="131.461297" y="330.655891"/>
<use xlink:href="#glyph-2-1" x="136.180406" y="325.936782"/>
<use xlink:href="#glyph-2-1" x="140.899515" y="321.217673"/>
</g>
<g fill="rgb(20%, 20%, 20%)" fill-opacity="1">
<use xlink:href="#glyph-2-0" x="164.9375" y="335.375"/>
<use xlink:href="#glyph-2-4" x="169.656609" y="330.655891"/>
<use xlink:href="#glyph-2-3" x="174.375718" y="325.936782"/>
<use xlink:href="#glyph-2-1" x="179.094827" y="321.217673"/>
</g>
<g fill="rgb(20%, 20%, 20%)" fill-opacity="1">
<use xlink:href="#glyph-2-0" x="196.058594" y="342.453125"/>
<use xlink:href="#glyph-2-5" x="200.777703" y="337.734016"/>
<use xlink:href="#glyph-2-6" x="205.496812" y="333.014907"/>
<use xlink:href="#glyph-2-1" x="207.854295" y="330.657424"/>
<use xlink:href="#glyph-2-1" x="212.573404" y="325.938315"/>
<use xlink:href="#glyph-2-1" x="217.292513" y="321.219206"/>
</g>
<g fill="rgb(20%, 20%, 20%)" fill-opacity="1">
<use xlink:href="#glyph-2-0" x="234.257812" y="342.453125"/>
<use xlink:href="#glyph-2-5" x="238.976922" y="337.734016"/>
<use xlink:href="#glyph-2-6" x="243.696031" y="333.014907"/>
<use xlink:href="#glyph-2-2" x="246.053514" y="330.657424"/>
<use xlink:href="#glyph-2-3" x="250.772623" y="325.938315"/>
<use xlink:href="#glyph-2-1" x="255.491732" y="321.219206"/>
</g>
<g fill="rgb(20%, 20%, 20%)" fill-opacity="1">
<use xlink:href="#glyph-2-0" x="272.457031" y="342.453125"/>
<use xlink:href="#glyph-2-5" x="277.17614" y="337.734016"/>
<use xlink:href="#glyph-2-6" x="281.895249" y="333.014907"/>
<use xlink:href="#glyph-2-3" x="284.252732" y="330.657424"/>
<use xlink:href="#glyph-2-1" x="288.971842" y="325.938315"/>
<use xlink:href="#glyph-2-1" x="293.690951" y="321.219206"/>
</g>
<g fill="rgb(20%, 20%, 20%)" fill-opacity="1">
<use xlink:href="#glyph-2-0" x="310.652344" y="342.453125"/>
<use xlink:href="#glyph-2-5" x="315.371453" y="337.734016"/>
<use xlink:href="#glyph-2-6" x="320.090562" y="333.014907"/>
<use xlink:href="#glyph-2-4" x="322.448045" y="330.657424"/>
<use xlink:href="#glyph-2-3" x="327.167154" y="325.938315"/>
<use xlink:href="#glyph-2-1" x="331.886263" y="321.219206"/>
</g>
<g fill="rgb(20%, 20%, 20%)" fill-opacity="1">
<use xlink:href="#glyph-2-0" x="348.851562" y="342.453125"/>
<use xlink:href="#glyph-2-2" x="353.570672" y="337.734016"/>
<use xlink:href="#glyph-2-6" x="358.289781" y="333.014907"/>
<use xlink:href="#glyph-2-1" x="360.647264" y="330.657424"/>
<use xlink:href="#glyph-2-1" x="365.366373" y="325.938315"/>
<use xlink:href="#glyph-2-1" x="370.085482" y="321.219206"/>
</g>
<g fill="rgb(20%, 20%, 20%)" fill-opacity="1">
<use xlink:href="#glyph-2-0" x="387.050781" y="342.453125"/>
<use xlink:href="#glyph-2-2" x="391.76989" y="337.734016"/>
<use xlink:href="#glyph-2-6" x="396.488999" y="333.014907"/>
<use xlink:href="#glyph-2-2" x="398.846482" y="330.657424"/>
<use xlink:href="#glyph-2-3" x="403.565592" y="325.938315"/>
<use xlink:href="#glyph-2-1" x="408.284701" y="321.219206"/>
</g>
<g fill="rgb(20%, 20%, 20%)" fill-opacity="1">
<use xlink:href="#glyph-2-0" x="425.25" y="342.453125"/>
<use xlink:href="#glyph-2-2" x="429.969109" y="337.734016"/>
<use xlink:href="#glyph-2-6" x="434.688218" y="333.014907"/>
<use xlink:href="#glyph-2-3" x="437.045701" y="330.657424"/>
<use xlink:href="#glyph-2-1" x="441.76481" y="325.938315"/>
<use xlink:href="#glyph-2-1" x="446.483919" y="321.219206"/>
</g>
<g fill="rgb(0%, 0%, 0%)" fill-opacity="1">
<use xlink:href="#glyph-1-7" x="132.847656" y="362.503906"/>
<use xlink:href="#glyph-1-8" x="136.181641" y="362.503906"/>
<use xlink:href="#glyph-1-9" x="142.855469" y="362.503906"/>
<use xlink:href="#glyph-1-10" x="149.529297" y="362.503906"/>
<use xlink:href="#glyph-1-11" x="153.525391" y="362.503906"/>
<use xlink:href="#glyph-1-12" x="160.199219" y="362.503906"/>
<use xlink:href="#glyph-1-13" x="166.199219" y="362.503906"/>
<use xlink:href="#glyph-1-14" x="172.873047" y="362.503906"/>
<use xlink:href="#glyph-1-15" x="176.207031" y="362.503906"/>
<use xlink:href="#glyph-1-13" x="186.203125" y="362.503906"/>
<use xlink:href="#glyph-1-8" x="192.876953" y="362.503906"/>
<use xlink:href="#glyph-1-11" x="199.550781" y="362.503906"/>
<use xlink:href="#glyph-1-16" x="206.224609" y="362.503906"/>
<use xlink:href="#glyph-1-17" x="209.558594" y="362.503906"/>
<use xlink:href="#glyph-1-10" x="216.232422" y="362.503906"/>
<use xlink:href="#glyph-1-18" x="220.228516" y="362.503906"/>
<use xlink:href="#glyph-1-13" x="222.894531" y="362.503906"/>
<use xlink:href="#glyph-1-14" x="229.568359" y="362.503906"/>
<use xlink:href="#glyph-1-19" x="232.902344" y="362.503906"/>
<use xlink:href="#glyph-1-13" x="238.902344" y="362.503906"/>
<use xlink:href="#glyph-1-10" x="245.576172" y="362.503906"/>
<use xlink:href="#glyph-1-10" x="249.572266" y="362.503906"/>
<use xlink:href="#glyph-1-18" x="253.568359" y="362.503906"/>
<use xlink:href="#glyph-1-11" x="256.234375" y="362.503906"/>
<use xlink:href="#glyph-1-8" x="262.908203" y="362.503906"/>
<use xlink:href="#glyph-1-16" x="269.582031" y="362.503906"/>
<use xlink:href="#glyph-1-11" x="272.916016" y="362.503906"/>
<use xlink:href="#glyph-1-14" x="279.589844" y="362.503906"/>
<use xlink:href="#glyph-1-15" x="282.923828" y="362.503906"/>
<use xlink:href="#glyph-1-11" x="292.919922" y="362.503906"/>
<use xlink:href="#glyph-1-8" x="299.59375" y="362.503906"/>
<use xlink:href="#glyph-1-12" x="306.267578" y="362.503906"/>
<use xlink:href="#glyph-1-20" x="312.267578" y="362.503906"/>
<use xlink:href="#glyph-1-17" x="318.941406" y="362.503906"/>
<use xlink:href="#glyph-1-21" x="325.615234" y="362.503906"/>
<use xlink:href="#glyph-1-14" x="328.28125" y="362.503906"/>
<use xlink:href="#glyph-1-22" x="331.615234" y="362.503906"/>
<use xlink:href="#glyph-1-11" x="338.289062" y="362.503906"/>
<use xlink:href="#glyph-1-21" x="344.962891" y="362.503906"/>
<use xlink:href="#glyph-1-14" x="347.628906" y="362.503906"/>
<use xlink:href="#glyph-1-23" x="350.962891" y="362.503906"/>
<use xlink:href="#glyph-1-13" x="357.636719" y="362.503906"/>
<use xlink:href="#glyph-1-9" x="364.310547" y="362.503906"/>
<use xlink:href="#glyph-1-17" x="370.984375" y="362.503906"/>
<use xlink:href="#glyph-1-10" x="377.658203" y="362.503906"/>
</g>
<g fill="rgb(0%, 0%, 0%)" fill-opacity="1">
<use xlink:href="#glyph-3-0" x="21.546875" y="216.527344"/>
<use xlink:href="#glyph-3-1" x="21.546875" y="208.523438"/>
<use xlink:href="#glyph-3-2" x="21.546875" y="201.849609"/>
<use xlink:href="#glyph-3-3" x="21.546875" y="197.853516"/>
<use xlink:href="#glyph-3-4" x="21.546875" y="191.853516"/>
<use xlink:href="#glyph-3-5" x="21.546875" y="185.179688"/>
<use xlink:href="#glyph-3-6" x="21.546875" y="178.505859"/>
<use xlink:href="#glyph-3-7" x="21.546875" y="175.171875"/>
<use xlink:href="#glyph-3-8" x="21.546875" y="168.498047"/>
<use xlink:href="#glyph-3-4" x="21.546875" y="165.832031"/>
<use xlink:href="#glyph-3-9" x="21.546875" y="159.158203"/>
<use xlink:href="#glyph-3-10" x="21.546875" y="155.824219"/>
<use xlink:href="#glyph-3-4" x="21.546875" y="149.150391"/>
<use xlink:href="#glyph-3-9" x="21.546875" y="142.476562"/>
<use xlink:href="#glyph-3-11" x="21.546875" y="139.142578"/>
<use xlink:href="#glyph-3-1" x="21.546875" y="132.46875"/>
<use xlink:href="#glyph-3-12" x="21.546875" y="125.794922"/>
<use xlink:href="#glyph-3-7" x="21.546875" y="119.121094"/>
<use xlink:href="#glyph-3-2" x="21.546875" y="112.447266"/>
<use xlink:href="#glyph-3-4" x="21.546875" y="108.451172"/>
<use xlink:href="#glyph-3-13" x="21.546875" y="101.777344"/>
</g>
</svg>
