<?xml version="1.0" encoding="UTF-8"?>
<svg xmlns="http://www.w3.org/2000/svg" xmlns:xlink="http://www.w3.org/1999/xlink" width="468pt" height="374pt" viewBox="0 0 468 374">
<defs>
<g>
<g id="glyph-0-0">
<path d="M 0.886719 0 L 0.886719 -8.554688 L 2.589844 -8.554688 L 4.617188 -2.496094 C 4.800781 -1.933594 4.9375 -1.511719 5.023438 -1.230469 C 5.121094 -1.542969 5.273438 -2 5.480469 -2.601562 L 7.527344 -8.554688 L 9.050781 -8.554688 L 9.050781 0 L 7.960938 0 L 7.960938 -7.160156 L 5.472656 0 L 4.453125 0 L 1.976562 -7.28125 L 1.976562 0 Z M 0.886719 0 "/>
</g>
<g id="glyph-0-1">
<path d="M 5.03125 -1.996094 L 6.113281 -1.863281 C 5.945312 -1.226562 5.625 -0.734375 5.164062 -0.386719 C 4.699219 -0.0351562 4.109375 0.140625 3.390625 0.140625 C 2.484375 0.140625 1.765625 -0.140625 1.234375 -0.699219 C 0.703125 -1.253906 0.4375 -2.039062 0.4375 -3.046875 C 0.4375 -4.089844 0.707031 -4.898438 1.242188 -5.472656 C 1.78125 -6.050781 2.476562 -6.335938 3.332031 -6.335938 C 4.160156 -6.335938 4.835938 -6.054688 5.363281 -5.492188 C 5.886719 -4.925781 6.148438 -4.132812 6.148438 -3.109375 C 6.148438 -3.046875 6.148438 -2.953125 6.144531 -2.828125 L 1.523438 -2.828125 C 1.5625 -2.148438 1.753906 -1.628906 2.101562 -1.265625 C 2.445312 -0.90625 2.878906 -0.722656 3.394531 -0.722656 C 3.78125 -0.722656 4.109375 -0.824219 4.382812 -1.027344 C 4.65625 -1.230469 4.871094 -1.550781 5.03125 -1.996094 M 1.582031 -3.695312 L 5.042969 -3.695312 C 4.996094 -4.214844 4.863281 -4.605469 4.644531 -4.867188 C 4.308594 -5.269531 3.875 -5.472656 3.34375 -5.472656 C 2.859375 -5.472656 2.457031 -5.3125 2.125 -4.988281 C 1.796875 -4.667969 1.617188 -4.234375 1.582031 -3.695312 Z M 1.582031 -3.695312 "/>
</g>
<g id="glyph-0-2">
<path d="M 4.808594 0 L 4.808594 -0.78125 C 4.414062 -0.167969 3.835938 0.140625 3.074219 0.140625 C 2.582031 0.140625 2.125 0.00390625 1.710938 -0.269531 C 1.296875 -0.539062 0.976562 -0.921875 0.75 -1.410156 C 0.523438 -1.898438 0.410156 -2.457031 0.410156 -3.09375 C 0.410156 -3.710938 0.511719 -4.273438 0.71875 -4.777344 C 0.925781 -5.28125 1.234375 -5.664062 1.644531 -5.933594 C 2.058594 -6.203125 2.519531 -6.335938 3.027344 -6.335938 C 3.402344 -6.335938 3.734375 -6.257812 4.027344 -6.101562 C 4.316406 -5.941406 4.554688 -5.738281 4.738281 -5.484375 L 4.738281 -8.554688 L 5.78125 -8.554688 L 5.78125 0 L 4.808594 0 M 1.488281 -3.09375 C 1.488281 -2.300781 1.65625 -1.707031 1.988281 -1.3125 C 2.324219 -0.921875 2.71875 -0.722656 3.175781 -0.722656 C 3.632812 -0.722656 4.023438 -0.910156 4.34375 -1.285156 C 4.664062 -1.660156 4.824219 -2.234375 4.824219 -3.003906 C 4.824219 -3.851562 4.664062 -4.476562 4.335938 -4.871094 C 4.007812 -5.269531 3.605469 -5.46875 3.128906 -5.46875 C 2.660156 -5.46875 2.269531 -5.277344 1.957031 -4.894531 C 1.644531 -4.515625 1.488281 -3.914062 1.488281 -3.09375 Z M 1.488281 -3.09375 "/>
</g>
<g id="glyph-0-3">
<path d="M 0.792969 -7.347656 L 0.792969 -8.554688 L 1.84375 -8.554688 L 1.84375 -7.347656 L 0.792969 -7.347656 M 0.792969 0 L 0.792969 -6.195312 L 1.84375 -6.195312 L 1.84375 0 Z M 0.792969 0 "/>
</g>
<g id="glyph-0-4">
<path d="M 4.832031 -0.765625 C 4.441406 -0.433594 4.066406 -0.199219 3.707031 -0.0625 C 3.347656 0.0703125 2.960938 0.140625 2.550781 0.140625 C 1.871094 0.140625 1.347656 -0.0273438 0.980469 -0.359375 C 0.613281 -0.691406 0.433594 -1.117188 0.433594 -1.632812 C 0.433594 -1.9375 0.5 -2.214844 0.640625 -2.464844 C 0.777344 -2.714844 0.957031 -2.917969 1.179688 -3.070312 C 1.40625 -3.222656 1.65625 -3.335938 1.9375 -3.414062 C 2.144531 -3.46875 2.453125 -3.519531 2.871094 -3.570312 C 3.71875 -3.671875 4.34375 -3.792969 4.742188 -3.933594 C 4.746094 -4.078125 4.75 -4.167969 4.75 -4.207031 C 4.75 -4.636719 4.652344 -4.9375 4.453125 -5.113281 C 4.183594 -5.347656 3.785156 -5.46875 3.257812 -5.46875 C 2.761719 -5.46875 2.398438 -5.382812 2.160156 -5.207031 C 1.925781 -5.035156 1.753906 -4.726562 1.640625 -4.289062 L 0.613281 -4.429688 C 0.707031 -4.867188 0.859375 -5.222656 1.074219 -5.492188 C 1.289062 -5.765625 1.597656 -5.972656 2 -6.117188 C 2.40625 -6.265625 2.875 -6.335938 3.40625 -6.335938 C 3.9375 -6.335938 4.367188 -6.273438 4.695312 -6.148438 C 5.027344 -6.027344 5.269531 -5.867188 5.425781 -5.679688 C 5.582031 -5.492188 5.691406 -5.253906 5.753906 -4.964844 C 5.789062 -4.785156 5.804688 -4.464844 5.804688 -3.996094 L 5.804688 -2.597656 C 5.804688 -1.621094 5.828125 -1.003906 5.871094 -0.742188 C 5.917969 -0.484375 6.007812 -0.238281 6.136719 0 L 5.042969 0 C 4.933594 -0.21875 4.863281 -0.472656 4.832031 -0.765625 M 4.742188 -3.109375 C 4.363281 -2.953125 3.789062 -2.820312 3.027344 -2.714844 C 2.597656 -2.652344 2.292969 -2.582031 2.113281 -2.503906 C 1.933594 -2.425781 1.796875 -2.3125 1.699219 -2.160156 C 1.601562 -2.011719 1.550781 -1.847656 1.550781 -1.664062 C 1.550781 -1.382812 1.65625 -1.148438 1.871094 -0.960938 C 2.082031 -0.777344 2.390625 -0.683594 2.800781 -0.683594 C 3.207031 -0.683594 3.566406 -0.769531 3.878906 -0.949219 C 4.195312 -1.125 4.425781 -1.367188 4.574219 -1.675781 C 4.6875 -1.910156 4.742188 -2.261719 4.742188 -2.726562 Z M 4.742188 -3.109375 "/>
</g>
<g id="glyph-0-5">
<path d="M 0.789062 0 L 0.789062 -6.195312 L 1.734375 -6.195312 L 1.734375 -5.316406 C 2.1875 -5.996094 2.84375 -6.335938 3.707031 -6.335938 C 4.078125 -6.335938 4.421875 -6.269531 4.734375 -6.136719 C 5.046875 -6 5.28125 -5.824219 5.4375 -5.609375 C 5.59375 -5.390625 5.703125 -5.132812 5.765625 -4.832031 C 5.804688 -4.636719 5.824219 -4.296875 5.824219 -3.808594 L 5.824219 0 L 4.773438 0 L 4.773438 -3.769531 C 4.773438 -4.199219 4.730469 -4.515625 4.652344 -4.730469 C 4.570312 -4.941406 4.425781 -5.109375 4.214844 -5.238281 C 4.007812 -5.363281 3.761719 -5.425781 3.484375 -5.425781 C 3.035156 -5.425781 2.648438 -5.285156 2.324219 -5 C 2 -4.714844 1.839844 -4.179688 1.839844 -3.382812 L 1.839844 0 Z M 0.789062 0 "/>
</g>
<g id="glyph-0-6">
</g>
<g id="glyph-0-7">
<path d="M 4.832031 -2.269531 L 5.863281 -2.136719 C 5.75 -1.421875 5.460938 -0.867188 4.996094 -0.464844 C 4.53125 -0.0625 3.960938 0.140625 3.285156 0.140625 C 2.4375 0.140625 1.753906 -0.136719 1.238281 -0.691406 C 0.722656 -1.246094 0.46875 -2.039062 0.46875 -3.074219 C 0.46875 -3.746094 0.578125 -4.328125 0.800781 -4.832031 C 1.019531 -5.332031 1.359375 -5.710938 1.8125 -5.960938 C 2.265625 -6.210938 2.757812 -6.335938 3.289062 -6.335938 C 3.964844 -6.335938 4.515625 -6.167969 4.941406 -5.828125 C 5.371094 -5.484375 5.644531 -5.003906 5.765625 -4.375 L 4.742188 -4.21875 C 4.648438 -4.636719 4.472656 -4.949219 4.226562 -5.15625 C 3.980469 -5.367188 3.683594 -5.472656 3.332031 -5.472656 C 2.804688 -5.472656 2.371094 -5.285156 2.042969 -4.90625 C 1.710938 -4.523438 1.546875 -3.925781 1.546875 -3.105469 C 1.546875 -2.273438 1.707031 -1.667969 2.023438 -1.289062 C 2.34375 -0.914062 2.761719 -0.722656 3.273438 -0.722656 C 3.6875 -0.722656 4.03125 -0.851562 4.304688 -1.101562 C 4.582031 -1.355469 4.757812 -1.746094 4.832031 -2.269531 Z M 4.832031 -2.269531 "/>
</g>
<g id="glyph-0-8">
<path d="M 0.398438 -3.097656 C 0.398438 -4.246094 0.714844 -5.097656 1.355469 -5.648438 C 1.886719 -6.105469 2.535156 -6.335938 3.300781 -6.335938 C 4.15625 -6.335938 4.851562 -6.058594 5.390625 -5.5 C 5.933594 -4.941406 6.203125 -4.171875 6.203125 -3.1875 C 6.203125 -2.386719 6.082031 -1.761719 5.84375 -1.304688 C 5.605469 -0.847656 5.257812 -0.492188 4.800781 -0.238281 C 4.34375 0.0117188 3.84375 0.140625 3.300781 0.140625 C 2.433594 0.140625 1.734375 -0.136719 1.199219 -0.695312 C 0.664062 -1.25 0.398438 -2.050781 0.398438 -3.097656 M 1.476562 -3.097656 C 1.476562 -2.304688 1.648438 -1.710938 1.996094 -1.316406 C 2.339844 -0.921875 2.777344 -0.722656 3.300781 -0.722656 C 3.824219 -0.722656 4.257812 -0.921875 4.605469 -1.320312 C 4.949219 -1.714844 5.125 -2.320312 5.125 -3.132812 C 5.125 -3.898438 4.949219 -4.480469 4.601562 -4.875 C 4.253906 -5.269531 3.820312 -5.46875 3.300781 -5.46875 C 2.777344 -5.46875 2.339844 -5.269531 1.996094 -4.878906 C 1.648438 -4.484375 1.476562 -3.890625 1.476562 -3.097656 Z M 1.476562 -3.097656 "/>
</g>
<g id="glyph-0-9">
<path d="M 0.765625 0 L 0.765625 -8.554688 L 1.816406 -8.554688 L 1.816406 0 Z M 0.765625 0 "/>
</g>
<g id="glyph-0-10">
<path d="M 1.078125 -5 L 1.078125 -6.195312 L 2.277344 -6.195312 L 2.277344 -5 L 1.078125 -5 M 1.078125 0 L 1.078125 -1.195312 L 2.277344 -1.195312 L 2.277344 0 Z M 1.078125 0 "/>
</g>
<g id="glyph-0-11">
<path d="M 2.976562 1.230469 L 2.976562 0.179688 C 2.449219 0.113281 2.023438 -0.00390625 1.695312 -0.171875 C 1.367188 -0.339844 1.082031 -0.613281 0.84375 -0.992188 C 0.605469 -1.371094 0.464844 -1.832031 0.425781 -2.375 L 1.480469 -2.574219 C 1.5625 -2.007812 1.707031 -1.59375 1.914062 -1.332031 C 2.210938 -0.957031 2.5625 -0.75 2.976562 -0.707031 L 2.976562 -4.050781 C 2.542969 -4.132812 2.101562 -4.296875 1.652344 -4.550781 C 1.316406 -4.738281 1.058594 -4.996094 0.878906 -5.328125 C 0.699219 -5.65625 0.605469 -6.035156 0.605469 -6.453125 C 0.605469 -7.199219 0.871094 -7.804688 1.402344 -8.269531 C 1.753906 -8.578125 2.28125 -8.769531 2.976562 -8.839844 L 2.976562 -9.34375 L 3.59375 -9.34375 L 3.59375 -8.839844 C 4.207031 -8.78125 4.6875 -8.601562 5.046875 -8.304688 C 5.507812 -7.921875 5.78125 -7.398438 5.875 -6.734375 L 4.789062 -6.570312 C 4.726562 -6.984375 4.597656 -7.296875 4.402344 -7.519531 C 4.207031 -7.738281 3.9375 -7.882812 3.59375 -7.953125 L 3.59375 -4.925781 C 4.125 -4.792969 4.472656 -4.6875 4.644531 -4.617188 C 4.972656 -4.472656 5.238281 -4.296875 5.445312 -4.089844 C 5.648438 -3.882812 5.808594 -3.640625 5.917969 -3.355469 C 6.03125 -3.070312 6.085938 -2.765625 6.085938 -2.433594 C 6.085938 -1.707031 5.855469 -1.097656 5.390625 -0.613281 C 4.929688 -0.125 4.328125 0.132812 3.59375 0.167969 L 3.59375 1.230469 L 2.976562 1.230469 M 2.976562 -7.964844 C 2.566406 -7.902344 2.246094 -7.738281 2.011719 -7.476562 C 1.773438 -7.210938 1.65625 -6.898438 1.65625 -6.535156 C 1.65625 -6.175781 1.757812 -5.878906 1.957031 -5.636719 C 2.15625 -5.394531 2.496094 -5.203125 2.976562 -5.058594 L 2.976562 -7.964844 M 3.59375 -0.707031 C 4.003906 -0.757812 4.339844 -0.933594 4.605469 -1.238281 C 4.875 -1.539062 5.007812 -1.914062 5.007812 -2.363281 C 5.007812 -2.746094 4.914062 -3.050781 4.722656 -3.28125 C 4.535156 -3.511719 4.160156 -3.722656 3.59375 -3.902344 Z M 3.59375 -0.707031 "/>
</g>
<g id="glyph-0-12">
<path d="M 0.566406 -7.433594 L 0.566406 -8.441406 L 6.101562 -8.441406 L 6.101562 -7.625 C 5.558594 -7.046875 5.019531 -6.277344 4.484375 -5.316406 C 3.949219 -4.355469 3.535156 -3.367188 3.246094 -2.351562 C 3.035156 -1.636719 2.898438 -0.851562 2.839844 0 L 1.761719 0 C 1.773438 -0.671875 1.90625 -1.484375 2.160156 -2.4375 C 2.410156 -3.390625 2.773438 -4.3125 3.246094 -5.195312 C 3.71875 -6.082031 4.222656 -6.828125 4.753906 -7.433594 Z M 0.566406 -7.433594 "/>
</g>
<g id="glyph-0-13">
<path d="M 0.5 -2.257812 L 1.550781 -2.398438 C 1.671875 -1.804688 1.878906 -1.375 2.167969 -1.113281 C 2.457031 -0.847656 2.808594 -0.71875 3.226562 -0.71875 C 3.722656 -0.71875 4.136719 -0.890625 4.476562 -1.230469 C 4.820312 -1.574219 4.988281 -1.996094 4.988281 -2.503906 C 4.988281 -2.984375 4.832031 -3.382812 4.515625 -3.695312 C 4.203125 -4.007812 3.800781 -4.167969 3.3125 -4.167969 C 3.117188 -4.167969 2.867188 -4.128906 2.574219 -4.050781 L 2.691406 -4.972656 C 2.761719 -4.964844 2.816406 -4.960938 2.859375 -4.960938 C 3.304688 -4.960938 3.710938 -5.078125 4.066406 -5.308594 C 4.425781 -5.542969 4.605469 -5.902344 4.605469 -6.390625 C 4.605469 -6.773438 4.472656 -7.09375 4.214844 -7.347656 C 3.953125 -7.597656 3.617188 -7.726562 3.203125 -7.726562 C 2.796875 -7.726562 2.453125 -7.597656 2.183594 -7.339844 C 1.910156 -7.082031 1.734375 -6.699219 1.65625 -6.183594 L 0.605469 -6.371094 C 0.734375 -7.074219 1.027344 -7.621094 1.480469 -8.007812 C 1.9375 -8.394531 2.503906 -8.589844 3.179688 -8.589844 C 3.648438 -8.589844 4.078125 -8.488281 4.46875 -8.289062 C 4.863281 -8.089844 5.164062 -7.816406 5.371094 -7.46875 C 5.578125 -7.121094 5.683594 -6.753906 5.683594 -6.367188 C 5.683594 -5.996094 5.585938 -5.660156 5.386719 -5.355469 C 5.1875 -5.054688 4.894531 -4.8125 4.503906 -4.632812 C 5.011719 -4.515625 5.402344 -4.273438 5.683594 -3.90625 C 5.964844 -3.539062 6.101562 -3.078125 6.101562 -2.527344 C 6.101562 -1.78125 5.832031 -1.148438 5.285156 -0.628906 C 4.742188 -0.109375 4.054688 0.152344 3.222656 0.152344 C 2.46875 0.152344 1.847656 -0.0703125 1.351562 -0.519531 C 0.855469 -0.964844 0.570312 -1.546875 0.5 -2.257812 Z M 0.5 -2.257812 "/>
</g>
<g id="glyph-0-14">
<path d="M 4.453125 0 L 3.402344 0 L 3.402344 -6.691406 C 3.148438 -6.453125 2.816406 -6.210938 2.40625 -5.96875 C 1.996094 -5.726562 1.628906 -5.546875 1.300781 -5.425781 L 1.300781 -6.441406 C 1.886719 -6.71875 2.402344 -7.050781 2.839844 -7.445312 C 3.28125 -7.839844 3.59375 -8.21875 3.773438 -8.589844 L 4.453125 -8.589844 Z M 4.453125 0 "/>
</g>
<g id="glyph-0-15">
<path d="M 1.0625 0 L 1.0625 -1.195312 L 2.257812 -1.195312 L 2.257812 0 C 2.257812 0.441406 2.179688 0.792969 2.023438 1.066406 C 1.871094 1.335938 1.621094 1.542969 1.285156 1.691406 L 0.992188 1.242188 C 1.214844 1.144531 1.378906 1.003906 1.480469 0.8125 C 1.585938 0.625 1.644531 0.355469 1.65625 0 Z M 1.0625 0 "/>
</g>
<g id="glyph-0-16">
<path d="M 5.945312 -6.460938 L 4.902344 -6.378906 C 4.808594 -6.789062 4.675781 -7.089844 4.503906 -7.277344 C 4.21875 -7.574219 3.871094 -7.726562 3.453125 -7.726562 C 3.121094 -7.726562 2.824219 -7.632812 2.574219 -7.445312 C 2.242188 -7.203125 1.980469 -6.851562 1.792969 -6.390625 C 1.601562 -5.925781 1.5 -5.265625 1.492188 -4.410156 C 1.746094 -4.796875 2.054688 -5.082031 2.421875 -5.269531 C 2.789062 -5.457031 3.171875 -5.550781 3.570312 -5.550781 C 4.269531 -5.550781 4.867188 -5.292969 5.359375 -4.777344 C 5.851562 -4.261719 6.097656 -3.59375 6.097656 -2.777344 C 6.097656 -2.242188 5.980469 -1.742188 5.75 -1.28125 C 5.519531 -0.820312 5.199219 -0.46875 4.796875 -0.222656 C 4.390625 0.0234375 3.933594 0.144531 3.417969 0.144531 C 2.542969 0.144531 1.832031 -0.175781 1.277344 -0.820312 C 0.726562 -1.464844 0.449219 -2.523438 0.449219 -4.003906 C 0.449219 -5.65625 0.753906 -6.859375 1.367188 -7.609375 C 1.898438 -8.261719 2.617188 -8.589844 3.519531 -8.589844 C 4.191406 -8.589844 4.742188 -8.402344 5.171875 -8.023438 C 5.601562 -7.644531 5.859375 -7.125 5.945312 -6.460938 M 1.65625 -2.773438 C 1.65625 -2.410156 1.734375 -2.0625 1.886719 -1.734375 C 2.042969 -1.402344 2.257812 -1.152344 2.53125 -0.976562 C 2.808594 -0.804688 3.097656 -0.71875 3.402344 -0.71875 C 3.84375 -0.71875 4.226562 -0.898438 4.546875 -1.253906 C 4.863281 -1.613281 5.023438 -2.097656 5.023438 -2.714844 C 5.023438 -3.304688 4.867188 -3.769531 4.550781 -4.109375 C 4.234375 -4.449219 3.839844 -4.621094 3.359375 -4.621094 C 2.886719 -4.621094 2.484375 -4.449219 2.152344 -4.109375 C 1.824219 -3.769531 1.65625 -3.324219 1.65625 -2.773438 Z M 1.65625 -2.773438 "/>
</g>
<g id="glyph-0-17">
<path d="M 6.015625 -1.007812 L 6.015625 0 L 0.363281 0 C 0.355469 -0.253906 0.394531 -0.496094 0.484375 -0.730469 C 0.628906 -1.113281 0.859375 -1.492188 1.175781 -1.867188 C 1.492188 -2.242188 1.949219 -2.671875 2.550781 -3.164062 C 3.480469 -3.925781 4.109375 -4.527344 4.433594 -4.972656 C 4.761719 -5.417969 4.925781 -5.839844 4.925781 -6.238281 C 4.925781 -6.652344 4.777344 -7.003906 4.476562 -7.289062 C 4.179688 -7.578125 3.792969 -7.71875 3.3125 -7.71875 C 2.808594 -7.71875 2.402344 -7.566406 2.101562 -7.265625 C 1.796875 -6.960938 1.644531 -6.542969 1.640625 -6.003906 L 0.558594 -6.113281 C 0.632812 -6.921875 0.914062 -7.535156 1.394531 -7.957031 C 1.875 -8.378906 2.523438 -8.589844 3.335938 -8.589844 C 4.160156 -8.589844 4.808594 -8.363281 5.285156 -7.90625 C 5.765625 -7.453125 6.003906 -6.886719 6.003906 -6.214844 C 6.003906 -5.871094 5.933594 -5.535156 5.792969 -5.203125 C 5.652344 -4.875 5.421875 -4.527344 5.097656 -4.160156 C 4.773438 -3.792969 4.230469 -3.292969 3.476562 -2.65625 C 2.847656 -2.125 2.441406 -1.765625 2.265625 -1.578125 C 2.085938 -1.390625 1.9375 -1.199219 1.820312 -1.007812 Z M 6.015625 -1.007812 "/>
</g>
<g id="glyph-0-18">
<path d="M 2.113281 -4.640625 C 1.675781 -4.796875 1.355469 -5.027344 1.144531 -5.320312 C 0.933594 -5.617188 0.828125 -5.972656 0.828125 -6.382812 C 0.828125 -7.007812 1.050781 -7.527344 1.5 -7.953125 C 1.945312 -8.378906 2.542969 -8.589844 3.285156 -8.589844 C 4.03125 -8.589844 4.632812 -8.371094 5.089844 -7.9375 C 5.542969 -7.503906 5.769531 -6.976562 5.769531 -6.355469 C 5.769531 -5.957031 5.667969 -5.613281 5.457031 -5.320312 C 5.25 -5.023438 4.933594 -4.796875 4.511719 -4.640625 C 5.035156 -4.46875 5.433594 -4.191406 5.710938 -3.808594 C 5.984375 -3.429688 6.121094 -2.972656 6.121094 -2.445312 C 6.121094 -1.714844 5.863281 -1.097656 5.34375 -0.601562 C 4.828125 -0.101562 4.148438 0.144531 3.300781 0.144531 C 2.457031 0.144531 1.777344 -0.105469 1.261719 -0.605469 C 0.742188 -1.105469 0.484375 -1.726562 0.484375 -2.472656 C 0.484375 -3.03125 0.625 -3.496094 0.90625 -3.871094 C 1.1875 -4.246094 1.589844 -4.503906 2.113281 -4.640625 M 1.902344 -6.417969 C 1.902344 -6.015625 2.03125 -5.683594 2.292969 -5.425781 C 2.554688 -5.167969 2.890625 -5.042969 3.308594 -5.042969 C 3.714844 -5.042969 4.042969 -5.167969 4.304688 -5.421875 C 4.5625 -5.679688 4.691406 -5.992188 4.691406 -6.359375 C 4.691406 -6.746094 4.558594 -7.070312 4.292969 -7.332031 C 4.023438 -7.59375 3.695312 -7.726562 3.296875 -7.726562 C 2.894531 -7.726562 2.5625 -7.597656 2.300781 -7.339844 C 2.035156 -7.082031 1.902344 -6.777344 1.902344 -6.417969 M 1.5625 -2.46875 C 1.5625 -2.167969 1.636719 -1.878906 1.777344 -1.597656 C 1.917969 -1.320312 2.128906 -1.101562 2.410156 -0.949219 C 2.691406 -0.792969 2.992188 -0.71875 3.3125 -0.71875 C 3.816406 -0.71875 4.230469 -0.878906 4.558594 -1.203125 C 4.882812 -1.523438 5.046875 -1.933594 5.046875 -2.433594 C 5.046875 -2.9375 4.878906 -3.355469 4.542969 -3.6875 C 4.207031 -4.019531 3.785156 -4.183594 3.277344 -4.183594 C 2.785156 -4.183594 2.375 -4.019531 2.050781 -3.695312 C 1.726562 -3.367188 1.5625 -2.957031 1.5625 -2.46875 Z M 1.5625 -2.46875 "/>
</g>
<g id="glyph-0-19">
<path d="M 0.496094 -4.21875 C 0.496094 -5.230469 0.601562 -6.042969 0.808594 -6.660156 C 1.015625 -7.277344 1.324219 -7.753906 1.734375 -8.085938 C 2.144531 -8.421875 2.664062 -8.589844 3.285156 -8.589844 C 3.746094 -8.589844 4.148438 -8.496094 4.492188 -8.3125 C 4.839844 -8.128906 5.125 -7.859375 5.351562 -7.511719 C 5.578125 -7.164062 5.753906 -6.742188 5.882812 -6.242188 C 6.011719 -5.742188 6.074219 -5.066406 6.074219 -4.21875 C 6.074219 -3.214844 5.972656 -2.40625 5.765625 -1.789062 C 5.558594 -1.171875 5.25 -0.695312 4.839844 -0.359375 C 4.429688 -0.0234375 3.910156 0.144531 3.285156 0.144531 C 2.460938 0.144531 1.8125 -0.148438 1.34375 -0.742188 C 0.777344 -1.453125 0.496094 -2.613281 0.496094 -4.21875 M 1.574219 -4.21875 C 1.574219 -2.8125 1.738281 -1.878906 2.070312 -1.414062 C 2.398438 -0.949219 2.804688 -0.71875 3.285156 -0.71875 C 3.765625 -0.71875 4.171875 -0.949219 4.5 -1.417969 C 4.832031 -1.882812 4.996094 -2.816406 4.996094 -4.21875 C 4.996094 -5.625 4.832031 -6.5625 4.5 -7.023438 C 4.171875 -7.488281 3.761719 -7.71875 3.273438 -7.71875 C 2.792969 -7.71875 2.40625 -7.515625 2.117188 -7.105469 C 1.757812 -6.585938 1.574219 -5.621094 1.574219 -4.21875 Z M 1.574219 -4.21875 "/>
</g>
<g id="glyph-0-20">
<path d="M 0.496094 -2.242188 L 1.597656 -2.335938 C 1.679688 -1.796875 1.871094 -1.394531 2.167969 -1.125 C 2.464844 -0.851562 2.824219 -0.71875 3.246094 -0.71875 C 3.75 -0.71875 4.179688 -0.910156 4.527344 -1.289062 C 4.878906 -1.671875 5.054688 -2.175781 5.054688 -2.808594 C 5.054688 -3.40625 4.886719 -3.878906 4.546875 -4.222656 C 4.210938 -4.570312 3.769531 -4.742188 3.226562 -4.742188 C 2.886719 -4.742188 2.582031 -4.667969 2.3125 -4.511719 C 2.039062 -4.359375 1.824219 -4.160156 1.667969 -3.914062 L 0.683594 -4.042969 L 1.511719 -8.4375 L 5.765625 -8.4375 L 5.765625 -7.433594 L 2.351562 -7.433594 L 1.890625 -5.136719 C 2.402344 -5.492188 2.941406 -5.671875 3.507812 -5.671875 C 4.253906 -5.671875 4.882812 -5.414062 5.398438 -4.894531 C 5.910156 -4.378906 6.167969 -3.714844 6.167969 -2.898438 C 6.167969 -2.125 5.941406 -1.457031 5.492188 -0.894531 C 4.941406 -0.199219 4.195312 0.144531 3.246094 0.144531 C 2.464844 0.144531 1.832031 -0.0703125 1.339844 -0.507812 C 0.847656 -0.941406 0.566406 -1.519531 0.496094 -2.242188 Z M 0.496094 -2.242188 "/>
</g>
<g id="glyph-0-21">
<path d="M 3.863281 0 L 3.863281 -2.046875 L 0.152344 -2.046875 L 0.152344 -3.011719 L 4.054688 -8.554688 L 4.914062 -8.554688 L 4.914062 -3.011719 L 6.070312 -3.011719 L 6.070312 -2.046875 L 4.914062 -2.046875 L 4.914062 0 L 3.863281 0 M 3.863281 -3.011719 L 3.863281 -6.867188 L 1.183594 -3.011719 Z M 3.863281 -3.011719 "/>
</g>
<g id="glyph-1-0">
<path d="M 3.109375 0 L 3.109375 -7.578125 L 0.28125 -7.578125 L 0.28125 -8.589844 L 7.089844 -8.589844 L 7.089844 -7.578125 L 4.25 -7.578125 L 4.25 0 Z M 3.109375 0 "/>
</g>
<g id="glyph-1-1">
<path d="M 4.867188 0 L 4.867188 -0.914062 C 4.382812 -0.210938 3.726562 0.140625 2.894531 0.140625 C 2.527344 0.140625 2.183594 0.0703125 1.867188 -0.0703125 C 1.546875 -0.210938 1.3125 -0.386719 1.15625 -0.601562 C 1.003906 -0.8125 0.894531 -1.074219 0.832031 -1.382812 C 0.789062 -1.589844 0.765625 -1.917969 0.765625 -2.367188 L 0.765625 -6.222656 L 1.820312 -6.222656 L 1.820312 -2.773438 C 1.820312 -2.21875 1.84375 -1.847656 1.886719 -1.65625 C 1.953125 -1.378906 2.09375 -1.164062 2.308594 -1.003906 C 2.523438 -0.847656 2.789062 -0.765625 3.105469 -0.765625 C 3.421875 -0.765625 3.71875 -0.847656 3.996094 -1.011719 C 4.273438 -1.171875 4.46875 -1.394531 4.585938 -1.671875 C 4.699219 -1.953125 4.757812 -2.355469 4.757812 -2.890625 L 4.757812 -6.222656 L 5.8125 -6.222656 L 5.8125 0 Z M 4.867188 0 "/>
</g>
<g id="glyph-1-2">
<path d="M 0.789062 0 L 0.789062 -6.222656 L 1.742188 -6.222656 L 1.742188 -5.335938 C 2.195312 -6.019531 2.855469 -6.363281 3.71875 -6.363281 C 4.09375 -6.363281 4.441406 -6.296875 4.753906 -6.160156 C 5.070312 -6.027344 5.304688 -5.847656 5.460938 -5.632812 C 5.617188 -5.410156 5.726562 -5.152344 5.789062 -4.851562 C 5.828125 -4.65625 5.847656 -4.3125 5.847656 -3.828125 L 5.847656 0 L 4.792969 0 L 4.792969 -3.785156 C 4.792969 -4.214844 4.75 -4.535156 4.671875 -4.75 C 4.585938 -4.960938 4.441406 -5.132812 4.234375 -5.257812 C 4.023438 -5.386719 3.78125 -5.449219 3.5 -5.449219 C 3.046875 -5.449219 2.660156 -5.304688 2.335938 -5.023438 C 2.007812 -4.734375 1.84375 -4.195312 1.84375 -3.398438 L 1.84375 0 Z M 0.789062 0 "/>
</g>
<g id="glyph-1-3">
<path d="M 0.597656 0.515625 L 1.625 0.667969 C 1.664062 0.984375 1.785156 1.214844 1.980469 1.359375 C 2.242188 1.554688 2.597656 1.652344 3.054688 1.652344 C 3.539062 1.652344 3.917969 1.554688 4.183594 1.359375 C 4.449219 1.164062 4.628906 0.890625 4.722656 0.539062 C 4.777344 0.324219 4.800781 -0.128906 4.796875 -0.8125 C 4.335938 -0.273438 3.761719 0 3.078125 0 C 2.21875 0 1.558594 -0.308594 1.089844 -0.925781 C 0.621094 -1.542969 0.386719 -2.28125 0.386719 -3.148438 C 0.386719 -3.738281 0.492188 -4.289062 0.710938 -4.789062 C 0.921875 -5.292969 1.234375 -5.679688 1.644531 -5.953125 C 2.050781 -6.226562 2.53125 -6.363281 3.082031 -6.363281 C 3.816406 -6.363281 4.421875 -6.066406 4.898438 -5.472656 L 4.898438 -6.222656 L 5.871094 -6.222656 L 5.871094 -0.84375 C 5.871094 0.125 5.773438 0.8125 5.574219 1.214844 C 5.378906 1.621094 5.066406 1.9375 4.636719 2.171875 C 4.210938 2.40625 3.683594 2.523438 3.058594 2.523438 C 2.316406 2.523438 1.71875 2.359375 1.257812 2.023438 C 0.804688 1.691406 0.582031 1.1875 0.597656 0.515625 M 1.46875 -3.222656 C 1.46875 -2.40625 1.632812 -1.8125 1.957031 -1.4375 C 2.28125 -1.0625 2.6875 -0.875 3.175781 -0.875 C 3.660156 -0.875 4.066406 -1.058594 4.394531 -1.433594 C 4.722656 -1.804688 4.886719 -2.390625 4.886719 -3.1875 C 4.886719 -3.949219 4.71875 -4.523438 4.378906 -4.910156 C 4.042969 -5.296875 3.632812 -5.492188 3.15625 -5.492188 C 2.6875 -5.492188 2.289062 -5.300781 1.960938 -4.917969 C 1.632812 -4.539062 1.46875 -3.972656 1.46875 -3.222656 Z M 1.46875 -3.222656 "/>
</g>
<g id="glyph-1-4">
<path d="M 0.78125 0 L 0.78125 -6.222656 L 1.726562 -6.222656 L 1.726562 -5.28125 C 1.96875 -5.71875 2.195312 -6.011719 2.398438 -6.152344 C 2.605469 -6.292969 2.828125 -6.363281 3.078125 -6.363281 C 3.429688 -6.363281 3.792969 -6.25 4.160156 -6.023438 L 3.796875 -5.046875 C 3.539062 -5.195312 3.28125 -5.273438 3.023438 -5.273438 C 2.792969 -5.273438 2.585938 -5.203125 2.402344 -5.066406 C 2.21875 -4.925781 2.085938 -4.734375 2.007812 -4.488281 C 1.890625 -4.113281 1.835938 -3.703125 1.835938 -3.257812 L 1.835938 0 Z M 0.78125 0 "/>
</g>
<g id="glyph-1-5">
<path d="M 4.851562 -0.765625 C 4.460938 -0.433594 4.085938 -0.199219 3.722656 -0.0625 C 3.363281 0.0703125 2.972656 0.140625 2.5625 0.140625 C 1.875 0.140625 1.351562 -0.0273438 0.984375 -0.359375 C 0.617188 -0.695312 0.433594 -1.121094 0.433594 -1.640625 C 0.433594 -1.945312 0.503906 -2.222656 0.640625 -2.476562 C 0.78125 -2.726562 0.960938 -2.929688 1.1875 -3.082031 C 1.410156 -3.234375 1.664062 -3.347656 1.945312 -3.429688 C 2.152344 -3.480469 2.464844 -3.535156 2.882812 -3.585938 C 3.734375 -3.6875 4.359375 -3.808594 4.765625 -3.949219 C 4.765625 -4.09375 4.769531 -4.183594 4.769531 -4.226562 C 4.769531 -4.652344 4.671875 -4.957031 4.46875 -5.132812 C 4.203125 -5.371094 3.800781 -5.492188 3.269531 -5.492188 C 2.773438 -5.492188 2.40625 -5.402344 2.171875 -5.230469 C 1.933594 -5.054688 1.757812 -4.746094 1.648438 -4.304688 L 0.617188 -4.445312 C 0.707031 -4.886719 0.863281 -5.246094 1.078125 -5.515625 C 1.292969 -5.789062 1.601562 -5.996094 2.007812 -6.144531 C 2.414062 -6.289062 2.886719 -6.363281 3.421875 -6.363281 C 3.953125 -6.363281 4.382812 -6.300781 4.71875 -6.175781 C 5.046875 -6.050781 5.292969 -5.894531 5.449219 -5.703125 C 5.605469 -5.515625 5.714844 -5.273438 5.777344 -4.984375 C 5.8125 -4.804688 5.828125 -4.484375 5.828125 -4.015625 L 5.828125 -2.609375 C 5.828125 -1.628906 5.851562 -1.007812 5.898438 -0.746094 C 5.941406 -0.488281 6.03125 -0.238281 6.164062 0 L 5.0625 0 C 4.953125 -0.21875 4.882812 -0.476562 4.851562 -0.765625 M 4.765625 -3.125 C 4.378906 -2.964844 3.804688 -2.832031 3.039062 -2.726562 C 2.605469 -2.660156 2.300781 -2.589844 2.121094 -2.515625 C 1.941406 -2.433594 1.800781 -2.320312 1.703125 -2.171875 C 1.605469 -2.019531 1.558594 -1.851562 1.558594 -1.671875 C 1.558594 -1.386719 1.664062 -1.152344 1.878906 -0.96875 C 2.089844 -0.78125 2.402344 -0.683594 2.8125 -0.6875 C 3.21875 -0.683594 3.578125 -0.773438 3.898438 -0.953125 C 4.210938 -1.128906 4.445312 -1.371094 4.59375 -1.679688 C 4.707031 -1.917969 4.761719 -2.269531 4.765625 -2.734375 Z M 4.765625 -3.125 "/>
</g>
<g id="glyph-1-6">
<path d="M 0.789062 0 L 0.789062 -8.589844 L 1.84375 -8.589844 L 1.84375 -5.507812 C 2.335938 -6.078125 2.957031 -6.363281 3.710938 -6.363281 C 4.167969 -6.363281 4.570312 -6.273438 4.910156 -6.089844 C 5.25 -5.910156 5.492188 -5.65625 5.640625 -5.335938 C 5.785156 -5.015625 5.859375 -4.554688 5.859375 -3.945312 L 5.859375 0 L 4.804688 0 L 4.804688 -3.945312 C 4.804688 -4.46875 4.691406 -4.855469 4.460938 -5.09375 C 4.234375 -5.335938 3.910156 -5.453125 3.492188 -5.453125 C 3.179688 -5.453125 2.886719 -5.375 2.609375 -5.210938 C 2.335938 -5.050781 2.140625 -4.828125 2.023438 -4.554688 C 1.90625 -4.273438 1.84375 -3.890625 1.84375 -3.40625 L 1.84375 0 Z M 0.789062 0 "/>
</g>
<g id="glyph-1-7">
<path d="M 4.945312 -3.367188 L 4.945312 -4.375 L 8.585938 -4.382812 L 8.585938 -1.195312 C 8.023438 -0.75 7.449219 -0.414062 6.855469 -0.191406 C 6.261719 0.0351562 5.652344 0.148438 5.027344 0.148438 C 4.183594 0.148438 3.417969 -0.0351562 2.726562 -0.394531 C 2.039062 -0.757812 1.515625 -1.277344 1.164062 -1.960938 C 0.8125 -2.644531 0.640625 -3.410156 0.640625 -4.253906 C 0.640625 -5.089844 0.8125 -5.871094 1.164062 -6.59375 C 1.511719 -7.320312 2.015625 -7.859375 2.671875 -8.210938 C 3.328125 -8.5625 4.085938 -8.734375 4.9375 -8.734375 C 5.558594 -8.734375 6.121094 -8.636719 6.625 -8.433594 C 7.125 -8.234375 7.519531 -7.953125 7.804688 -7.59375 C 8.089844 -7.234375 8.304688 -6.765625 8.453125 -6.1875 L 7.429688 -5.90625 C 7.300781 -6.34375 7.140625 -6.6875 6.949219 -6.9375 C 6.757812 -7.1875 6.484375 -7.386719 6.128906 -7.539062 C 5.773438 -7.6875 5.378906 -7.765625 4.945312 -7.765625 C 4.425781 -7.765625 3.976562 -7.683594 3.597656 -7.527344 C 3.21875 -7.367188 2.914062 -7.160156 2.679688 -6.902344 C 2.449219 -6.644531 2.265625 -6.359375 2.140625 -6.054688 C 1.917969 -5.519531 1.8125 -4.945312 1.8125 -4.324219 C 1.8125 -3.558594 1.941406 -2.917969 2.207031 -2.402344 C 2.46875 -1.886719 2.851562 -1.503906 3.359375 -1.253906 C 3.859375 -1.003906 4.394531 -0.878906 4.960938 -0.878906 C 5.453125 -0.878906 5.9375 -0.972656 6.40625 -1.164062 C 6.875 -1.351562 7.226562 -1.554688 7.46875 -1.769531 L 7.46875 -3.367188 Z M 4.945312 -3.367188 "/>
</g>
<g id="glyph-1-8">
<path d="M 0.742188 2.398438 L 0.625 1.40625 C 0.855469 1.46875 1.058594 1.5 1.230469 1.5 C 1.464844 1.5 1.652344 1.460938 1.792969 1.382812 C 1.933594 1.304688 2.046875 1.195312 2.140625 1.054688 C 2.203125 0.949219 2.3125 0.6875 2.460938 0.269531 C 2.480469 0.210938 2.511719 0.125 2.554688 0.0117188 L 0.195312 -6.222656 L 1.328125 -6.222656 L 2.625 -2.617188 C 2.792969 -2.164062 2.941406 -1.679688 3.078125 -1.179688 C 3.195312 -1.660156 3.339844 -2.132812 3.507812 -2.59375 L 4.839844 -6.222656 L 5.894531 -6.222656 L 3.527344 0.105469 C 3.273438 0.789062 3.078125 1.257812 2.9375 1.515625 C 2.746094 1.863281 2.53125 2.121094 2.289062 2.28125 C 2.046875 2.445312 1.757812 2.523438 1.421875 2.523438 C 1.21875 2.523438 0.992188 2.480469 0.742188 2.398438 Z M 0.742188 2.398438 "/>
</g>
<g id="glyph-1-9">
<path d="M 0.367188 -1.859375 L 1.414062 -2.023438 C 1.46875 -1.601562 1.632812 -1.28125 1.902344 -1.0625 C 2.167969 -0.835938 2.542969 -0.726562 3.023438 -0.726562 C 3.507812 -0.726562 3.867188 -0.824219 4.101562 -1.023438 C 4.335938 -1.21875 4.453125 -1.449219 4.453125 -1.71875 C 4.453125 -1.953125 4.347656 -2.140625 4.140625 -2.28125 C 3.996094 -2.375 3.640625 -2.492188 3.0625 -2.636719 C 2.289062 -2.832031 1.753906 -3 1.457031 -3.144531 C 1.15625 -3.285156 0.929688 -3.484375 0.777344 -3.734375 C 0.621094 -3.988281 0.546875 -4.265625 0.546875 -4.570312 C 0.546875 -4.847656 0.609375 -5.105469 0.734375 -5.339844 C 0.863281 -5.578125 1.035156 -5.773438 1.253906 -5.929688 C 1.417969 -6.050781 1.640625 -6.152344 1.925781 -6.238281 C 2.207031 -6.320312 2.511719 -6.363281 2.835938 -6.363281 C 3.324219 -6.363281 3.753906 -6.292969 4.121094 -6.152344 C 4.492188 -6.011719 4.761719 -5.820312 4.9375 -5.582031 C 5.113281 -5.339844 5.234375 -5.019531 5.304688 -4.617188 L 4.273438 -4.476562 C 4.226562 -4.796875 4.089844 -5.046875 3.863281 -5.226562 C 3.640625 -5.40625 3.320312 -5.496094 2.914062 -5.496094 C 2.425781 -5.496094 2.082031 -5.414062 1.875 -5.257812 C 1.667969 -5.09375 1.5625 -4.90625 1.5625 -4.695312 C 1.5625 -4.554688 1.605469 -4.433594 1.695312 -4.324219 C 1.777344 -4.210938 1.914062 -4.117188 2.097656 -4.042969 C 2.203125 -4.003906 2.515625 -3.914062 3.03125 -3.773438 C 3.773438 -3.574219 4.296875 -3.410156 4.589844 -3.285156 C 4.886719 -3.15625 5.117188 -2.972656 5.285156 -2.730469 C 5.453125 -2.488281 5.535156 -2.1875 5.539062 -1.828125 C 5.535156 -1.476562 5.433594 -1.144531 5.230469 -0.835938 C 5.023438 -0.523438 4.726562 -0.285156 4.34375 -0.113281 C 3.953125 0.0546875 3.515625 0.140625 3.03125 0.140625 C 2.21875 0.140625 1.605469 -0.0273438 1.179688 -0.363281 C 0.757812 -0.699219 0.484375 -1.199219 0.367188 -1.859375 Z M 0.367188 -1.859375 "/>
</g>
<g id="glyph-1-10">
<path d="M 0.925781 0 L 0.925781 -8.589844 L 4.164062 -8.589844 C 4.734375 -8.589844 5.171875 -8.5625 5.472656 -8.507812 C 5.894531 -8.4375 6.246094 -8.304688 6.53125 -8.105469 C 6.816406 -7.910156 7.046875 -7.632812 7.222656 -7.277344 C 7.394531 -6.921875 7.484375 -6.53125 7.484375 -6.105469 C 7.484375 -5.375 7.25 -4.757812 6.785156 -4.25 C 6.320312 -3.746094 5.480469 -3.492188 4.265625 -3.492188 L 2.0625 -3.492188 L 2.0625 0 L 0.925781 0 M 2.0625 -4.507812 L 4.28125 -4.507812 C 5.015625 -4.507812 5.539062 -4.640625 5.847656 -4.914062 C 6.15625 -5.1875 6.3125 -5.574219 6.3125 -6.070312 C 6.3125 -6.429688 6.21875 -6.738281 6.039062 -6.992188 C 5.855469 -7.25 5.617188 -7.417969 5.320312 -7.5 C 5.128906 -7.550781 4.773438 -7.578125 4.257812 -7.578125 L 2.0625 -7.578125 Z M 2.0625 -4.507812 "/>
</g>
<g id="glyph-1-11">
<path d="M 0.796875 -7.375 L 0.796875 -8.589844 L 1.851562 -8.589844 L 1.851562 -7.375 L 0.796875 -7.375 M 0.796875 0 L 0.796875 -6.222656 L 1.851562 -6.222656 L 1.851562 0 Z M 0.796875 0 "/>
</g>
<g id="glyph-1-12">
<path d="M 4.851562 -2.28125 L 5.890625 -2.144531 C 5.773438 -1.429688 5.484375 -0.871094 5.019531 -0.464844 C 4.550781 -0.0625 3.976562 0.140625 3.296875 0.140625 C 2.445312 0.140625 1.761719 -0.136719 1.246094 -0.695312 C 0.726562 -1.25 0.46875 -2.046875 0.46875 -3.085938 C 0.46875 -3.757812 0.578125 -4.347656 0.804688 -4.851562 C 1.023438 -5.355469 1.363281 -5.734375 1.820312 -5.984375 C 2.273438 -6.238281 2.769531 -6.363281 3.304688 -6.363281 C 3.980469 -6.363281 4.53125 -6.191406 4.960938 -5.851562 C 5.390625 -5.507812 5.667969 -5.023438 5.789062 -4.394531 L 4.765625 -4.234375 C 4.664062 -4.652344 4.492188 -4.96875 4.246094 -5.179688 C 3.996094 -5.390625 3.695312 -5.496094 3.34375 -5.496094 C 2.8125 -5.496094 2.382812 -5.304688 2.050781 -4.925781 C 1.71875 -4.542969 1.554688 -3.941406 1.554688 -3.117188 C 1.554688 -2.28125 1.710938 -1.671875 2.03125 -1.296875 C 2.351562 -0.917969 2.769531 -0.726562 3.289062 -0.726562 C 3.699219 -0.726562 4.046875 -0.851562 4.324219 -1.109375 C 4.601562 -1.359375 4.777344 -1.75 4.851562 -2.28125 Z M 4.851562 -2.28125 "/>
</g>
<g id="glyph-1-13">
<path d="M -0.015625 0 L 3.28125 -8.589844 L 4.507812 -8.589844 L 8.023438 0 L 6.726562 0 L 5.726562 -2.601562 L 2.132812 -2.601562 L 1.1875 0 L -0.015625 0 M 2.460938 -3.527344 L 5.375 -3.527344 L 4.476562 -5.90625 C 4.203125 -6.628906 4 -7.222656 3.867188 -7.6875 C 3.757812 -7.136719 3.601562 -6.589844 3.40625 -6.046875 Z M 2.460938 -3.527344 "/>
</g>
<g id="glyph-1-14">
<path d="M 0.234375 0 L 0.234375 -0.855469 L 4.195312 -5.402344 C 3.746094 -5.378906 3.347656 -5.367188 3.007812 -5.367188 L 0.46875 -5.367188 L 0.46875 -6.222656 L 5.554688 -6.222656 L 5.554688 -5.523438 L 2.1875 -1.578125 L 1.535156 -0.855469 C 2.007812 -0.890625 2.449219 -0.90625 2.867188 -0.90625 L 5.742188 -0.90625 L 5.742188 0 Z M 0.234375 0 "/>
</g>
<g id="glyph-1-15">
<path d="M 0.765625 0 L 0.765625 -8.589844 L 1.820312 -8.589844 L 1.820312 0 Z M 0.765625 0 "/>
</g>
<g id="glyph-1-16">
<path d="M 4.851562 -0.765625 C 4.460938 -0.433594 4.085938 -0.199219 3.722656 -0.0625 C 3.363281 0.0703125 2.972656 0.140625 2.5625 0.140625 C 1.875 0.140625 1.351562 -0.0273438 0.984375 -0.359375 C 0.617188 -0.695312 0.433594 -1.121094 0.433594 -1.640625 C 0.433594 -1.945312 0.503906 -2.222656 0.640625 -2.476562 C 0.78125 -2.726562 0.960938 -2.929688 1.1875 -3.082031 C 1.410156 -3.234375 1.664062 -3.347656 1.945312 -3.429688 C 2.152344 -3.480469 2.464844 -3.535156 2.882812 -3.585938 C 3.734375 -3.6875 4.359375 -3.808594 4.765625 -3.949219 C 4.765625 -4.09375 4.769531 -4.183594 4.769531 -4.226562 C 4.769531 -4.652344 4.671875 -4.957031 4.46875 -5.132812 C 4.203125 -5.371094 3.800781 -5.492188 3.269531 -5.492188 C 2.773438 -5.492188 2.40625 -5.402344 2.171875 -5.230469 C 1.933594 -5.054688 1.757812 -4.746094 1.648438 -4.304688 L 0.617188 -4.445312 C 0.707031 -4.886719 0.863281 -5.246094 1.078125 -5.515625 C 1.292969 -5.789062 1.601562 -5.996094 2.007812 -6.144531 C 2.414062 -6.289062 2.886719 -6.363281 3.421875 -6.363281 C 3.953125 -6.363281 4.382812 -6.300781 4.71875 -6.175781 C 5.046875 -6.050781 5.292969 -5.894531 5.449219 -5.703125 C 5.605469 -5.515625 5.714844 -5.273438 5.777344 -4.984375 C 5.8125 -4.804688 5.828125 -4.484375 5.828125 -4.015625 L 5.828125 -2.609375 C 5.828125 -1.628906 5.851562 -1.007812 5.898438 -0.746094 C 5.941406 -0.488281 6.03125 -0.238281 6.164062 0 L 5.0625 0 C 4.953125 -0.21875 4.882812 -0.476562 4.851562 -0.765625 M 4.765625 -3.125 C 4.378906 -2.964844 3.804688 -2.832031 3.039062 -2.726562 C 2.605469 -2.660156 2.300781 -2.589844 2.121094 -2.515625 C 1.941406 -2.433594 1.800781 -2.320312 1.703125 -2.171875 C 1.605469 -2.019531 1.558594 -1.851562 1.558594 -1.671875 C 1.558594 -1.386719 1.664062 -1.152344 1.878906 -0.96875 C 2.089844 -0.78125 2.402344 -0.683594 2.8125 -0.6875 C 3.21875 -0.683594 3.578125 -0.773438 3.898438 -0.953125 C 4.210938 -1.128906 4.445312 -1.371094 4.59375 -1.679688 C 4.707031 -1.917969 4.761719 -2.269531 4.765625 -2.734375 L 4.765625 -3.125 M 2.710938 -6.996094 L 3.492188 -8.636719 L 4.875 -8.636719 L 3.585938 -6.996094 Z M 2.710938 -6.996094 "/>
</g>
<g id="glyph-1-17">
<path d="M 0.789062 2.382812 L 0.789062 -6.222656 L 1.75 -6.222656 L 1.75 -5.414062 C 1.976562 -5.730469 2.234375 -5.96875 2.519531 -6.125 C 2.804688 -6.285156 3.148438 -6.363281 3.554688 -6.363281 C 4.085938 -6.363281 4.554688 -6.226562 4.960938 -5.953125 C 5.367188 -5.679688 5.675781 -5.292969 5.882812 -4.796875 C 6.089844 -4.296875 6.195312 -3.75 6.195312 -3.15625 C 6.195312 -2.519531 6.078125 -1.949219 5.851562 -1.4375 C 5.621094 -0.929688 5.289062 -0.539062 4.855469 -0.265625 C 4.417969 0.00390625 3.960938 0.140625 3.480469 0.140625 C 3.128906 0.140625 2.8125 0.0664062 2.535156 -0.0820312 C 2.253906 -0.230469 2.023438 -0.417969 1.84375 -0.644531 L 1.84375 2.382812 L 0.789062 2.382812 M 1.746094 -3.078125 C 1.746094 -2.273438 1.90625 -1.683594 2.234375 -1.300781 C 2.554688 -0.917969 2.949219 -0.726562 3.410156 -0.726562 C 3.878906 -0.726562 4.28125 -0.925781 4.613281 -1.320312 C 4.949219 -1.71875 5.113281 -2.332031 5.117188 -3.164062 C 5.113281 -3.957031 4.953125 -4.550781 4.625 -4.945312 C 4.300781 -5.339844 3.910156 -5.535156 3.457031 -5.539062 C 3.007812 -5.535156 2.609375 -5.328125 2.265625 -4.90625 C 1.917969 -4.488281 1.746094 -3.875 1.746094 -3.078125 Z M 1.746094 -3.078125 "/>
</g>
<g id="glyph-1-18">
<path d="M 0.398438 -3.109375 C 0.398438 -4.261719 0.71875 -5.117188 1.359375 -5.671875 C 1.894531 -6.132812 2.546875 -6.363281 3.316406 -6.363281 C 4.171875 -6.363281 4.871094 -6.082031 5.414062 -5.523438 C 5.957031 -4.960938 6.226562 -4.1875 6.226562 -3.199219 C 6.226562 -2.398438 6.109375 -1.769531 5.867188 -1.308594 C 5.628906 -0.851562 5.277344 -0.492188 4.820312 -0.242188 C 4.359375 0.0117188 3.859375 0.140625 3.316406 0.140625 C 2.445312 0.140625 1.742188 -0.140625 1.203125 -0.695312 C 0.667969 -1.253906 0.398438 -2.058594 0.398438 -3.109375 M 1.484375 -3.109375 C 1.484375 -2.3125 1.65625 -1.71875 2.003906 -1.320312 C 2.351562 -0.925781 2.789062 -0.726562 3.316406 -0.726562 C 3.839844 -0.726562 4.273438 -0.925781 4.625 -1.324219 C 4.96875 -1.722656 5.144531 -2.328125 5.144531 -3.148438 C 5.144531 -3.914062 4.96875 -4.5 4.621094 -4.894531 C 4.269531 -5.292969 3.835938 -5.492188 3.316406 -5.492188 C 2.789062 -5.492188 2.351562 -5.292969 2.003906 -4.898438 C 1.65625 -4.503906 1.484375 -3.90625 1.484375 -3.109375 Z M 1.484375 -3.109375 "/>
</g>
<g id="glyph-1-19">
<path d="M 2.988281 1.234375 L 2.988281 0.179688 C 2.460938 0.117188 2.03125 -0.00390625 1.703125 -0.171875 C 1.371094 -0.34375 1.085938 -0.617188 0.847656 -0.996094 C 0.605469 -1.375 0.464844 -1.835938 0.429688 -2.382812 L 1.488281 -2.585938 C 1.570312 -2.015625 1.714844 -1.601562 1.921875 -1.335938 C 2.21875 -0.960938 2.574219 -0.75 2.988281 -0.710938 L 2.988281 -4.066406 C 2.554688 -4.148438 2.109375 -4.316406 1.65625 -4.570312 C 1.320312 -4.757812 1.0625 -5.015625 0.882812 -5.351562 C 0.699219 -5.679688 0.609375 -6.058594 0.609375 -6.480469 C 0.609375 -7.230469 0.875 -7.835938 1.40625 -8.304688 C 1.761719 -8.613281 2.289062 -8.804688 2.988281 -8.875 L 2.988281 -9.382812 L 3.609375 -9.382812 L 3.609375 -8.875 C 4.222656 -8.820312 4.707031 -8.636719 5.070312 -8.335938 C 5.527344 -7.953125 5.804688 -7.429688 5.898438 -6.761719 L 4.8125 -6.597656 C 4.746094 -7.011719 4.617188 -7.328125 4.421875 -7.550781 C 4.222656 -7.769531 3.953125 -7.914062 3.609375 -7.984375 L 3.609375 -4.945312 C 4.140625 -4.8125 4.492188 -4.707031 4.664062 -4.632812 C 4.992188 -4.488281 5.257812 -4.3125 5.46875 -4.109375 C 5.671875 -3.898438 5.832031 -3.652344 5.945312 -3.367188 C 6.054688 -3.082031 6.109375 -2.773438 6.109375 -2.445312 C 6.109375 -1.710938 5.878906 -1.101562 5.414062 -0.617188 C 4.949219 -0.128906 4.347656 0.132812 3.609375 0.171875 L 3.609375 1.234375 L 2.988281 1.234375 M 2.988281 -8 C 2.578125 -7.933594 2.253906 -7.769531 2.019531 -7.507812 C 1.78125 -7.238281 1.664062 -6.925781 1.664062 -6.5625 C 1.664062 -6.203125 1.765625 -5.902344 1.964844 -5.660156 C 2.167969 -5.417969 2.507812 -5.222656 2.988281 -5.078125 L 2.988281 -8 M 3.609375 -0.710938 C 4.019531 -0.757812 4.359375 -0.9375 4.625 -1.242188 C 4.894531 -1.546875 5.027344 -1.921875 5.027344 -2.375 C 5.027344 -2.753906 4.933594 -3.0625 4.742188 -3.296875 C 4.554688 -3.527344 4.175781 -3.734375 3.609375 -3.921875 Z M 3.609375 -0.710938 "/>
</g>
<g id="glyph-1-20">
<path d="M 0.5 -4.234375 C 0.5 -5.25 0.601562 -6.070312 0.8125 -6.6875 C 1.019531 -7.308594 1.332031 -7.785156 1.742188 -8.121094 C 2.15625 -8.457031 2.671875 -8.625 3.296875 -8.625 C 3.757812 -8.625 4.164062 -8.53125 4.511719 -8.347656 C 4.859375 -8.160156 5.144531 -7.894531 5.375 -7.542969 C 5.597656 -7.195312 5.777344 -6.769531 5.90625 -6.265625 C 6.035156 -5.765625 6.101562 -5.085938 6.101562 -4.234375 C 6.101562 -3.226562 5.996094 -2.414062 5.789062 -1.796875 C 5.582031 -1.175781 5.273438 -0.699219 4.859375 -0.359375 C 4.449219 -0.0234375 3.925781 0.148438 3.296875 0.148438 C 2.46875 0.148438 1.820312 -0.152344 1.347656 -0.742188 C 0.78125 -1.460938 0.5 -2.621094 0.5 -4.234375 M 1.582031 -4.234375 C 1.582031 -2.824219 1.746094 -1.886719 2.078125 -1.421875 C 2.40625 -0.953125 2.8125 -0.71875 3.296875 -0.71875 C 3.78125 -0.71875 4.191406 -0.953125 4.519531 -1.421875 C 4.851562 -1.890625 5.015625 -2.828125 5.015625 -4.234375 C 5.015625 -5.648438 4.851562 -6.589844 4.519531 -7.054688 C 4.191406 -7.519531 3.78125 -7.75 3.289062 -7.75 C 2.800781 -7.75 2.414062 -7.546875 2.125 -7.136719 C 1.765625 -6.613281 1.582031 -5.644531 1.582031 -4.234375 Z M 1.582031 -4.234375 "/>
</g>
<g id="glyph-1-21">
<path d="M 0.503906 -2.265625 L 1.558594 -2.40625 C 1.679688 -1.8125 1.886719 -1.378906 2.175781 -1.117188 C 2.46875 -0.851562 2.820312 -0.71875 3.242188 -0.71875 C 3.734375 -0.71875 4.15625 -0.890625 4.496094 -1.234375 C 4.839844 -1.578125 5.007812 -2.003906 5.007812 -2.515625 C 5.007812 -2.996094 4.851562 -3.398438 4.535156 -3.710938 C 4.21875 -4.027344 3.816406 -4.183594 3.328125 -4.183594 C 3.128906 -4.183594 2.878906 -4.144531 2.585938 -4.066406 L 2.703125 -4.992188 C 2.773438 -4.984375 2.828125 -4.980469 2.871094 -4.980469 C 3.320312 -4.980469 3.722656 -5.097656 4.085938 -5.332031 C 4.441406 -5.566406 4.621094 -5.925781 4.625 -6.414062 C 4.621094 -6.804688 4.492188 -7.121094 4.230469 -7.375 C 3.96875 -7.628906 3.628906 -7.757812 3.21875 -7.757812 C 2.804688 -7.757812 2.464844 -7.628906 2.191406 -7.371094 C 1.917969 -7.113281 1.742188 -6.726562 1.664062 -6.210938 L 0.609375 -6.398438 C 0.738281 -7.105469 1.03125 -7.652344 1.488281 -8.042969 C 1.945312 -8.429688 2.515625 -8.625 3.195312 -8.625 C 3.664062 -8.625 4.09375 -8.523438 4.488281 -8.324219 C 4.882812 -8.121094 5.183594 -7.847656 5.394531 -7.5 C 5.601562 -7.152344 5.707031 -6.78125 5.707031 -6.390625 C 5.707031 -6.019531 5.609375 -5.683594 5.40625 -5.378906 C 5.210938 -5.074219 4.914062 -4.832031 4.523438 -4.652344 C 5.03125 -4.535156 5.425781 -4.292969 5.707031 -3.921875 C 5.988281 -3.554688 6.128906 -3.089844 6.128906 -2.539062 C 6.128906 -1.789062 5.855469 -1.152344 5.308594 -0.628906 C 4.761719 -0.109375 4.070312 0.152344 3.234375 0.152344 C 2.480469 0.152344 1.855469 -0.0742188 1.355469 -0.523438 C 0.859375 -0.96875 0.574219 -1.554688 0.503906 -2.265625 Z M 0.503906 -2.265625 "/>
</g>
<g id="glyph-1-22">
<path d="M 5.96875 -6.484375 L 4.921875 -6.40625 C 4.828125 -6.816406 4.695312 -7.117188 4.523438 -7.304688 C 4.238281 -7.605469 3.886719 -7.757812 3.46875 -7.757812 C 3.132812 -7.757812 2.835938 -7.664062 2.585938 -7.476562 C 2.25 -7.234375 1.988281 -6.878906 1.796875 -6.414062 C 1.605469 -5.949219 1.507812 -5.289062 1.5 -4.429688 C 1.753906 -4.816406 2.0625 -5.101562 2.429688 -5.289062 C 2.796875 -5.476562 3.183594 -5.570312 3.585938 -5.570312 C 4.289062 -5.570312 4.886719 -5.3125 5.382812 -4.796875 C 5.875 -4.277344 6.125 -3.609375 6.125 -2.789062 C 6.125 -2.25 6.007812 -1.75 5.773438 -1.285156 C 5.542969 -0.824219 5.222656 -0.46875 4.816406 -0.222656 C 4.410156 0.0234375 3.949219 0.148438 3.433594 0.148438 C 2.554688 0.148438 1.835938 -0.175781 1.28125 -0.824219 C 0.726562 -1.46875 0.453125 -2.535156 0.453125 -4.019531 C 0.453125 -5.679688 0.757812 -6.886719 1.371094 -7.640625 C 1.90625 -8.296875 2.625 -8.625 3.53125 -8.625 C 4.207031 -8.625 4.761719 -8.433594 5.195312 -8.054688 C 5.625 -7.675781 5.882812 -7.15625 5.96875 -6.484375 M 1.664062 -2.78125 C 1.664062 -2.421875 1.742188 -2.070312 1.894531 -1.742188 C 2.050781 -1.40625 2.265625 -1.15625 2.542969 -0.980469 C 2.820312 -0.808594 3.109375 -0.71875 3.414062 -0.71875 C 3.859375 -0.71875 4.242188 -0.898438 4.5625 -1.257812 C 4.882812 -1.617188 5.042969 -2.105469 5.046875 -2.726562 C 5.042969 -3.316406 4.886719 -3.785156 4.570312 -4.128906 C 4.253906 -4.46875 3.855469 -4.640625 3.375 -4.640625 C 2.898438 -4.640625 2.492188 -4.46875 2.164062 -4.128906 C 1.828125 -3.785156 1.664062 -3.335938 1.664062 -2.78125 Z M 1.664062 -2.78125 "/>
</g>
<g id="glyph-1-23">
<path d="M 0.65625 -1.984375 L 1.671875 -2.078125 C 1.753906 -1.601562 1.917969 -1.257812 2.164062 -1.042969 C 2.402344 -0.828125 2.714844 -0.71875 3.09375 -0.71875 C 3.417969 -0.71875 3.703125 -0.792969 3.945312 -0.945312 C 4.191406 -1.089844 4.390625 -1.289062 4.546875 -1.539062 C 4.703125 -1.785156 4.832031 -2.121094 4.9375 -2.542969 C 5.042969 -2.964844 5.097656 -3.394531 5.097656 -3.832031 C 5.097656 -3.878906 5.09375 -3.949219 5.09375 -4.042969 C 4.882812 -3.707031 4.59375 -3.433594 4.226562 -3.226562 C 3.863281 -3.015625 3.464844 -2.914062 3.039062 -2.914062 C 2.328125 -2.914062 1.726562 -3.171875 1.234375 -3.6875 C 0.742188 -4.203125 0.5 -4.882812 0.5 -5.726562 C 0.5 -6.59375 0.753906 -7.296875 1.269531 -7.828125 C 1.78125 -8.359375 2.425781 -8.625 3.199219 -8.625 C 3.757812 -8.625 4.269531 -8.472656 4.730469 -8.171875 C 5.195312 -7.871094 5.546875 -7.445312 5.785156 -6.886719 C 6.027344 -6.332031 6.148438 -5.523438 6.148438 -4.46875 C 6.148438 -3.371094 6.027344 -2.5 5.789062 -1.847656 C 5.550781 -1.199219 5.195312 -0.703125 4.726562 -0.363281 C 4.253906 -0.0234375 3.703125 0.148438 3.070312 0.148438 C 2.398438 0.148438 1.847656 -0.0390625 1.421875 -0.414062 C 0.996094 -0.785156 0.742188 -1.308594 0.65625 -1.984375 M 4.976562 -5.777344 C 4.972656 -6.382812 4.8125 -6.863281 4.492188 -7.21875 C 4.167969 -7.574219 3.78125 -7.75 3.328125 -7.75 C 2.859375 -7.75 2.449219 -7.558594 2.101562 -7.179688 C 1.753906 -6.792969 1.582031 -6.296875 1.582031 -5.6875 C 1.582031 -5.140625 1.746094 -4.699219 2.078125 -4.355469 C 2.40625 -4.015625 2.8125 -3.84375 3.296875 -3.84375 C 3.785156 -3.84375 4.1875 -4.015625 4.503906 -4.355469 C 4.816406 -4.699219 4.972656 -5.171875 4.976562 -5.777344 Z M 4.976562 -5.777344 "/>
</g>
<g id="glyph-1-24">
<path d="M 4.46875 0 L 3.414062 0 L 3.414062 -6.71875 C 3.160156 -6.476562 2.828125 -6.234375 2.417969 -5.992188 C 2.003906 -5.75 1.632812 -5.570312 1.304688 -5.449219 L 1.304688 -6.46875 C 1.894531 -6.746094 2.410156 -7.082031 2.851562 -7.476562 C 3.292969 -7.871094 3.605469 -8.253906 3.789062 -8.625 L 4.46875 -8.625 Z M 4.46875 0 "/>
</g>
<g id="glyph-1-25">
<path d="M 1.066406 0 L 1.066406 -1.203125 L 2.265625 -1.203125 L 2.265625 0 C 2.265625 0.441406 2.1875 0.796875 2.03125 1.070312 C 1.875 1.339844 1.628906 1.550781 1.289062 1.699219 L 0.996094 1.25 C 1.21875 1.148438 1.382812 1.007812 1.488281 0.816406 C 1.59375 0.628906 1.652344 0.355469 1.664062 0 Z M 1.066406 0 "/>
</g>
<g id="glyph-1-26">
<path d="M 6.039062 -1.015625 L 6.039062 0 L 0.363281 0 C 0.355469 -0.253906 0.394531 -0.5 0.484375 -0.734375 C 0.628906 -1.117188 0.863281 -1.5 1.179688 -1.875 C 1.5 -2.25 1.957031 -2.683594 2.5625 -3.175781 C 3.492188 -3.941406 4.125 -4.546875 4.453125 -4.996094 C 4.78125 -5.441406 4.945312 -5.867188 4.945312 -6.265625 C 4.945312 -6.679688 4.796875 -7.035156 4.496094 -7.320312 C 4.199219 -7.609375 3.808594 -7.75 3.328125 -7.75 C 2.820312 -7.75 2.414062 -7.601562 2.109375 -7.296875 C 1.804688 -6.992188 1.648438 -6.570312 1.648438 -6.03125 L 0.5625 -6.140625 C 0.636719 -6.949219 0.917969 -7.566406 1.398438 -7.988281 C 1.882812 -8.414062 2.535156 -8.625 3.351562 -8.625 C 4.175781 -8.625 4.828125 -8.398438 5.308594 -7.9375 C 5.789062 -7.484375 6.03125 -6.914062 6.03125 -6.242188 C 6.03125 -5.894531 5.957031 -5.558594 5.820312 -5.226562 C 5.675781 -4.894531 5.445312 -4.542969 5.117188 -4.179688 C 4.792969 -3.808594 4.25 -3.304688 3.492188 -2.664062 C 2.859375 -2.132812 2.453125 -1.773438 2.273438 -1.585938 C 2.09375 -1.394531 1.945312 -1.203125 1.828125 -1.015625 Z M 6.039062 -1.015625 "/>
</g>
<g id="glyph-1-27">
<path d="M 0.5 -2.25 L 1.605469 -2.34375 C 1.6875 -1.804688 1.878906 -1.398438 2.175781 -1.128906 C 2.476562 -0.855469 2.835938 -0.71875 3.257812 -0.71875 C 3.765625 -0.71875 4.195312 -0.910156 4.546875 -1.296875 C 4.898438 -1.675781 5.074219 -2.1875 5.074219 -2.820312 C 5.074219 -3.417969 4.90625 -3.894531 4.566406 -4.242188 C 4.230469 -4.589844 3.785156 -4.761719 3.242188 -4.765625 C 2.898438 -4.761719 2.59375 -4.6875 2.320312 -4.53125 C 2.046875 -4.378906 1.832031 -4.179688 1.675781 -3.929688 L 0.6875 -4.0625 L 1.515625 -8.472656 L 5.789062 -8.472656 L 5.789062 -7.464844 L 2.359375 -7.464844 L 1.898438 -5.15625 C 2.414062 -5.515625 2.953125 -5.695312 3.523438 -5.695312 C 4.273438 -5.695312 4.90625 -5.433594 5.421875 -4.914062 C 5.9375 -4.394531 6.195312 -3.726562 6.195312 -2.914062 C 6.195312 -2.132812 5.964844 -1.460938 5.515625 -0.898438 C 4.960938 -0.203125 4.210938 0.148438 3.257812 0.148438 C 2.476562 0.148438 1.839844 -0.0742188 1.34375 -0.507812 C 0.851562 -0.945312 0.570312 -1.527344 0.5 -2.25 Z M 0.5 -2.25 "/>
</g>
<g id="glyph-1-28">
<path d="M 2.121094 -4.65625 C 1.683594 -4.816406 1.359375 -5.046875 1.148438 -5.34375 C 0.9375 -5.640625 0.832031 -5.996094 0.832031 -6.410156 C 0.832031 -7.035156 1.058594 -7.558594 1.507812 -7.984375 C 1.953125 -8.410156 2.550781 -8.625 3.296875 -8.625 C 4.046875 -8.625 4.652344 -8.40625 5.109375 -7.972656 C 5.566406 -7.535156 5.796875 -7.003906 5.796875 -6.382812 C 5.796875 -5.980469 5.691406 -5.636719 5.480469 -5.339844 C 5.273438 -5.046875 4.953125 -4.816406 4.53125 -4.65625 C 5.054688 -4.484375 5.457031 -4.207031 5.734375 -3.828125 C 6.007812 -3.441406 6.148438 -2.984375 6.148438 -2.453125 C 6.148438 -1.71875 5.886719 -1.101562 5.367188 -0.601562 C 4.847656 -0.105469 4.164062 0.148438 3.316406 0.148438 C 2.46875 0.148438 1.785156 -0.105469 1.265625 -0.605469 C 0.746094 -1.109375 0.484375 -1.734375 0.484375 -2.484375 C 0.484375 -3.042969 0.628906 -3.511719 0.910156 -3.886719 C 1.195312 -4.265625 1.597656 -4.519531 2.121094 -4.65625 M 1.910156 -6.445312 C 1.910156 -6.039062 2.039062 -5.707031 2.304688 -5.449219 C 2.5625 -5.191406 2.902344 -5.0625 3.320312 -5.0625 C 3.726562 -5.0625 4.0625 -5.191406 4.320312 -5.445312 C 4.582031 -5.703125 4.710938 -6.015625 4.710938 -6.386719 C 4.710938 -6.773438 4.578125 -7.097656 4.308594 -7.363281 C 4.042969 -7.625 3.710938 -7.757812 3.3125 -7.757812 C 2.90625 -7.757812 2.574219 -7.628906 2.308594 -7.371094 C 2.042969 -7.113281 1.910156 -6.804688 1.910156 -6.445312 M 1.570312 -2.476562 C 1.570312 -2.175781 1.640625 -1.886719 1.785156 -1.605469 C 1.925781 -1.324219 2.140625 -1.105469 2.421875 -0.953125 C 2.703125 -0.796875 3.003906 -0.71875 3.328125 -0.71875 C 3.832031 -0.71875 4.25 -0.882812 4.578125 -1.207031 C 4.90625 -1.53125 5.070312 -1.941406 5.070312 -2.445312 C 5.070312 -2.949219 4.898438 -3.371094 4.5625 -3.703125 C 4.222656 -4.035156 3.800781 -4.203125 3.292969 -4.203125 C 2.796875 -4.203125 2.386719 -4.039062 2.058594 -3.710938 C 1.734375 -3.382812 1.570312 -2.96875 1.570312 -2.476562 Z M 1.570312 -2.476562 "/>
</g>
<g id="glyph-1-29">
<path d="M 3.09375 -0.945312 L 3.246094 -0.0117188 C 2.949219 0.0507812 2.683594 0.0820312 2.449219 0.0820312 C 2.066406 0.0820312 1.769531 0.0195312 1.558594 -0.101562 C 1.347656 -0.21875 1.199219 -0.378906 1.113281 -0.578125 C 1.027344 -0.773438 0.984375 -1.1875 0.984375 -1.820312 L 0.984375 -5.402344 L 0.210938 -5.402344 L 0.210938 -6.222656 L 0.984375 -6.222656 L 0.984375 -7.765625 L 2.03125 -8.398438 L 2.03125 -6.222656 L 3.09375 -6.222656 L 3.09375 -5.402344 L 2.03125 -5.402344 L 2.03125 -1.765625 C 2.03125 -1.460938 2.050781 -1.269531 2.089844 -1.183594 C 2.125 -1.097656 2.1875 -1.027344 2.269531 -0.976562 C 2.355469 -0.925781 2.472656 -0.902344 2.632812 -0.902344 C 2.75 -0.902344 2.902344 -0.914062 3.09375 -0.945312 Z M 3.09375 -0.945312 "/>
</g>
<g id="glyph-1-30">
</g>
<g id="glyph-1-31">
<path d="M 5.050781 -2.003906 L 6.140625 -1.867188 C 5.96875 -1.230469 5.648438 -0.738281 5.1875 -0.386719 C 4.71875 -0.0351562 4.125 0.140625 3.40625 0.140625 C 2.492188 0.140625 1.773438 -0.140625 1.238281 -0.699219 C 0.707031 -1.261719 0.4375 -2.046875 0.4375 -3.058594 C 0.4375 -4.105469 0.710938 -4.917969 1.25 -5.496094 C 1.789062 -6.074219 2.484375 -6.363281 3.34375 -6.363281 C 4.179688 -6.363281 4.859375 -6.078125 5.382812 -5.515625 C 5.914062 -4.945312 6.175781 -4.148438 6.175781 -3.125 C 6.175781 -3.058594 6.171875 -2.964844 6.171875 -2.84375 L 1.53125 -2.84375 C 1.566406 -2.15625 1.761719 -1.632812 2.109375 -1.273438 C 2.457031 -0.90625 2.890625 -0.726562 3.410156 -0.726562 C 3.796875 -0.726562 4.125 -0.828125 4.398438 -1.03125 C 4.671875 -1.234375 4.890625 -1.558594 5.050781 -2.003906 M 1.585938 -3.710938 L 5.0625 -3.710938 C 5.015625 -4.230469 4.882812 -4.625 4.664062 -4.886719 C 4.328125 -5.292969 3.890625 -5.496094 3.359375 -5.496094 C 2.871094 -5.496094 2.464844 -5.332031 2.136719 -5.007812 C 1.804688 -4.683594 1.625 -4.25 1.585938 -3.710938 Z M 1.585938 -3.710938 "/>
</g>
<g id="glyph-1-32">
<path d="M 0.789062 0 L 0.789062 -6.222656 L 1.734375 -6.222656 L 1.734375 -5.351562 C 1.929688 -5.65625 2.1875 -5.898438 2.515625 -6.085938 C 2.835938 -6.269531 3.207031 -6.363281 3.621094 -6.363281 C 4.082031 -6.363281 4.460938 -6.265625 4.753906 -6.078125 C 5.050781 -5.882812 5.257812 -5.617188 5.378906 -5.273438 C 5.871094 -6 6.511719 -6.363281 7.300781 -6.363281 C 7.917969 -6.363281 8.390625 -6.191406 8.726562 -5.851562 C 9.054688 -5.507812 9.222656 -4.980469 9.222656 -4.273438 L 9.222656 0 L 8.171875 0 L 8.171875 -3.921875 C 8.171875 -4.339844 8.140625 -4.644531 8.070312 -4.832031 C 8.003906 -5.015625 7.878906 -5.164062 7.699219 -5.28125 C 7.519531 -5.390625 7.308594 -5.449219 7.066406 -5.449219 C 6.628906 -5.449219 6.265625 -5.304688 5.976562 -5.011719 C 5.6875 -4.722656 5.542969 -4.253906 5.542969 -3.617188 L 5.542969 0 L 4.488281 0 L 4.488281 -4.042969 C 4.488281 -4.511719 4.402344 -4.863281 4.230469 -5.097656 C 4.058594 -5.332031 3.777344 -5.449219 3.386719 -5.449219 C 3.089844 -5.449219 2.816406 -5.371094 2.5625 -5.214844 C 2.3125 -5.058594 2.128906 -4.828125 2.015625 -4.53125 C 1.902344 -4.226562 1.84375 -3.792969 1.84375 -3.226562 L 1.84375 0 Z M 0.789062 0 "/>
</g>
</g>
</defs>
<rect x="-46.8" y="-37.4" width="561.6" height="448.8" fill="rgb(100%, 100%, 100%)" fill-opacity="1"/>
<rect x="-46.8" y="-37.4" width="561.6" height="448.8" fill="rgb(100%, 100%, 100%)" fill-opacity="1"/>
<path fill="none" stroke-width="1.163976" stroke-linecap="round" stroke-linejoin="round" stroke="rgb(100%, 100%, 100%)" stroke-opacity="1" stroke-miterlimit="10" d="M 0 374 L 468 374 L 468 0 L 0 0 Z M 0 374 "/>
<path fill-rule="nonzero" fill="rgb(100%, 100%, 100%)" fill-opacity="1" d="M 82.050781 326.449219 L 426.15625 326.449219 L 426.15625 7.96875 L 82.050781 7.96875 Z M 82.050781 326.449219 "/>
<path fill-rule="nonzero" fill="rgb(78.823529%, 25.098039%, 25.098039%)" fill-opacity="1" d="M 82.050781 65.542969 L 342.738281 65.542969 L 342.738281 23.894531 L 82.050781 23.894531 Z M 82.050781 65.542969 "/>
<path fill-rule="nonzero" fill="rgb(43.529412%, 65.882353%, 86.27451%)" fill-opacity="1" d="M 82.050781 126.789062 L 221.4375 126.789062 L 221.4375 85.140625 L 82.050781 85.140625 Z M 82.050781 126.789062 "/>
<path fill-rule="nonzero" fill="rgb(43.529412%, 65.882353%, 86.27451%)" fill-opacity="1" d="M 82.050781 188.035156 L 219.328125 188.035156 L 219.328125 146.386719 L 82.050781 146.386719 Z M 82.050781 188.035156 "/>
<path fill-rule="nonzero" fill="rgb(43.529412%, 65.882353%, 86.27451%)" fill-opacity="1" d="M 82.050781 249.28125 L 205.390625 249.28125 L 205.390625 207.632812 L 82.050781 207.632812 Z M 82.050781 249.28125 "/>
<path fill-rule="nonzero" fill="rgb(43.529412%, 65.882353%, 86.27451%)" fill-opacity="1" d="M 82.050781 310.527344 L 202.394531 310.527344 L 202.394531 268.878906 L 82.050781 268.878906 Z M 82.050781 310.527344 "/>
<path fill="none" stroke-width="1.49377" stroke-linecap="butt" stroke-linejoin="round" stroke="rgb(28.627451%, 31.372549%, 34.117647%)" stroke-opacity="1" stroke-dasharray="5.975079 5.975079" stroke-miterlimit="10" d="M 199.730469 326.449219 L 199.730469 7.96875 "/>
<g fill="rgb(28.627451%, 31.372549%, 34.117647%)" fill-opacity="1">
<use xlink:href="#glyph-0-0" x="202.269531" y="326.816406"/>
<use xlink:href="#glyph-0-1" x="212.224106" y="326.816406"/>
<use xlink:href="#glyph-0-2" x="218.870214" y="326.816406"/>
<use xlink:href="#glyph-0-3" x="225.516322" y="326.816406"/>
<use xlink:href="#glyph-0-4" x="228.171264" y="326.816406"/>
<use xlink:href="#glyph-0-5" x="234.817372" y="326.816406"/>
<use xlink:href="#glyph-0-4" x="241.46348" y="326.816406"/>
<use xlink:href="#glyph-0-6" x="248.109588" y="326.816406"/>
<use xlink:href="#glyph-0-5" x="251.429725" y="326.816406"/>
<use xlink:href="#glyph-0-4" x="258.075833" y="326.816406"/>
<use xlink:href="#glyph-0-7" x="264.721941" y="326.816406"/>
<use xlink:href="#glyph-0-3" x="270.69702" y="326.816406"/>
<use xlink:href="#glyph-0-8" x="273.351962" y="326.816406"/>
<use xlink:href="#glyph-0-5" x="279.99807" y="326.816406"/>
<use xlink:href="#glyph-0-4" x="286.644178" y="326.816406"/>
<use xlink:href="#glyph-0-9" x="293.290286" y="326.816406"/>
<use xlink:href="#glyph-0-10" x="295.945229" y="326.816406"/>
<use xlink:href="#glyph-0-6" x="299.265365" y="326.816406"/>
<use xlink:href="#glyph-0-11" x="302.585502" y="326.816406"/>
<use xlink:href="#glyph-0-12" x="309.23161" y="326.816406"/>
<use xlink:href="#glyph-0-13" x="315.877718" y="326.816406"/>
<use xlink:href="#glyph-0-12" x="322.523826" y="326.816406"/>
</g>
<g fill="rgb(20%, 20%, 20%)" fill-opacity="1">
<use xlink:href="#glyph-0-11" x="345.664062" y="49.496094"/>
<use xlink:href="#glyph-0-14" x="352.310171" y="49.496094"/>
<use xlink:href="#glyph-0-15" x="358.956279" y="49.496094"/>
<use xlink:href="#glyph-0-16" x="362.276415" y="49.496094"/>
<use xlink:href="#glyph-0-13" x="368.922523" y="49.496094"/>
<use xlink:href="#glyph-0-17" x="375.568631" y="49.496094"/>
</g>
<g fill="rgb(20%, 20%, 20%)" fill-opacity="1">
<use xlink:href="#glyph-0-11" x="223.5625" y="110.742188"/>
<use xlink:href="#glyph-0-18" x="230.208608" y="110.742188"/>
<use xlink:href="#glyph-0-12" x="236.854716" y="110.742188"/>
<use xlink:href="#glyph-0-13" x="243.500824" y="110.742188"/>
</g>
<g fill="rgb(20%, 20%, 20%)" fill-opacity="1">
<use xlink:href="#glyph-0-11" x="221.453125" y="171.988281"/>
<use xlink:href="#glyph-0-18" x="228.099233" y="171.988281"/>
<use xlink:href="#glyph-0-16" x="234.745341" y="171.988281"/>
<use xlink:href="#glyph-0-19" x="241.391449" y="171.988281"/>
</g>
<g fill="rgb(20%, 20%, 20%)" fill-opacity="1">
<use xlink:href="#glyph-0-11" x="207.515625" y="233.234375"/>
<use xlink:href="#glyph-0-12" x="214.161733" y="233.234375"/>
<use xlink:href="#glyph-0-12" x="220.807841" y="233.234375"/>
<use xlink:href="#glyph-0-17" x="227.453949" y="233.234375"/>
</g>
<g fill="rgb(20%, 20%, 20%)" fill-opacity="1">
<use xlink:href="#glyph-0-11" x="204.519531" y="294.480469"/>
<use xlink:href="#glyph-0-12" x="211.165639" y="294.480469"/>
<use xlink:href="#glyph-0-20" x="217.811747" y="294.480469"/>
<use xlink:href="#glyph-0-21" x="224.457856" y="294.480469"/>
</g>
<path fill="none" stroke-width="1.163976" stroke-linecap="square" stroke-linejoin="round" stroke="rgb(60%, 60%, 60%)" stroke-opacity="1" stroke-miterlimit="10" d="M 82.050781 326.449219 L 82.050781 7.96875 "/>
<g fill="rgb(20%, 20%, 20%)" fill-opacity="1">
<use xlink:href="#glyph-1-0" x="11.953125" y="294.496094"/>
<use xlink:href="#glyph-1-1" x="19.283203" y="294.496094"/>
<use xlink:href="#glyph-1-2" x="25.957031" y="294.496094"/>
<use xlink:href="#glyph-1-3" x="32.630859" y="294.496094"/>
<use xlink:href="#glyph-1-1" x="39.304688" y="294.496094"/>
<use xlink:href="#glyph-1-4" x="45.978516" y="294.496094"/>
<use xlink:href="#glyph-1-5" x="49.974609" y="294.496094"/>
<use xlink:href="#glyph-1-6" x="56.648438" y="294.496094"/>
<use xlink:href="#glyph-1-1" x="63.322266" y="294.496094"/>
<use xlink:href="#glyph-1-5" x="69.996094" y="294.496094"/>
</g>
<g fill="rgb(20%, 20%, 20%)" fill-opacity="1">
<use xlink:href="#glyph-1-7" x="35.316406" y="233.25"/>
<use xlink:href="#glyph-1-1" x="44.650391" y="233.25"/>
<use xlink:href="#glyph-1-5" x="51.324219" y="233.25"/>
<use xlink:href="#glyph-1-8" x="57.998047" y="233.25"/>
<use xlink:href="#glyph-1-5" x="63.998047" y="233.25"/>
<use xlink:href="#glyph-1-9" x="70.671875" y="233.25"/>
</g>
<g fill="rgb(20%, 20%, 20%)" fill-opacity="1">
<use xlink:href="#glyph-1-10" x="24.640625" y="172.003906"/>
<use xlink:href="#glyph-1-11" x="32.644531" y="172.003906"/>
<use xlink:href="#glyph-1-12" x="35.310547" y="172.003906"/>
<use xlink:href="#glyph-1-6" x="41.310547" y="172.003906"/>
<use xlink:href="#glyph-1-11" x="47.984375" y="172.003906"/>
<use xlink:href="#glyph-1-2" x="50.650391" y="172.003906"/>
<use xlink:href="#glyph-1-12" x="57.324219" y="172.003906"/>
<use xlink:href="#glyph-1-6" x="63.324219" y="172.003906"/>
<use xlink:href="#glyph-1-5" x="69.998047" y="172.003906"/>
</g>
<g fill="rgb(20%, 20%, 20%)" fill-opacity="1">
<use xlink:href="#glyph-1-13" x="43.320312" y="110.757812"/>
<use xlink:href="#glyph-1-14" x="51.324219" y="110.757812"/>
<use xlink:href="#glyph-1-1" x="57.324219" y="110.757812"/>
<use xlink:href="#glyph-1-5" x="63.998047" y="110.757812"/>
<use xlink:href="#glyph-1-8" x="70.671875" y="110.757812"/>
</g>
<g fill="rgb(20%, 20%, 20%)" fill-opacity="1">
<use xlink:href="#glyph-1-7" x="18.628906" y="49.511719"/>
<use xlink:href="#glyph-1-5" x="27.962891" y="49.511719"/>
<use xlink:href="#glyph-1-15" x="34.636719" y="49.511719"/>
<use xlink:href="#glyph-1-16" x="37.302734" y="49.511719"/>
<use xlink:href="#glyph-1-17" x="43.976562" y="49.511719"/>
<use xlink:href="#glyph-1-5" x="50.650391" y="49.511719"/>
<use xlink:href="#glyph-1-3" x="57.324219" y="49.511719"/>
<use xlink:href="#glyph-1-18" x="63.998047" y="49.511719"/>
<use xlink:href="#glyph-1-9" x="70.671875" y="49.511719"/>
</g>
<path fill="none" stroke-width="1.163976" stroke-linecap="butt" stroke-linejoin="round" stroke="rgb(0%, 0%, 0%)" stroke-opacity="1" stroke-miterlimit="10" d="M 79.0625 289.703125 L 82.050781 289.703125 "/>
<path fill="none" stroke-width="1.163976" stroke-linecap="butt" stroke-linejoin="round" stroke="rgb(0%, 0%, 0%)" stroke-opacity="1" stroke-miterlimit="10" d="M 79.0625 228.457031 L 82.050781 228.457031 "/>
<path fill="none" stroke-width="1.163976" stroke-linecap="butt" stroke-linejoin="round" stroke="rgb(0%, 0%, 0%)" stroke-opacity="1" stroke-miterlimit="10" d="M 79.0625 167.210938 L 82.050781 167.210938 "/>
<path fill="none" stroke-width="1.163976" stroke-linecap="butt" stroke-linejoin="round" stroke="rgb(0%, 0%, 0%)" stroke-opacity="1" stroke-miterlimit="10" d="M 79.0625 105.964844 L 82.050781 105.964844 "/>
<path fill="none" stroke-width="1.163976" stroke-linecap="butt" stroke-linejoin="round" stroke="rgb(0%, 0%, 0%)" stroke-opacity="1" stroke-miterlimit="10" d="M 79.0625 44.71875 L 82.050781 44.71875 "/>
<path fill="none" stroke-width="1.163976" stroke-linecap="square" stroke-linejoin="round" stroke="rgb(60%, 60%, 60%)" stroke-opacity="1" stroke-miterlimit="10" d="M 82.050781 326.449219 L 426.15625 326.449219 "/>
<path fill="none" stroke-width="1.163976" stroke-linecap="butt" stroke-linejoin="round" stroke="rgb(0%, 0%, 0%)" stroke-opacity="1" stroke-miterlimit="10" d="M 82.050781 329.4375 L 82.050781 326.449219 "/>
<path fill="none" stroke-width="1.163976" stroke-linecap="butt" stroke-linejoin="round" stroke="rgb(0%, 0%, 0%)" stroke-opacity="1" stroke-miterlimit="10" d="M 129.957031 329.4375 L 129.957031 326.449219 "/>
<path fill="none" stroke-width="1.163976" stroke-linecap="butt" stroke-linejoin="round" stroke="rgb(0%, 0%, 0%)" stroke-opacity="1" stroke-miterlimit="10" d="M 177.863281 329.4375 L 177.863281 326.449219 "/>
<path fill="none" stroke-width="1.163976" stroke-linecap="butt" stroke-linejoin="round" stroke="rgb(0%, 0%, 0%)" stroke-opacity="1" stroke-miterlimit="10" d="M 225.769531 329.4375 L 225.769531 326.449219 "/>
<path fill="none" stroke-width="1.163976" stroke-linecap="butt" stroke-linejoin="round" stroke="rgb(0%, 0%, 0%)" stroke-opacity="1" stroke-miterlimit="10" d="M 273.675781 329.4375 L 273.675781 326.449219 "/>
<path fill="none" stroke-width="1.163976" stroke-linecap="butt" stroke-linejoin="round" stroke="rgb(0%, 0%, 0%)" stroke-opacity="1" stroke-miterlimit="10" d="M 321.582031 329.4375 L 321.582031 326.449219 "/>
<path fill="none" stroke-width="1.163976" stroke-linecap="butt" stroke-linejoin="round" stroke="rgb(0%, 0%, 0%)" stroke-opacity="1" stroke-miterlimit="10" d="M 369.488281 329.4375 L 369.488281 326.449219 "/>
<path fill="none" stroke-width="1.163976" stroke-linecap="butt" stroke-linejoin="round" stroke="rgb(0%, 0%, 0%)" stroke-opacity="1" stroke-miterlimit="10" d="M 417.394531 329.4375 L 417.394531 326.449219 "/>
<g fill="rgb(20%, 20%, 20%)" fill-opacity="1">
<use xlink:href="#glyph-1-19" x="75.378906" y="341.417969"/>
<use xlink:href="#glyph-1-20" x="82.052734" y="341.417969"/>
</g>
<g fill="rgb(20%, 20%, 20%)" fill-opacity="1">
<use xlink:href="#glyph-1-19" x="116.609375" y="341.417969"/>
<use xlink:href="#glyph-1-21" x="123.283203" y="341.417969"/>
<use xlink:href="#glyph-1-20" x="129.957031" y="341.417969"/>
<use xlink:href="#glyph-1-20" x="136.630859" y="341.417969"/>
</g>
<g fill="rgb(20%, 20%, 20%)" fill-opacity="1">
<use xlink:href="#glyph-1-19" x="164.515625" y="341.417969"/>
<use xlink:href="#glyph-1-22" x="171.189453" y="341.417969"/>
<use xlink:href="#glyph-1-20" x="177.863281" y="341.417969"/>
<use xlink:href="#glyph-1-20" x="184.537109" y="341.417969"/>
</g>
<g fill="rgb(20%, 20%, 20%)" fill-opacity="1">
<use xlink:href="#glyph-1-19" x="212.421875" y="341.417969"/>
<use xlink:href="#glyph-1-23" x="219.095703" y="341.417969"/>
<use xlink:href="#glyph-1-20" x="225.769531" y="341.417969"/>
<use xlink:href="#glyph-1-20" x="232.443359" y="341.417969"/>
</g>
<g fill="rgb(20%, 20%, 20%)" fill-opacity="1">
<use xlink:href="#glyph-1-19" x="255.324219" y="341.417969"/>
<use xlink:href="#glyph-1-24" x="261.998047" y="341.417969"/>
<use xlink:href="#glyph-1-25" x="268.671875" y="341.417969"/>
<use xlink:href="#glyph-1-26" x="272.005859" y="341.417969"/>
<use xlink:href="#glyph-1-20" x="278.679688" y="341.417969"/>
<use xlink:href="#glyph-1-20" x="285.353516" y="341.417969"/>
</g>
<g fill="rgb(20%, 20%, 20%)" fill-opacity="1">
<use xlink:href="#glyph-1-19" x="303.230469" y="341.417969"/>
<use xlink:href="#glyph-1-24" x="309.904297" y="341.417969"/>
<use xlink:href="#glyph-1-25" x="316.578125" y="341.417969"/>
<use xlink:href="#glyph-1-27" x="319.912109" y="341.417969"/>
<use xlink:href="#glyph-1-20" x="326.585938" y="341.417969"/>
<use xlink:href="#glyph-1-20" x="333.259766" y="341.417969"/>
</g>
<g fill="rgb(20%, 20%, 20%)" fill-opacity="1">
<use xlink:href="#glyph-1-19" x="351.136719" y="341.417969"/>
<use xlink:href="#glyph-1-24" x="357.810547" y="341.417969"/>
<use xlink:href="#glyph-1-25" x="364.484375" y="341.417969"/>
<use xlink:href="#glyph-1-28" x="367.818359" y="341.417969"/>
<use xlink:href="#glyph-1-20" x="374.492188" y="341.417969"/>
<use xlink:href="#glyph-1-20" x="381.166016" y="341.417969"/>
</g>
<g fill="rgb(20%, 20%, 20%)" fill-opacity="1">
<use xlink:href="#glyph-1-19" x="399.042969" y="341.417969"/>
<use xlink:href="#glyph-1-26" x="405.716797" y="341.417969"/>
<use xlink:href="#glyph-1-25" x="412.390625" y="341.417969"/>
<use xlink:href="#glyph-1-24" x="415.724609" y="341.417969"/>
<use xlink:href="#glyph-1-20" x="422.398438" y="341.417969"/>
<use xlink:href="#glyph-1-20" x="429.072266" y="341.417969"/>
</g>
<g fill="rgb(0%, 0%, 0%)" fill-opacity="1">
<use xlink:href="#glyph-1-7" x="148.382812" y="362.503906"/>
<use xlink:href="#glyph-1-5" x="157.716797" y="362.503906"/>
<use xlink:href="#glyph-1-9" x="164.390625" y="362.503906"/>
<use xlink:href="#glyph-1-29" x="170.390625" y="362.503906"/>
<use xlink:href="#glyph-1-18" x="173.724609" y="362.503906"/>
<use xlink:href="#glyph-1-30" x="180.398438" y="362.503906"/>
<use xlink:href="#glyph-1-12" x="183.732422" y="362.503906"/>
<use xlink:href="#glyph-1-18" x="189.732422" y="362.503906"/>
<use xlink:href="#glyph-1-4" x="196.40625" y="362.503906"/>
<use xlink:href="#glyph-1-4" x="200.402344" y="362.503906"/>
<use xlink:href="#glyph-1-11" x="204.398438" y="362.503906"/>
<use xlink:href="#glyph-1-31" x="207.064453" y="362.503906"/>
<use xlink:href="#glyph-1-2" x="213.738281" y="362.503906"/>
<use xlink:href="#glyph-1-29" x="220.412109" y="362.503906"/>
<use xlink:href="#glyph-1-31" x="223.746094" y="362.503906"/>
<use xlink:href="#glyph-1-30" x="230.419922" y="362.503906"/>
<use xlink:href="#glyph-1-29" x="233.753906" y="362.503906"/>
<use xlink:href="#glyph-1-18" x="237.087891" y="362.503906"/>
<use xlink:href="#glyph-1-29" x="243.761719" y="362.503906"/>
<use xlink:href="#glyph-1-5" x="247.095703" y="362.503906"/>
<use xlink:href="#glyph-1-15" x="253.769531" y="362.503906"/>
<use xlink:href="#glyph-1-30" x="256.435547" y="362.503906"/>
<use xlink:href="#glyph-1-32" x="259.769531" y="362.503906"/>
<use xlink:href="#glyph-1-31" x="269.765625" y="362.503906"/>
<use xlink:href="#glyph-1-2" x="276.439453" y="362.503906"/>
<use xlink:href="#glyph-1-9" x="283.113281" y="362.503906"/>
<use xlink:href="#glyph-1-1" x="289.113281" y="362.503906"/>
<use xlink:href="#glyph-1-5" x="295.787109" y="362.503906"/>
<use xlink:href="#glyph-1-15" x="302.460938" y="362.503906"/>
<use xlink:href="#glyph-1-30" x="305.126953" y="362.503906"/>
<use xlink:href="#glyph-1-17" x="308.460938" y="362.503906"/>
<use xlink:href="#glyph-1-18" x="315.134766" y="362.503906"/>
<use xlink:href="#glyph-1-4" x="321.808594" y="362.503906"/>
<use xlink:href="#glyph-1-30" x="325.804688" y="362.503906"/>
<use xlink:href="#glyph-1-6" x="329.138672" y="362.503906"/>
<use xlink:href="#glyph-1-18" x="335.8125" y="362.503906"/>
<use xlink:href="#glyph-1-3" x="342.486328" y="362.503906"/>
<use xlink:href="#glyph-1-5" x="349.160156" y="362.503906"/>
<use xlink:href="#glyph-1-4" x="355.833984" y="362.503906"/>
</g>
</svg>
