<?xml version="1.0" encoding="UTF-8"?>
<svg xmlns="http://www.w3.org/2000/svg" xmlns:xlink="http://www.w3.org/1999/xlink" width="468pt" height="403pt" viewBox="0 0 468 403">
<defs>
<g>
<g id="glyph-0-0">
<path d="M 6.0625 -6.460938 L 4.476562 -6.285156 C 4.4375 -6.609375 4.335938 -6.851562 4.171875 -7.007812 C 4.007812 -7.164062 3.796875 -7.242188 3.535156 -7.242188 C 3.191406 -7.242188 2.898438 -7.085938 2.65625 -6.773438 C 2.417969 -6.464844 2.269531 -5.816406 2.207031 -4.832031 C 2.613281 -5.3125 3.121094 -5.554688 3.730469 -5.554688 C 4.414062 -5.554688 5 -5.292969 5.488281 -4.773438 C 5.976562 -4.25 6.21875 -3.578125 6.21875 -2.753906 C 6.21875 -1.878906 5.964844 -1.175781 5.449219 -0.648438 C 4.9375 -0.117188 4.277344 0.144531 3.472656 0.144531 C 2.609375 0.144531 1.898438 -0.191406 1.34375 -0.859375 C 0.785156 -1.53125 0.507812 -2.632812 0.507812 -4.160156 C 0.507812 -5.726562 0.796875 -6.859375 1.378906 -7.550781 C 1.957031 -8.242188 2.710938 -8.589844 3.636719 -8.589844 C 4.285156 -8.589844 4.824219 -8.40625 5.25 -8.042969 C 5.675781 -7.679688 5.945312 -7.152344 6.0625 -6.460938 M 2.34375 -2.882812 C 2.34375 -2.347656 2.46875 -1.9375 2.714844 -1.648438 C 2.957031 -1.359375 3.238281 -1.214844 3.554688 -1.214844 C 3.855469 -1.214844 4.109375 -1.332031 4.3125 -1.570312 C 4.515625 -1.808594 4.617188 -2.195312 4.617188 -2.738281 C 4.617188 -3.292969 4.507812 -3.699219 4.289062 -3.960938 C 4.070312 -4.21875 3.796875 -4.347656 3.472656 -4.347656 C 3.15625 -4.347656 2.890625 -4.222656 2.671875 -3.976562 C 2.453125 -3.730469 2.34375 -3.363281 2.34375 -2.882812 Z M 2.34375 -2.882812 "/>
</g>
<g id="glyph-0-1">
<path d="M 6.046875 -1.523438 L 6.046875 0 L 0.296875 0 C 0.359375 -0.574219 0.546875 -1.121094 0.859375 -1.636719 C 1.167969 -2.152344 1.785156 -2.835938 2.703125 -3.6875 C 3.441406 -4.375 3.894531 -4.84375 4.0625 -5.089844 C 4.285156 -5.425781 4.398438 -5.761719 4.398438 -6.089844 C 4.398438 -6.457031 4.300781 -6.738281 4.105469 -6.933594 C 3.910156 -7.132812 3.636719 -7.230469 3.289062 -7.230469 C 2.949219 -7.230469 2.675781 -7.125 2.472656 -6.921875 C 2.273438 -6.714844 2.15625 -6.371094 2.125 -5.894531 L 0.488281 -6.058594 C 0.585938 -6.960938 0.894531 -7.605469 1.40625 -8 C 1.917969 -8.394531 2.5625 -8.589844 3.332031 -8.589844 C 4.175781 -8.589844 4.839844 -8.363281 5.320312 -7.90625 C 5.804688 -7.453125 6.046875 -6.886719 6.046875 -6.207031 C 6.046875 -5.824219 5.976562 -5.457031 5.839844 -5.109375 C 5.699219 -4.761719 5.480469 -4.394531 5.179688 -4.015625 C 4.984375 -3.761719 4.625 -3.398438 4.109375 -2.921875 C 3.589844 -2.449219 3.261719 -2.132812 3.125 -1.976562 C 2.988281 -1.824219 2.875 -1.671875 2.789062 -1.523438 Z M 6.046875 -1.523438 "/>
</g>
<g id="glyph-0-2">
<path d="M 0.859375 0 L 0.859375 -1.640625 L 2.496094 -1.640625 L 2.496094 0 Z M 0.859375 0 "/>
</g>
<g id="glyph-0-3">
<path d="M 1.914062 -4.617188 C 1.488281 -4.792969 1.179688 -5.039062 0.988281 -5.355469 C 0.796875 -5.667969 0.699219 -6.011719 0.699219 -6.382812 C 0.699219 -7.023438 0.921875 -7.546875 1.367188 -7.964844 C 1.8125 -8.382812 2.445312 -8.589844 3.269531 -8.589844 C 4.082031 -8.589844 4.710938 -8.382812 5.160156 -7.964844 C 5.609375 -7.546875 5.835938 -7.023438 5.835938 -6.382812 C 5.835938 -5.988281 5.730469 -5.632812 5.527344 -5.324219 C 5.320312 -5.015625 5.03125 -4.777344 4.65625 -4.617188 C 5.132812 -4.425781 5.492188 -4.148438 5.738281 -3.78125 C 5.984375 -3.414062 6.109375 -2.992188 6.109375 -2.515625 C 6.109375 -1.726562 5.855469 -1.082031 5.355469 -0.589844 C 4.851562 -0.09375 4.179688 0.152344 3.34375 0.152344 C 2.566406 0.152344 1.917969 -0.0507812 1.402344 -0.460938 C 0.789062 -0.941406 0.484375 -1.605469 0.484375 -2.445312 C 0.484375 -2.90625 0.597656 -3.332031 0.828125 -3.71875 C 1.058594 -4.105469 1.417969 -4.40625 1.914062 -4.617188 M 2.253906 -6.265625 C 2.253906 -5.941406 2.34375 -5.683594 2.53125 -5.503906 C 2.714844 -5.320312 2.960938 -5.226562 3.269531 -5.226562 C 3.578125 -5.226562 3.828125 -5.320312 4.015625 -5.503906 C 4.203125 -5.691406 4.292969 -5.945312 4.292969 -6.273438 C 4.292969 -6.578125 4.203125 -6.824219 4.015625 -7.011719 C 3.832031 -7.195312 3.589844 -7.289062 3.285156 -7.289062 C 2.96875 -7.289062 2.71875 -7.195312 2.53125 -7.007812 C 2.34375 -6.820312 2.253906 -6.574219 2.253906 -6.265625 M 2.101562 -2.601562 C 2.101562 -2.152344 2.214844 -1.800781 2.449219 -1.546875 C 2.679688 -1.292969 2.96875 -1.167969 3.3125 -1.167969 C 3.652344 -1.167969 3.933594 -1.289062 4.15625 -1.53125 C 4.375 -1.773438 4.488281 -2.125 4.488281 -2.585938 C 4.488281 -2.984375 4.375 -3.308594 4.148438 -3.550781 C 3.921875 -3.792969 3.636719 -3.914062 3.289062 -3.914062 C 2.890625 -3.914062 2.589844 -3.777344 2.394531 -3.5 C 2.199219 -3.226562 2.101562 -2.925781 2.101562 -2.601562 Z M 2.101562 -2.601562 "/>
</g>
<g id="glyph-0-4">
<path d="M 0.519531 -6.441406 C 0.519531 -7.207031 0.6875 -7.777344 1.023438 -8.144531 C 1.359375 -8.515625 1.816406 -8.699219 2.390625 -8.699219 C 2.988281 -8.699219 3.453125 -8.515625 3.789062 -8.148438 C 4.125 -7.78125 4.292969 -7.210938 4.292969 -6.441406 C 4.292969 -5.675781 4.125 -5.109375 3.789062 -4.738281 C 3.453125 -4.367188 2.996094 -4.183594 2.421875 -4.183594 C 1.828125 -4.183594 1.359375 -4.367188 1.023438 -4.734375 C 0.6875 -5.101562 0.519531 -5.671875 0.519531 -6.441406 M 1.796875 -6.453125 C 1.796875 -5.898438 1.863281 -5.523438 1.988281 -5.332031 C 2.085938 -5.191406 2.222656 -5.125 2.390625 -5.125 C 2.566406 -5.125 2.703125 -5.191406 2.800781 -5.332031 C 2.925781 -5.523438 2.988281 -5.898438 2.988281 -6.453125 C 2.988281 -7.011719 2.925781 -7.382812 2.800781 -7.566406 C 2.703125 -7.710938 2.566406 -7.785156 2.390625 -7.785156 C 2.222656 -7.785156 2.085938 -7.714844 1.988281 -7.574219 C 1.863281 -7.382812 1.796875 -7.011719 1.796875 -6.453125 M 3.640625 0.328125 L 2.425781 0.328125 L 6.984375 -8.699219 L 8.164062 -8.699219 L 3.640625 0.328125 M 6.289062 -1.917969 C 6.289062 -2.6875 6.457031 -3.253906 6.792969 -3.625 C 7.132812 -3.992188 7.589844 -4.179688 8.175781 -4.179688 C 8.761719 -4.179688 9.222656 -3.992188 9.5625 -3.625 C 9.898438 -3.253906 10.066406 -2.6875 10.066406 -1.917969 C 10.066406 -1.148438 9.898438 -0.578125 9.5625 -0.210938 C 9.222656 0.160156 8.769531 0.34375 8.191406 0.34375 C 7.597656 0.34375 7.132812 0.160156 6.792969 -0.210938 C 6.457031 -0.578125 6.289062 -1.148438 6.289062 -1.917969 M 7.566406 -1.925781 C 7.566406 -1.371094 7.632812 -0.996094 7.761719 -0.8125 C 7.859375 -0.667969 7.992188 -0.59375 8.164062 -0.59375 C 8.339844 -0.59375 8.472656 -0.664062 8.566406 -0.804688 C 8.695312 -0.996094 8.757812 -1.371094 8.757812 -1.925781 C 8.757812 -2.480469 8.695312 -2.855469 8.570312 -3.046875 C 8.472656 -3.1875 8.339844 -3.257812 8.164062 -3.257812 C 7.988281 -3.257812 7.855469 -3.1875 7.761719 -3.046875 C 7.632812 -2.855469 7.566406 -2.480469 7.566406 -1.925781 Z M 7.566406 -1.925781 "/>
</g>
<g id="glyph-0-5">
<path d="M 0.53125 -2.199219 L 2.164062 -2.367188 C 2.210938 -2 2.347656 -1.707031 2.578125 -1.492188 C 2.808594 -1.273438 3.074219 -1.167969 3.371094 -1.167969 C 3.714844 -1.167969 4.003906 -1.304688 4.242188 -1.585938 C 4.480469 -1.863281 4.597656 -2.28125 4.597656 -2.839844 C 4.597656 -3.367188 4.480469 -3.761719 4.246094 -4.023438 C 4.007812 -4.285156 3.703125 -4.417969 3.324219 -4.417969 C 2.855469 -4.417969 2.433594 -4.210938 2.058594 -3.792969 L 0.730469 -3.984375 L 1.570312 -8.4375 L 5.90625 -8.4375 L 5.90625 -6.902344 L 2.8125 -6.902344 L 2.554688 -5.449219 C 2.921875 -5.632812 3.292969 -5.722656 3.675781 -5.722656 C 4.402344 -5.722656 5.019531 -5.460938 5.527344 -4.929688 C 6.03125 -4.402344 6.285156 -3.714844 6.285156 -2.871094 C 6.285156 -2.167969 6.082031 -1.539062 5.671875 -0.984375 C 5.117188 -0.230469 4.34375 0.144531 3.355469 0.144531 C 2.566406 0.144531 1.921875 -0.0664062 1.421875 -0.488281 C 0.925781 -0.914062 0.628906 -1.484375 0.53125 -2.199219 Z M 0.53125 -2.199219 "/>
</g>
<g id="glyph-0-6">
<path d="M 4.703125 0 L 3.0625 0 L 3.0625 -6.179688 C 2.464844 -5.621094 1.757812 -5.203125 0.945312 -4.9375 L 0.945312 -6.425781 C 1.375 -6.5625 1.839844 -6.828125 2.339844 -7.222656 C 2.839844 -7.613281 3.1875 -8.066406 3.371094 -8.589844 L 4.703125 -8.589844 Z M 4.703125 0 "/>
</g>
<g id="glyph-0-7">
<path d="M 3.722656 0 L 3.722656 -1.722656 L 0.222656 -1.722656 L 0.222656 -3.15625 L 3.933594 -8.589844 L 5.308594 -8.589844 L 5.308594 -3.164062 L 6.371094 -3.164062 L 6.371094 -1.722656 L 5.308594 -1.722656 L 5.308594 0 L 3.722656 0 M 3.722656 -3.164062 L 3.722656 -6.085938 L 1.757812 -3.164062 Z M 3.722656 -3.164062 "/>
</g>
<g id="glyph-0-8">
<path d="M 0.449219 -2.269531 L 2.035156 -2.460938 C 2.085938 -2.058594 2.222656 -1.75 2.445312 -1.535156 C 2.667969 -1.320312 2.933594 -1.214844 3.25 -1.214844 C 3.589844 -1.214844 3.875 -1.34375 4.105469 -1.597656 C 4.335938 -1.855469 4.453125 -2.203125 4.453125 -2.636719 C 4.453125 -3.050781 4.339844 -3.375 4.121094 -3.617188 C 3.898438 -3.859375 3.628906 -3.980469 3.308594 -3.980469 C 3.097656 -3.980469 2.847656 -3.9375 2.554688 -3.855469 L 2.738281 -5.191406 C 3.179688 -5.179688 3.519531 -5.277344 3.75 -5.480469 C 3.984375 -5.6875 4.101562 -5.957031 4.101562 -6.296875 C 4.101562 -6.582031 4.015625 -6.8125 3.84375 -6.984375 C 3.675781 -7.15625 3.445312 -7.242188 3.164062 -7.242188 C 2.882812 -7.242188 2.644531 -7.144531 2.445312 -6.949219 C 2.246094 -6.753906 2.125 -6.472656 2.082031 -6.097656 L 0.570312 -6.355469 C 0.675781 -6.871094 0.835938 -7.285156 1.046875 -7.59375 C 1.257812 -7.902344 1.554688 -8.148438 1.933594 -8.324219 C 2.3125 -8.5 2.738281 -8.589844 3.210938 -8.589844 C 4.015625 -8.589844 4.660156 -8.332031 5.148438 -7.820312 C 5.546875 -7.398438 5.746094 -6.925781 5.746094 -6.394531 C 5.746094 -5.644531 5.335938 -5.046875 4.515625 -4.597656 C 5.007812 -4.492188 5.398438 -4.257812 5.691406 -3.890625 C 5.984375 -3.527344 6.132812 -3.085938 6.132812 -2.566406 C 6.132812 -1.816406 5.859375 -1.175781 5.308594 -0.648438 C 4.761719 -0.117188 4.078125 0.144531 3.261719 0.144531 C 2.488281 0.144531 1.847656 -0.078125 1.335938 -0.523438 C 0.828125 -0.96875 0.53125 -1.550781 0.449219 -2.269531 Z M 0.449219 -2.269531 "/>
</g>
<g id="glyph-0-9">
<path d="M 0.542969 -1.976562 L 2.128906 -2.152344 C 2.167969 -1.832031 2.269531 -1.589844 2.433594 -1.433594 C 2.597656 -1.28125 2.8125 -1.203125 3.082031 -1.203125 C 3.417969 -1.203125 3.707031 -1.359375 3.945312 -1.667969 C 4.183594 -1.980469 4.332031 -2.625 4.398438 -3.605469 C 3.988281 -3.128906 3.472656 -2.886719 2.851562 -2.886719 C 2.179688 -2.886719 1.601562 -3.148438 1.113281 -3.667969 C 0.625 -4.1875 0.378906 -4.863281 0.378906 -5.695312 C 0.378906 -6.5625 0.636719 -7.261719 1.152344 -7.792969 C 1.667969 -8.324219 2.324219 -8.589844 3.121094 -8.589844 C 3.988281 -8.589844 4.699219 -8.253906 5.257812 -7.582031 C 5.8125 -6.910156 6.089844 -5.808594 6.089844 -4.269531 C 6.089844 -2.707031 5.800781 -1.578125 5.222656 -0.886719 C 4.644531 -0.195312 3.886719 0.152344 2.957031 0.152344 C 2.289062 0.152344 1.75 -0.0273438 1.335938 -0.382812 C 0.925781 -0.738281 0.660156 -1.269531 0.542969 -1.976562 M 4.253906 -5.5625 C 4.253906 -6.089844 4.132812 -6.5 3.890625 -6.792969 C 3.644531 -7.082031 3.363281 -7.230469 3.046875 -7.230469 C 2.742188 -7.230469 2.492188 -7.109375 2.289062 -6.871094 C 2.089844 -6.632812 1.988281 -6.238281 1.988281 -5.695312 C 1.988281 -5.144531 2.097656 -4.738281 2.316406 -4.476562 C 2.535156 -4.21875 2.808594 -4.089844 3.132812 -4.089844 C 3.449219 -4.089844 3.714844 -4.214844 3.929688 -4.464844 C 4.144531 -4.710938 4.253906 -5.078125 4.253906 -5.5625 Z M 4.253906 -5.5625 "/>
</g>
<g id="glyph-0-10">
<path d="M 3.277344 -8.589844 C 4.109375 -8.589844 4.753906 -8.292969 5.222656 -7.703125 C 5.777344 -7.003906 6.058594 -5.839844 6.058594 -4.21875 C 6.058594 -2.601562 5.777344 -1.4375 5.214844 -0.730469 C 4.753906 -0.144531 4.109375 0.144531 3.277344 0.144531 C 2.445312 0.144531 1.777344 -0.175781 1.265625 -0.8125 C 0.757812 -1.453125 0.5 -2.59375 0.5 -4.234375 C 0.5 -5.847656 0.78125 -7.007812 1.34375 -7.714844 C 1.804688 -8.296875 2.449219 -8.589844 3.277344 -8.589844 M 3.277344 -7.230469 C 3.082031 -7.230469 2.902344 -7.167969 2.75 -7.039062 C 2.59375 -6.914062 2.472656 -6.6875 2.386719 -6.359375 C 2.273438 -5.9375 2.21875 -5.222656 2.21875 -4.21875 C 2.21875 -3.214844 2.269531 -2.527344 2.367188 -2.148438 C 2.46875 -1.773438 2.597656 -1.523438 2.75 -1.402344 C 2.90625 -1.277344 3.082031 -1.214844 3.277344 -1.214844 C 3.476562 -1.214844 3.65625 -1.277344 3.808594 -1.402344 C 3.964844 -1.53125 4.085938 -1.757812 4.171875 -2.082031 C 4.285156 -2.503906 4.339844 -3.214844 4.339844 -4.21875 C 4.339844 -5.222656 4.289062 -5.910156 4.191406 -6.289062 C 4.089844 -6.664062 3.960938 -6.914062 3.808594 -7.039062 C 3.652344 -7.167969 3.476562 -7.230469 3.277344 -7.230469 Z M 3.277344 -7.230469 "/>
</g>
<g id="glyph-0-11">
<path d="M 0.507812 -6.914062 L 0.507812 -8.4375 L 6.113281 -8.4375 L 6.113281 -7.246094 C 5.652344 -6.792969 5.179688 -6.136719 4.703125 -5.285156 C 4.222656 -4.433594 3.859375 -3.527344 3.609375 -2.570312 C 3.359375 -1.613281 3.234375 -0.753906 3.238281 0 L 1.65625 0 C 1.683594 -1.183594 1.929688 -2.386719 2.390625 -3.617188 C 2.851562 -4.847656 3.464844 -5.945312 4.234375 -6.914062 Z M 0.507812 -6.914062 "/>
</g>
<g id="glyph-1-0">
<path d="M 0.925781 0 L 0.925781 -8.589844 L 4.164062 -8.589844 C 4.734375 -8.589844 5.171875 -8.5625 5.472656 -8.507812 C 5.894531 -8.4375 6.246094 -8.304688 6.53125 -8.105469 C 6.816406 -7.910156 7.046875 -7.632812 7.222656 -7.277344 C 7.394531 -6.921875 7.484375 -6.53125 7.484375 -6.105469 C 7.484375 -5.375 7.25 -4.757812 6.785156 -4.25 C 6.320312 -3.746094 5.480469 -3.492188 4.265625 -3.492188 L 2.0625 -3.492188 L 2.0625 0 L 0.925781 0 M 2.0625 -4.507812 L 4.28125 -4.507812 C 5.015625 -4.507812 5.539062 -4.640625 5.847656 -4.914062 C 6.15625 -5.1875 6.3125 -5.574219 6.3125 -6.070312 C 6.3125 -6.429688 6.21875 -6.738281 6.039062 -6.992188 C 5.855469 -7.25 5.617188 -7.417969 5.320312 -7.5 C 5.128906 -7.550781 4.773438 -7.578125 4.257812 -7.578125 L 2.0625 -7.578125 Z M 2.0625 -4.507812 "/>
</g>
<g id="glyph-1-1">
<path d="M 0.765625 0 L 0.765625 -8.589844 L 1.820312 -8.589844 L 1.820312 0 Z M 0.765625 0 "/>
</g>
<g id="glyph-1-2">
<path d="M 4.851562 -0.765625 C 4.460938 -0.433594 4.085938 -0.199219 3.722656 -0.0625 C 3.363281 0.0703125 2.972656 0.140625 2.5625 0.140625 C 1.875 0.140625 1.351562 -0.0273438 0.984375 -0.359375 C 0.617188 -0.695312 0.433594 -1.121094 0.433594 -1.640625 C 0.433594 -1.945312 0.503906 -2.222656 0.640625 -2.476562 C 0.78125 -2.726562 0.960938 -2.929688 1.1875 -3.082031 C 1.410156 -3.234375 1.664062 -3.347656 1.945312 -3.429688 C 2.152344 -3.480469 2.464844 -3.535156 2.882812 -3.585938 C 3.734375 -3.6875 4.359375 -3.808594 4.765625 -3.949219 C 4.765625 -4.09375 4.769531 -4.183594 4.769531 -4.226562 C 4.769531 -4.652344 4.671875 -4.957031 4.46875 -5.132812 C 4.203125 -5.371094 3.800781 -5.492188 3.269531 -5.492188 C 2.773438 -5.492188 2.40625 -5.402344 2.171875 -5.230469 C 1.933594 -5.054688 1.757812 -4.746094 1.648438 -4.304688 L 0.617188 -4.445312 C 0.707031 -4.886719 0.863281 -5.246094 1.078125 -5.515625 C 1.292969 -5.789062 1.601562 -5.996094 2.007812 -6.144531 C 2.414062 -6.289062 2.886719 -6.363281 3.421875 -6.363281 C 3.953125 -6.363281 4.382812 -6.300781 4.71875 -6.175781 C 5.046875 -6.050781 5.292969 -5.894531 5.449219 -5.703125 C 5.605469 -5.515625 5.714844 -5.273438 5.777344 -4.984375 C 5.8125 -4.804688 5.828125 -4.484375 5.828125 -4.015625 L 5.828125 -2.609375 C 5.828125 -1.628906 5.851562 -1.007812 5.898438 -0.746094 C 5.941406 -0.488281 6.03125 -0.238281 6.164062 0 L 5.0625 0 C 4.953125 -0.21875 4.882812 -0.476562 4.851562 -0.765625 M 4.765625 -3.125 C 4.378906 -2.964844 3.804688 -2.832031 3.039062 -2.726562 C 2.605469 -2.660156 2.300781 -2.589844 2.121094 -2.515625 C 1.941406 -2.433594 1.800781 -2.320312 1.703125 -2.171875 C 1.605469 -2.019531 1.558594 -1.851562 1.558594 -1.671875 C 1.558594 -1.386719 1.664062 -1.152344 1.878906 -0.96875 C 2.089844 -0.78125 2.402344 -0.683594 2.8125 -0.6875 C 3.21875 -0.683594 3.578125 -0.773438 3.898438 -0.953125 C 4.210938 -1.128906 4.445312 -1.371094 4.59375 -1.679688 C 4.707031 -1.917969 4.761719 -2.269531 4.765625 -2.734375 L 4.765625 -3.125 M 2.710938 -6.996094 L 3.492188 -8.636719 L 4.875 -8.636719 L 3.585938 -6.996094 Z M 2.710938 -6.996094 "/>
</g>
<g id="glyph-1-3">
<path d="M 3.09375 -0.945312 L 3.246094 -0.0117188 C 2.949219 0.0507812 2.683594 0.0820312 2.449219 0.0820312 C 2.066406 0.0820312 1.769531 0.0195312 1.558594 -0.101562 C 1.347656 -0.21875 1.199219 -0.378906 1.113281 -0.578125 C 1.027344 -0.773438 0.984375 -1.1875 0.984375 -1.820312 L 0.984375 -5.402344 L 0.210938 -5.402344 L 0.210938 -6.222656 L 0.984375 -6.222656 L 0.984375 -7.765625 L 2.03125 -8.398438 L 2.03125 -6.222656 L 3.09375 -6.222656 L 3.09375 -5.402344 L 2.03125 -5.402344 L 2.03125 -1.765625 C 2.03125 -1.460938 2.050781 -1.269531 2.089844 -1.183594 C 2.125 -1.097656 2.1875 -1.027344 2.269531 -0.976562 C 2.355469 -0.925781 2.472656 -0.902344 2.632812 -0.902344 C 2.75 -0.902344 2.902344 -0.914062 3.09375 -0.945312 Z M 3.09375 -0.945312 "/>
</g>
<g id="glyph-1-4">
<path d="M 4.851562 -0.765625 C 4.460938 -0.433594 4.085938 -0.199219 3.722656 -0.0625 C 3.363281 0.0703125 2.972656 0.140625 2.5625 0.140625 C 1.875 0.140625 1.351562 -0.0273438 0.984375 -0.359375 C 0.617188 -0.695312 0.433594 -1.121094 0.433594 -1.640625 C 0.433594 -1.945312 0.503906 -2.222656 0.640625 -2.476562 C 0.78125 -2.726562 0.960938 -2.929688 1.1875 -3.082031 C 1.410156 -3.234375 1.664062 -3.347656 1.945312 -3.429688 C 2.152344 -3.480469 2.464844 -3.535156 2.882812 -3.585938 C 3.734375 -3.6875 4.359375 -3.808594 4.765625 -3.949219 C 4.765625 -4.09375 4.769531 -4.183594 4.769531 -4.226562 C 4.769531 -4.652344 4.671875 -4.957031 4.46875 -5.132812 C 4.203125 -5.371094 3.800781 -5.492188 3.269531 -5.492188 C 2.773438 -5.492188 2.40625 -5.402344 2.171875 -5.230469 C 1.933594 -5.054688 1.757812 -4.746094 1.648438 -4.304688 L 0.617188 -4.445312 C 0.707031 -4.886719 0.863281 -5.246094 1.078125 -5.515625 C 1.292969 -5.789062 1.601562 -5.996094 2.007812 -6.144531 C 2.414062 -6.289062 2.886719 -6.363281 3.421875 -6.363281 C 3.953125 -6.363281 4.382812 -6.300781 4.71875 -6.175781 C 5.046875 -6.050781 5.292969 -5.894531 5.449219 -5.703125 C 5.605469 -5.515625 5.714844 -5.273438 5.777344 -4.984375 C 5.8125 -4.804688 5.828125 -4.484375 5.828125 -4.015625 L 5.828125 -2.609375 C 5.828125 -1.628906 5.851562 -1.007812 5.898438 -0.746094 C 5.941406 -0.488281 6.03125 -0.238281 6.164062 0 L 5.0625 0 C 4.953125 -0.21875 4.882812 -0.476562 4.851562 -0.765625 M 4.765625 -3.125 C 4.378906 -2.964844 3.804688 -2.832031 3.039062 -2.726562 C 2.605469 -2.660156 2.300781 -2.589844 2.121094 -2.515625 C 1.941406 -2.433594 1.800781 -2.320312 1.703125 -2.171875 C 1.605469 -2.019531 1.558594 -1.851562 1.558594 -1.671875 C 1.558594 -1.386719 1.664062 -1.152344 1.878906 -0.96875 C 2.089844 -0.78125 2.402344 -0.683594 2.8125 -0.6875 C 3.21875 -0.683594 3.578125 -0.773438 3.898438 -0.953125 C 4.210938 -1.128906 4.445312 -1.371094 4.59375 -1.679688 C 4.707031 -1.917969 4.761719 -2.269531 4.765625 -2.734375 Z M 4.765625 -3.125 "/>
</g>
<g id="glyph-1-5">
<path d="M 0.789062 0 L 0.789062 -6.222656 L 1.742188 -6.222656 L 1.742188 -5.335938 C 2.195312 -6.019531 2.855469 -6.363281 3.71875 -6.363281 C 4.09375 -6.363281 4.441406 -6.296875 4.753906 -6.160156 C 5.070312 -6.027344 5.304688 -5.847656 5.460938 -5.632812 C 5.617188 -5.410156 5.726562 -5.152344 5.789062 -4.851562 C 5.828125 -4.65625 5.847656 -4.3125 5.847656 -3.828125 L 5.847656 0 L 4.792969 0 L 4.792969 -3.785156 C 4.792969 -4.214844 4.75 -4.535156 4.671875 -4.75 C 4.585938 -4.960938 4.441406 -5.132812 4.234375 -5.257812 C 4.023438 -5.386719 3.78125 -5.449219 3.5 -5.449219 C 3.046875 -5.449219 2.660156 -5.304688 2.335938 -5.023438 C 2.007812 -4.734375 1.84375 -4.195312 1.84375 -3.398438 L 1.84375 0 Z M 0.789062 0 "/>
</g>
<g id="glyph-1-6">
<path d="M 0.398438 -3.109375 C 0.398438 -4.261719 0.71875 -5.117188 1.359375 -5.671875 C 1.894531 -6.132812 2.546875 -6.363281 3.316406 -6.363281 C 4.171875 -6.363281 4.871094 -6.082031 5.414062 -5.523438 C 5.957031 -4.960938 6.226562 -4.1875 6.226562 -3.199219 C 6.226562 -2.398438 6.109375 -1.769531 5.867188 -1.308594 C 5.628906 -0.851562 5.277344 -0.492188 4.820312 -0.242188 C 4.359375 0.0117188 3.859375 0.140625 3.316406 0.140625 C 2.445312 0.140625 1.742188 -0.140625 1.203125 -0.695312 C 0.667969 -1.253906 0.398438 -2.058594 0.398438 -3.109375 M 1.484375 -3.109375 C 1.484375 -2.3125 1.65625 -1.71875 2.003906 -1.320312 C 2.351562 -0.925781 2.789062 -0.726562 3.316406 -0.726562 C 3.839844 -0.726562 4.273438 -0.925781 4.625 -1.324219 C 4.96875 -1.722656 5.144531 -2.328125 5.144531 -3.148438 C 5.144531 -3.914062 4.96875 -4.5 4.621094 -4.894531 C 4.269531 -5.292969 3.835938 -5.492188 3.316406 -5.492188 C 2.789062 -5.492188 2.351562 -5.292969 2.003906 -4.898438 C 1.65625 -4.503906 1.484375 -3.90625 1.484375 -3.109375 Z M 1.484375 -3.109375 "/>
</g>
<g id="glyph-1-7">
</g>
<g id="glyph-1-8">
<path d="M 0.789062 0 L 0.789062 -6.222656 L 1.734375 -6.222656 L 1.734375 -5.351562 C 1.929688 -5.65625 2.1875 -5.898438 2.515625 -6.085938 C 2.835938 -6.269531 3.207031 -6.363281 3.621094 -6.363281 C 4.082031 -6.363281 4.460938 -6.265625 4.753906 -6.078125 C 5.050781 -5.882812 5.257812 -5.617188 5.378906 -5.273438 C 5.871094 -6 6.511719 -6.363281 7.300781 -6.363281 C 7.917969 -6.363281 8.390625 -6.191406 8.726562 -5.851562 C 9.054688 -5.507812 9.222656 -4.980469 9.222656 -4.273438 L 9.222656 0 L 8.171875 0 L 8.171875 -3.921875 C 8.171875 -4.339844 8.140625 -4.644531 8.070312 -4.832031 C 8.003906 -5.015625 7.878906 -5.164062 7.699219 -5.28125 C 7.519531 -5.390625 7.308594 -5.449219 7.066406 -5.449219 C 6.628906 -5.449219 6.265625 -5.304688 5.976562 -5.011719 C 5.6875 -4.722656 5.542969 -4.253906 5.542969 -3.617188 L 5.542969 0 L 4.488281 0 L 4.488281 -4.042969 C 4.488281 -4.511719 4.402344 -4.863281 4.230469 -5.097656 C 4.058594 -5.332031 3.777344 -5.449219 3.386719 -5.449219 C 3.089844 -5.449219 2.816406 -5.371094 2.5625 -5.214844 C 2.3125 -5.058594 2.128906 -4.828125 2.015625 -4.53125 C 1.902344 -4.226562 1.84375 -3.792969 1.84375 -3.226562 L 1.84375 0 Z M 0.789062 0 "/>
</g>
<g id="glyph-1-9">
<path d="M 4.828125 0 L 4.828125 -0.785156 C 4.433594 -0.167969 3.851562 0.140625 3.085938 0.140625 C 2.589844 0.140625 2.136719 0.00390625 1.71875 -0.269531 C 1.304688 -0.542969 0.980469 -0.925781 0.753906 -1.414062 C 0.523438 -1.90625 0.410156 -2.46875 0.410156 -3.105469 C 0.410156 -3.726562 0.511719 -4.289062 0.71875 -4.796875 C 0.925781 -5.300781 1.238281 -5.6875 1.652344 -5.960938 C 2.066406 -6.226562 2.527344 -6.363281 3.039062 -6.363281 C 3.414062 -6.363281 3.75 -6.285156 4.042969 -6.125 C 4.335938 -5.96875 4.574219 -5.761719 4.757812 -5.507812 L 4.757812 -8.589844 L 5.804688 -8.589844 L 5.804688 0 L 4.828125 0 M 1.492188 -3.105469 C 1.492188 -2.308594 1.660156 -1.710938 2 -1.320312 C 2.332031 -0.921875 2.730469 -0.726562 3.1875 -0.726562 C 3.648438 -0.726562 4.039062 -0.914062 4.363281 -1.292969 C 4.683594 -1.667969 4.84375 -2.242188 4.84375 -3.015625 C 4.84375 -3.867188 4.679688 -4.492188 4.351562 -4.890625 C 4.023438 -5.289062 3.621094 -5.492188 3.140625 -5.492188 C 2.671875 -5.492188 2.28125 -5.296875 1.964844 -4.914062 C 1.652344 -4.53125 1.492188 -3.929688 1.492188 -3.105469 Z M 1.492188 -3.105469 "/>
</g>
<g id="glyph-1-10">
<path d="M 4.867188 0 L 4.867188 -0.914062 C 4.382812 -0.210938 3.726562 0.140625 2.894531 0.140625 C 2.527344 0.140625 2.183594 0.0703125 1.867188 -0.0703125 C 1.546875 -0.210938 1.3125 -0.386719 1.15625 -0.601562 C 1.003906 -0.8125 0.894531 -1.074219 0.832031 -1.382812 C 0.789062 -1.589844 0.765625 -1.917969 0.765625 -2.367188 L 0.765625 -6.222656 L 1.820312 -6.222656 L 1.820312 -2.773438 C 1.820312 -2.21875 1.84375 -1.847656 1.886719 -1.65625 C 1.953125 -1.378906 2.09375 -1.164062 2.308594 -1.003906 C 2.523438 -0.847656 2.789062 -0.765625 3.105469 -0.765625 C 3.421875 -0.765625 3.71875 -0.847656 3.996094 -1.011719 C 4.273438 -1.171875 4.46875 -1.394531 4.585938 -1.671875 C 4.699219 -1.953125 4.757812 -2.355469 4.757812 -2.890625 L 4.757812 -6.222656 L 5.8125 -6.222656 L 5.8125 0 Z M 4.867188 0 "/>
</g>
<g id="glyph-1-11">
<path d="M 0.78125 0 L 0.78125 -6.222656 L 1.726562 -6.222656 L 1.726562 -5.28125 C 1.96875 -5.71875 2.195312 -6.011719 2.398438 -6.152344 C 2.605469 -6.292969 2.828125 -6.363281 3.078125 -6.363281 C 3.429688 -6.363281 3.792969 -6.25 4.160156 -6.023438 L 3.796875 -5.046875 C 3.539062 -5.195312 3.28125 -5.273438 3.023438 -5.273438 C 2.792969 -5.273438 2.585938 -5.203125 2.402344 -5.066406 C 2.21875 -4.925781 2.085938 -4.734375 2.007812 -4.488281 C 1.890625 -4.113281 1.835938 -3.703125 1.835938 -3.257812 L 1.835938 0 Z M 0.78125 0 "/>
</g>
<g id="glyph-1-12">
<path d="M 3.34375 0 L 3.34375 -3.640625 L 0.0351562 -8.589844 L 1.417969 -8.589844 L 3.109375 -6 C 3.421875 -5.515625 3.714844 -5.03125 3.984375 -4.546875 C 4.242188 -4.996094 4.554688 -5.5 4.921875 -6.0625 L 6.585938 -8.589844 L 7.910156 -8.589844 L 4.484375 -3.640625 L 4.484375 0 Z M 3.34375 0 "/>
</g>
<g id="glyph-1-13">
<path d="M 4.851562 -2.28125 L 5.890625 -2.144531 C 5.773438 -1.429688 5.484375 -0.871094 5.019531 -0.464844 C 4.550781 -0.0625 3.976562 0.140625 3.296875 0.140625 C 2.445312 0.140625 1.761719 -0.136719 1.246094 -0.695312 C 0.726562 -1.25 0.46875 -2.046875 0.46875 -3.085938 C 0.46875 -3.757812 0.578125 -4.347656 0.804688 -4.851562 C 1.023438 -5.355469 1.363281 -5.734375 1.820312 -5.984375 C 2.273438 -6.238281 2.769531 -6.363281 3.304688 -6.363281 C 3.980469 -6.363281 4.53125 -6.191406 4.960938 -5.851562 C 5.390625 -5.507812 5.667969 -5.023438 5.789062 -4.394531 L 4.765625 -4.234375 C 4.664062 -4.652344 4.492188 -4.96875 4.246094 -5.179688 C 3.996094 -5.390625 3.695312 -5.496094 3.34375 -5.496094 C 2.8125 -5.496094 2.382812 -5.304688 2.050781 -4.925781 C 1.71875 -4.542969 1.554688 -3.941406 1.554688 -3.117188 C 1.554688 -2.28125 1.710938 -1.671875 2.03125 -1.296875 C 2.351562 -0.917969 2.769531 -0.726562 3.289062 -0.726562 C 3.699219 -0.726562 4.046875 -0.851562 4.324219 -1.109375 C 4.601562 -1.359375 4.777344 -1.75 4.851562 -2.28125 Z M 4.851562 -2.28125 "/>
</g>
<g id="glyph-1-14">
<path d="M 2.519531 0 L 0.152344 -6.222656 L 1.265625 -6.222656 L 2.601562 -2.496094 C 2.746094 -2.09375 2.878906 -1.675781 3 -1.242188 C 3.09375 -1.570312 3.222656 -1.964844 3.390625 -2.425781 L 4.773438 -6.222656 L 5.859375 -6.222656 L 3.503906 0 Z M 2.519531 0 "/>
</g>
<g id="glyph-1-15">
<path d="M 5.050781 -2.003906 L 6.140625 -1.867188 C 5.96875 -1.230469 5.648438 -0.738281 5.1875 -0.386719 C 4.71875 -0.0351562 4.125 0.140625 3.40625 0.140625 C 2.492188 0.140625 1.773438 -0.140625 1.238281 -0.699219 C 0.707031 -1.261719 0.4375 -2.046875 0.4375 -3.058594 C 0.4375 -4.105469 0.710938 -4.917969 1.25 -5.496094 C 1.789062 -6.074219 2.484375 -6.363281 3.34375 -6.363281 C 4.179688 -6.363281 4.859375 -6.078125 5.382812 -5.515625 C 5.914062 -4.945312 6.175781 -4.148438 6.175781 -3.125 C 6.175781 -3.058594 6.171875 -2.964844 6.171875 -2.84375 L 1.53125 -2.84375 C 1.566406 -2.15625 1.761719 -1.632812 2.109375 -1.273438 C 2.457031 -0.90625 2.890625 -0.726562 3.410156 -0.726562 C 3.796875 -0.726562 4.125 -0.828125 4.398438 -1.03125 C 4.671875 -1.234375 4.890625 -1.558594 5.050781 -2.003906 M 1.585938 -3.710938 L 5.0625 -3.710938 C 5.015625 -4.230469 4.882812 -4.625 4.664062 -4.886719 C 4.328125 -5.292969 3.890625 -5.496094 3.359375 -5.496094 C 2.871094 -5.496094 2.464844 -5.332031 2.136719 -5.007812 C 1.804688 -4.683594 1.625 -4.25 1.585938 -3.710938 Z M 1.585938 -3.710938 "/>
</g>
<g id="glyph-1-16">
<path d="M 0.789062 2.382812 L 0.789062 -6.222656 L 1.75 -6.222656 L 1.75 -5.414062 C 1.976562 -5.730469 2.234375 -5.96875 2.519531 -6.125 C 2.804688 -6.285156 3.148438 -6.363281 3.554688 -6.363281 C 4.085938 -6.363281 4.554688 -6.226562 4.960938 -5.953125 C 5.367188 -5.679688 5.675781 -5.292969 5.882812 -4.796875 C 6.089844 -4.296875 6.195312 -3.75 6.195312 -3.15625 C 6.195312 -2.519531 6.078125 -1.949219 5.851562 -1.4375 C 5.621094 -0.929688 5.289062 -0.539062 4.855469 -0.265625 C 4.417969 0.00390625 3.960938 0.140625 3.480469 0.140625 C 3.128906 0.140625 2.8125 0.0664062 2.535156 -0.0820312 C 2.253906 -0.230469 2.023438 -0.417969 1.84375 -0.644531 L 1.84375 2.382812 L 0.789062 2.382812 M 1.746094 -3.078125 C 1.746094 -2.273438 1.90625 -1.683594 2.234375 -1.300781 C 2.554688 -0.917969 2.949219 -0.726562 3.410156 -0.726562 C 3.878906 -0.726562 4.28125 -0.925781 4.613281 -1.320312 C 4.949219 -1.71875 5.113281 -2.332031 5.117188 -3.164062 C 5.113281 -3.957031 4.953125 -4.550781 4.625 -4.945312 C 4.300781 -5.339844 3.910156 -5.535156 3.457031 -5.539062 C 3.007812 -5.535156 2.609375 -5.328125 2.265625 -4.90625 C 1.917969 -4.488281 1.746094 -3.875 1.746094 -3.078125 Z M 1.746094 -3.078125 "/>
</g>
<g id="glyph-1-17">
<path d="M 0.789062 0 L 0.789062 -8.589844 L 1.84375 -8.589844 L 1.84375 -5.507812 C 2.335938 -6.078125 2.957031 -6.363281 3.710938 -6.363281 C 4.167969 -6.363281 4.570312 -6.273438 4.910156 -6.089844 C 5.25 -5.910156 5.492188 -5.65625 5.640625 -5.335938 C 5.785156 -5.015625 5.859375 -4.554688 5.859375 -3.945312 L 5.859375 0 L 4.804688 0 L 4.804688 -3.945312 C 4.804688 -4.46875 4.691406 -4.855469 4.460938 -5.09375 C 4.234375 -5.335938 3.910156 -5.453125 3.492188 -5.453125 C 3.179688 -5.453125 2.886719 -5.375 2.609375 -5.210938 C 2.335938 -5.050781 2.140625 -4.828125 2.023438 -4.554688 C 1.90625 -4.273438 1.84375 -3.890625 1.84375 -3.40625 L 1.84375 0 Z M 0.789062 0 "/>
</g>
<g id="glyph-1-18">
<path d="M 0.796875 -7.375 L 0.796875 -8.589844 L 1.851562 -8.589844 L 1.851562 -7.375 L 0.796875 -7.375 M 0.796875 0 L 0.796875 -6.222656 L 1.851562 -6.222656 L 1.851562 0 Z M 0.796875 0 "/>
</g>
<g id="glyph-1-19">
<path d="M 0.878906 0 L 0.878906 -8.589844 L 2.015625 -8.589844 L 2.015625 -1.015625 L 6.246094 -1.015625 L 6.246094 0 Z M 0.878906 0 "/>
</g>
<g id="glyph-1-20">
<path d="M 0.960938 0 L 0.960938 -8.589844 L 2.097656 -8.589844 L 2.097656 -5.0625 L 6.5625 -5.0625 L 6.5625 -8.589844 L 7.699219 -8.589844 L 7.699219 0 L 6.5625 0 L 6.5625 -4.046875 L 2.097656 -4.046875 L 2.097656 0 Z M 0.960938 0 "/>
</g>
<g id="glyph-1-21">
<path d="M 0.367188 -1.859375 L 1.414062 -2.023438 C 1.46875 -1.601562 1.632812 -1.28125 1.902344 -1.0625 C 2.167969 -0.835938 2.542969 -0.726562 3.023438 -0.726562 C 3.507812 -0.726562 3.867188 -0.824219 4.101562 -1.023438 C 4.335938 -1.21875 4.453125 -1.449219 4.453125 -1.71875 C 4.453125 -1.953125 4.347656 -2.140625 4.140625 -2.28125 C 3.996094 -2.375 3.640625 -2.492188 3.0625 -2.636719 C 2.289062 -2.832031 1.753906 -3 1.457031 -3.144531 C 1.15625 -3.285156 0.929688 -3.484375 0.777344 -3.734375 C 0.621094 -3.988281 0.546875 -4.265625 0.546875 -4.570312 C 0.546875 -4.847656 0.609375 -5.105469 0.734375 -5.339844 C 0.863281 -5.578125 1.035156 -5.773438 1.253906 -5.929688 C 1.417969 -6.050781 1.640625 -6.152344 1.925781 -6.238281 C 2.207031 -6.320312 2.511719 -6.363281 2.835938 -6.363281 C 3.324219 -6.363281 3.753906 -6.292969 4.121094 -6.152344 C 4.492188 -6.011719 4.761719 -5.820312 4.9375 -5.582031 C 5.113281 -5.339844 5.234375 -5.019531 5.304688 -4.617188 L 4.273438 -4.476562 C 4.226562 -4.796875 4.089844 -5.046875 3.863281 -5.226562 C 3.640625 -5.40625 3.320312 -5.496094 2.914062 -5.496094 C 2.425781 -5.496094 2.082031 -5.414062 1.875 -5.257812 C 1.667969 -5.09375 1.5625 -4.90625 1.5625 -4.695312 C 1.5625 -4.554688 1.605469 -4.433594 1.695312 -4.324219 C 1.777344 -4.210938 1.914062 -4.117188 2.097656 -4.042969 C 2.203125 -4.003906 2.515625 -3.914062 3.03125 -3.773438 C 3.773438 -3.574219 4.296875 -3.410156 4.589844 -3.285156 C 4.886719 -3.15625 5.117188 -2.972656 5.285156 -2.730469 C 5.453125 -2.488281 5.535156 -2.1875 5.539062 -1.828125 C 5.535156 -1.476562 5.433594 -1.144531 5.230469 -0.835938 C 5.023438 -0.523438 4.726562 -0.285156 4.34375 -0.113281 C 3.953125 0.0546875 3.515625 0.140625 3.03125 0.140625 C 2.21875 0.140625 1.605469 -0.0273438 1.179688 -0.363281 C 0.757812 -0.699219 0.484375 -1.199219 0.367188 -1.859375 Z M 0.367188 -1.859375 "/>
</g>
<g id="glyph-1-22">
<path d="M 7.054688 -3.011719 L 8.191406 -2.726562 C 7.953125 -1.789062 7.523438 -1.078125 6.90625 -0.589844 C 6.285156 -0.0976562 5.527344 0.148438 4.632812 0.148438 C 3.710938 0.148438 2.957031 -0.0429688 2.375 -0.417969 C 1.796875 -0.796875 1.355469 -1.34375 1.050781 -2.054688 C 0.75 -2.769531 0.597656 -3.539062 0.597656 -4.359375 C 0.597656 -5.253906 0.769531 -6.035156 1.109375 -6.699219 C 1.453125 -7.367188 1.9375 -7.871094 2.570312 -8.21875 C 3.199219 -8.5625 3.894531 -8.734375 4.652344 -8.734375 C 5.511719 -8.734375 6.234375 -8.515625 6.820312 -8.078125 C 7.40625 -7.640625 7.8125 -7.027344 8.046875 -6.234375 L 6.925781 -5.96875 C 6.726562 -6.59375 6.4375 -7.050781 6.058594 -7.335938 C 5.679688 -7.621094 5.203125 -7.765625 4.628906 -7.765625 C 3.96875 -7.765625 3.417969 -7.605469 2.972656 -7.289062 C 2.53125 -6.972656 2.21875 -6.546875 2.039062 -6.015625 C 1.859375 -5.480469 1.769531 -4.929688 1.769531 -4.367188 C 1.769531 -3.632812 1.875 -2.996094 2.089844 -2.453125 C 2.300781 -1.90625 2.632812 -1.5 3.082031 -1.230469 C 3.53125 -0.960938 4.015625 -0.828125 4.539062 -0.828125 C 5.175781 -0.828125 5.714844 -1.007812 6.15625 -1.375 C 6.597656 -1.742188 6.898438 -2.289062 7.054688 -3.011719 Z M 7.054688 -3.011719 "/>
</g>
<g id="glyph-1-23">
<path d="M 1.765625 0 L 0.785156 0 L 0.785156 -8.589844 L 1.839844 -8.589844 L 1.839844 -5.523438 C 2.285156 -6.082031 2.851562 -6.363281 3.546875 -6.363281 C 3.925781 -6.363281 4.289062 -6.285156 4.632812 -6.132812 C 4.972656 -5.976562 5.253906 -5.761719 5.476562 -5.480469 C 5.695312 -5.203125 5.867188 -4.863281 5.992188 -4.46875 C 6.117188 -4.074219 6.179688 -3.652344 6.179688 -3.203125 C 6.179688 -2.140625 5.917969 -1.3125 5.390625 -0.734375 C 4.863281 -0.152344 4.230469 0.140625 3.492188 0.140625 C 2.757812 0.140625 2.179688 -0.167969 1.765625 -0.78125 L 1.765625 0 M 1.75 -3.15625 C 1.75 -2.410156 1.851562 -1.871094 2.054688 -1.539062 C 2.386719 -1 2.835938 -0.726562 3.40625 -0.726562 C 3.863281 -0.726562 4.261719 -0.925781 4.601562 -1.328125 C 4.933594 -1.726562 5.101562 -2.324219 5.101562 -3.117188 C 5.101562 -3.929688 4.941406 -4.53125 4.621094 -4.914062 C 4.296875 -5.304688 3.90625 -5.496094 3.453125 -5.496094 C 2.988281 -5.496094 2.589844 -5.296875 2.257812 -4.894531 C 1.921875 -4.496094 1.75 -3.914062 1.75 -3.15625 Z M 1.75 -3.15625 "/>
</g>
<g id="glyph-1-24">
<path d="M 0.789062 0 L 0.789062 -6.222656 L 1.742188 -6.222656 L 1.742188 -5.335938 C 2.195312 -6.019531 2.855469 -6.363281 3.71875 -6.363281 C 4.09375 -6.363281 4.441406 -6.296875 4.753906 -6.160156 C 5.070312 -6.027344 5.304688 -5.847656 5.460938 -5.632812 C 5.617188 -5.410156 5.726562 -5.152344 5.789062 -4.851562 C 5.828125 -4.65625 5.847656 -4.3125 5.847656 -3.828125 L 5.847656 0 L 4.792969 0 L 4.792969 -3.785156 C 4.792969 -4.214844 4.75 -4.535156 4.671875 -4.75 C 4.585938 -4.960938 4.441406 -5.132812 4.234375 -5.257812 C 4.023438 -5.386719 3.78125 -5.449219 3.5 -5.449219 C 3.046875 -5.449219 2.660156 -5.304688 2.335938 -5.023438 C 2.007812 -4.734375 1.84375 -4.195312 1.84375 -3.398438 L 1.84375 0 L 0.789062 0 M 1.535156 -7.140625 C 1.53125 -7.546875 1.640625 -7.871094 1.867188 -8.117188 C 2.09375 -8.355469 2.375 -8.476562 2.726562 -8.476562 C 2.964844 -8.476562 3.296875 -8.375 3.714844 -8.164062 C 3.945312 -8.046875 4.128906 -7.984375 4.265625 -7.984375 C 4.390625 -7.984375 4.484375 -8.019531 4.554688 -8.089844 C 4.617188 -8.15625 4.664062 -8.292969 4.695312 -8.496094 L 5.453125 -8.496094 C 5.445312 -8.050781 5.332031 -7.71875 5.117188 -7.492188 C 4.90625 -7.273438 4.632812 -7.160156 4.304688 -7.160156 C 4.0625 -7.160156 3.734375 -7.269531 3.335938 -7.488281 C 3.070312 -7.628906 2.878906 -7.699219 2.757812 -7.699219 C 2.625 -7.699219 2.519531 -7.652344 2.4375 -7.558594 C 2.351562 -7.464844 2.308594 -7.324219 2.3125 -7.140625 Z M 1.535156 -7.140625 "/>
</g>
<g id="glyph-1-25">
<path d="M 4.867188 0 L 4.867188 -0.914062 C 4.382812 -0.210938 3.726562 0.140625 2.894531 0.140625 C 2.527344 0.140625 2.183594 0.0703125 1.867188 -0.0703125 C 1.546875 -0.210938 1.3125 -0.386719 1.15625 -0.601562 C 1.003906 -0.8125 0.894531 -1.074219 0.832031 -1.382812 C 0.789062 -1.589844 0.765625 -1.917969 0.765625 -2.367188 L 0.765625 -6.222656 L 1.820312 -6.222656 L 1.820312 -2.773438 C 1.820312 -2.21875 1.84375 -1.847656 1.886719 -1.65625 C 1.953125 -1.378906 2.09375 -1.164062 2.308594 -1.003906 C 2.523438 -0.847656 2.789062 -0.765625 3.105469 -0.765625 C 3.421875 -0.765625 3.71875 -0.847656 3.996094 -1.011719 C 4.273438 -1.171875 4.46875 -1.394531 4.585938 -1.671875 C 4.699219 -1.953125 4.757812 -2.355469 4.757812 -2.890625 L 4.757812 -6.222656 L 5.8125 -6.222656 L 5.8125 0 L 4.867188 0 M 2.65625 -6.996094 L 3.433594 -8.636719 L 4.816406 -8.636719 L 3.527344 -6.996094 Z M 2.65625 -6.996094 "/>
</g>
<g id="glyph-1-26">
<path d="M 3.109375 0 L 3.109375 -7.578125 L 0.28125 -7.578125 L 0.28125 -8.589844 L 7.089844 -8.589844 L 7.089844 -7.578125 L 4.25 -7.578125 L 4.25 0 Z M 3.109375 0 "/>
</g>
<g id="glyph-1-27">
<path d="M 0.398438 -3.109375 C 0.398438 -4.261719 0.71875 -5.117188 1.359375 -5.671875 C 1.894531 -6.132812 2.546875 -6.363281 3.316406 -6.363281 C 4.171875 -6.363281 4.871094 -6.082031 5.414062 -5.523438 C 5.957031 -4.960938 6.226562 -4.1875 6.226562 -3.199219 C 6.226562 -2.398438 6.109375 -1.769531 5.867188 -1.308594 C 5.628906 -0.851562 5.277344 -0.492188 4.820312 -0.242188 C 4.359375 0.0117188 3.859375 0.140625 3.316406 0.140625 C 2.445312 0.140625 1.742188 -0.140625 1.203125 -0.695312 C 0.667969 -1.253906 0.398438 -2.058594 0.398438 -3.109375 M 1.484375 -3.109375 C 1.484375 -2.3125 1.65625 -1.71875 2.003906 -1.320312 C 2.351562 -0.925781 2.789062 -0.726562 3.316406 -0.726562 C 3.839844 -0.726562 4.273438 -0.925781 4.625 -1.324219 C 4.96875 -1.722656 5.144531 -2.328125 5.144531 -3.148438 C 5.144531 -3.914062 4.96875 -4.5 4.621094 -4.894531 C 4.269531 -5.292969 3.835938 -5.492188 3.316406 -5.492188 C 2.789062 -5.492188 2.351562 -5.292969 2.003906 -4.898438 C 1.65625 -4.503906 1.484375 -3.90625 1.484375 -3.109375 M 2.730469 -6.996094 L 3.507812 -8.636719 L 4.890625 -8.636719 L 3.601562 -6.996094 Z M 2.730469 -6.996094 "/>
</g>
<g id="glyph-2-0">
<path d="M 0.890625 0 L 0.890625 -8.589844 L 2.578125 -8.589844 L 6.09375 -2.851562 L 6.09375 -8.589844 L 7.703125 -8.589844 L 7.703125 0 L 5.964844 0 L 2.5 -5.601562 L 2.5 0 Z M 0.890625 0 "/>
</g>
<g id="glyph-2-1">
<path d="M 2.09375 -4.324219 L 0.597656 -4.59375 C 0.765625 -5.195312 1.054688 -5.640625 1.464844 -5.929688 C 1.875 -6.21875 2.484375 -6.363281 3.292969 -6.363281 C 4.027344 -6.363281 4.574219 -6.277344 4.933594 -6.101562 C 5.292969 -5.929688 5.546875 -5.707031 5.691406 -5.441406 C 5.839844 -5.171875 5.914062 -4.679688 5.914062 -3.96875 L 5.894531 -2.046875 C 5.894531 -1.496094 5.921875 -1.09375 5.972656 -0.835938 C 6.027344 -0.574219 6.125 -0.296875 6.269531 0 L 4.640625 0 C 4.597656 -0.109375 4.542969 -0.273438 4.484375 -0.484375 C 4.453125 -0.582031 4.4375 -0.648438 4.421875 -0.679688 C 4.140625 -0.40625 3.839844 -0.199219 3.523438 -0.0625 C 3.199219 0.0703125 2.859375 0.140625 2.496094 0.140625 C 1.855469 0.140625 1.351562 -0.0351562 0.980469 -0.382812 C 0.613281 -0.726562 0.429688 -1.167969 0.429688 -1.699219 C 0.429688 -2.050781 0.511719 -2.363281 0.679688 -2.640625 C 0.847656 -2.914062 1.082031 -3.125 1.386719 -3.273438 C 1.6875 -3.417969 2.125 -3.546875 2.695312 -3.65625 C 3.464844 -3.800781 3.996094 -3.933594 4.296875 -4.0625 L 4.296875 -4.226562 C 4.296875 -4.539062 4.214844 -4.765625 4.0625 -4.902344 C 3.902344 -5.035156 3.609375 -5.101562 3.175781 -5.101562 C 2.882812 -5.101562 2.65625 -5.046875 2.492188 -4.929688 C 2.328125 -4.816406 2.191406 -4.613281 2.09375 -4.324219 M 4.296875 -2.988281 C 4.085938 -2.917969 3.75 -2.832031 3.292969 -2.734375 C 2.835938 -2.636719 2.539062 -2.542969 2.398438 -2.449219 C 2.179688 -2.296875 2.074219 -2.101562 2.074219 -1.867188 C 2.074219 -1.636719 2.160156 -1.4375 2.332031 -1.273438 C 2.503906 -1.101562 2.722656 -1.019531 2.988281 -1.019531 C 3.285156 -1.019531 3.570312 -1.117188 3.835938 -1.3125 C 4.039062 -1.460938 4.167969 -1.640625 4.230469 -1.859375 C 4.273438 -2 4.296875 -2.265625 4.296875 -2.660156 Z M 4.296875 -2.988281 "/>
</g>
<g id="glyph-2-2">
<path d="M 6.289062 -4.382812 L 4.664062 -4.089844 C 4.609375 -4.414062 4.484375 -4.65625 4.292969 -4.820312 C 4.097656 -4.984375 3.847656 -5.070312 3.539062 -5.070312 C 3.128906 -5.070312 2.800781 -4.925781 2.558594 -4.644531 C 2.3125 -4.359375 2.191406 -3.886719 2.191406 -3.222656 C 2.191406 -2.484375 2.316406 -1.960938 2.5625 -1.65625 C 2.8125 -1.351562 3.144531 -1.203125 3.5625 -1.203125 C 3.875 -1.203125 4.132812 -1.289062 4.328125 -1.46875 C 4.53125 -1.644531 4.671875 -1.953125 4.75 -2.382812 L 6.367188 -2.109375 C 6.199219 -1.367188 5.878906 -0.804688 5.402344 -0.429688 C 4.925781 -0.0507812 4.285156 0.140625 3.484375 0.140625 C 2.574219 0.140625 1.851562 -0.148438 1.308594 -0.71875 C 0.769531 -1.292969 0.5 -2.089844 0.5 -3.105469 C 0.5 -4.132812 0.769531 -4.933594 1.3125 -5.503906 C 1.855469 -6.078125 2.589844 -6.363281 3.515625 -6.363281 C 4.273438 -6.363281 4.875 -6.199219 5.324219 -5.875 C 5.769531 -5.546875 6.089844 -5.050781 6.289062 -4.382812 Z M 6.289062 -4.382812 "/>
</g>
<g id="glyph-2-3">
<path d="M 0.859375 -7.066406 L 0.859375 -8.589844 L 2.507812 -8.589844 L 2.507812 -7.066406 L 0.859375 -7.066406 M 0.859375 0 L 0.859375 -6.222656 L 2.507812 -6.222656 L 2.507812 0 Z M 0.859375 0 "/>
</g>
<g id="glyph-2-4">
<path d="M 0.480469 -3.199219 C 0.480469 -3.746094 0.617188 -4.273438 0.882812 -4.789062 C 1.15625 -5.296875 1.535156 -5.6875 2.03125 -5.960938 C 2.523438 -6.226562 3.078125 -6.363281 3.6875 -6.363281 C 4.625 -6.363281 5.398438 -6.058594 6 -5.445312 C 6.601562 -4.835938 6.902344 -4.0625 6.902344 -3.128906 C 6.902344 -2.1875 6.597656 -1.40625 5.992188 -0.789062 C 5.382812 -0.167969 4.617188 0.140625 3.695312 0.140625 C 3.125 0.140625 2.582031 0.0117188 2.066406 -0.246094 C 1.546875 -0.503906 1.15625 -0.882812 0.882812 -1.378906 C 0.617188 -1.878906 0.480469 -2.484375 0.480469 -3.199219 M 2.167969 -3.109375 C 2.167969 -2.492188 2.3125 -2.023438 2.609375 -1.695312 C 2.898438 -1.367188 3.261719 -1.203125 3.691406 -1.203125 C 4.121094 -1.203125 4.480469 -1.367188 4.773438 -1.695312 C 5.0625 -2.023438 5.210938 -2.496094 5.210938 -3.125 C 5.210938 -3.734375 5.0625 -4.203125 4.773438 -4.53125 C 4.480469 -4.859375 4.121094 -5.023438 3.691406 -5.023438 C 3.261719 -5.023438 2.898438 -4.859375 2.609375 -4.53125 C 2.3125 -4.203125 2.167969 -3.726562 2.167969 -3.109375 Z M 2.167969 -3.109375 "/>
</g>
<g id="glyph-2-5">
<path d="M 6.523438 0 L 4.875 0 L 4.875 -3.175781 C 4.875 -3.847656 4.839844 -4.28125 4.769531 -4.480469 C 4.699219 -4.675781 4.585938 -4.828125 4.425781 -4.9375 C 4.269531 -5.046875 4.078125 -5.101562 3.855469 -5.101562 C 3.570312 -5.101562 3.3125 -5.023438 3.085938 -4.867188 C 2.859375 -4.710938 2.707031 -4.507812 2.621094 -4.25 C 2.539062 -3.992188 2.496094 -3.511719 2.496094 -2.820312 L 2.496094 0 L 0.851562 0 L 0.851562 -6.222656 L 2.378906 -6.222656 L 2.378906 -5.308594 C 2.921875 -6.011719 3.605469 -6.363281 4.429688 -6.363281 C 4.792969 -6.363281 5.125 -6.296875 5.425781 -6.167969 C 5.726562 -6.035156 5.953125 -5.867188 6.109375 -5.664062 C 6.261719 -5.460938 6.371094 -5.230469 6.429688 -4.976562 C 6.492188 -4.714844 6.523438 -4.347656 6.523438 -3.867188 Z M 6.523438 0 "/>
</g>
<g id="glyph-2-6">
<path d="M 0.859375 0 L 0.859375 -8.589844 L 2.507812 -8.589844 L 2.507812 0 Z M 0.859375 0 "/>
</g>
<g id="glyph-2-7">
<path d="M 6.367188 -3.15625 L 8.050781 -2.625 C 7.792969 -1.6875 7.363281 -0.992188 6.765625 -0.535156 C 6.164062 -0.0820312 5.402344 0.148438 4.484375 0.148438 C 3.339844 0.148438 2.402344 -0.242188 1.671875 -1.023438 C 0.933594 -1.800781 0.570312 -2.867188 0.570312 -4.21875 C 0.570312 -5.648438 0.9375 -6.757812 1.675781 -7.550781 C 2.414062 -8.339844 3.382812 -8.734375 4.585938 -8.734375 C 5.636719 -8.734375 6.492188 -8.425781 7.148438 -7.804688 C 7.539062 -7.4375 7.832031 -6.910156 8.027344 -6.222656 L 6.3125 -5.8125 C 6.207031 -6.257812 5.996094 -6.609375 5.675781 -6.867188 C 5.351562 -7.125 4.960938 -7.253906 4.5 -7.253906 C 3.863281 -7.253906 3.347656 -7.023438 2.949219 -6.570312 C 2.554688 -6.109375 2.355469 -5.371094 2.355469 -4.347656 C 2.355469 -3.261719 2.550781 -2.488281 2.941406 -2.027344 C 3.332031 -1.566406 3.839844 -1.335938 4.464844 -1.335938 C 4.925781 -1.335938 5.320312 -1.480469 5.65625 -1.773438 C 5.984375 -2.070312 6.222656 -2.527344 6.367188 -3.15625 Z M 6.367188 -3.15625 "/>
</g>
<g id="glyph-2-8">
<path d="M 0.28125 -1.773438 L 1.933594 -2.027344 C 2.003906 -1.707031 2.144531 -1.464844 2.359375 -1.296875 C 2.574219 -1.132812 2.875 -1.046875 3.265625 -1.046875 C 3.6875 -1.046875 4.007812 -1.125 4.226562 -1.28125 C 4.367188 -1.390625 4.441406 -1.539062 4.441406 -1.722656 C 4.441406 -1.847656 4.402344 -1.953125 4.324219 -2.03125 C 4.242188 -2.109375 4.058594 -2.183594 3.773438 -2.25 C 2.445312 -2.542969 1.601562 -2.808594 1.25 -3.054688 C 0.757812 -3.386719 0.507812 -3.855469 0.507812 -4.453125 C 0.507812 -4.992188 0.722656 -5.445312 1.148438 -5.8125 C 1.574219 -6.179688 2.234375 -6.363281 3.128906 -6.363281 C 3.980469 -6.363281 4.613281 -6.222656 5.027344 -5.945312 C 5.441406 -5.667969 5.726562 -5.257812 5.882812 -4.71875 L 4.328125 -4.429688 C 4.261719 -4.671875 4.136719 -4.859375 3.953125 -4.984375 C 3.765625 -5.117188 3.5 -5.179688 3.15625 -5.179688 C 2.726562 -5.179688 2.414062 -5.117188 2.226562 -5 C 2.101562 -4.910156 2.039062 -4.800781 2.039062 -4.664062 C 2.039062 -4.546875 2.09375 -4.445312 2.203125 -4.367188 C 2.351562 -4.253906 2.863281 -4.101562 3.742188 -3.902344 C 4.617188 -3.703125 5.230469 -3.457031 5.578125 -3.171875 C 5.921875 -2.875 6.09375 -2.46875 6.09375 -1.945312 C 6.09375 -1.375 5.855469 -0.882812 5.378906 -0.476562 C 4.902344 -0.0664062 4.195312 0.140625 3.265625 0.140625 C 2.414062 0.140625 1.746094 -0.03125 1.25 -0.375 C 0.757812 -0.71875 0.433594 -1.183594 0.28125 -1.773438 Z M 0.28125 -1.773438 "/>
</g>
<g id="glyph-2-9">
<path d="M 3.714844 -6.222656 L 3.714844 -4.910156 L 2.589844 -4.910156 L 2.589844 -2.402344 C 2.589844 -1.894531 2.601562 -1.597656 2.621094 -1.515625 C 2.644531 -1.429688 2.691406 -1.359375 2.769531 -1.304688 C 2.84375 -1.25 2.9375 -1.226562 3.046875 -1.226562 C 3.199219 -1.226562 3.417969 -1.277344 3.710938 -1.382812 L 3.851562 -0.105469 C 3.464844 0.0585938 3.03125 0.140625 2.546875 0.140625 C 2.25 0.140625 1.984375 0.0898438 1.746094 -0.0078125 C 1.507812 -0.109375 1.332031 -0.238281 1.222656 -0.394531 C 1.109375 -0.554688 1.03125 -0.765625 0.992188 -1.039062 C 0.953125 -1.226562 0.9375 -1.613281 0.9375 -2.195312 L 0.9375 -4.910156 L 0.179688 -4.910156 L 0.179688 -6.222656 L 0.9375 -6.222656 L 0.9375 -7.460938 L 2.589844 -8.421875 L 2.589844 -6.222656 Z M 3.714844 -6.222656 "/>
</g>
<g id="glyph-2-10">
<path d="M 0.433594 -2.796875 L 2.121094 -2.960938 C 2.222656 -2.390625 2.429688 -1.976562 2.738281 -1.710938 C 3.050781 -1.445312 3.46875 -1.3125 3.996094 -1.3125 C 4.554688 -1.3125 4.976562 -1.429688 5.257812 -1.667969 C 5.542969 -1.902344 5.683594 -2.179688 5.683594 -2.496094 C 5.683594 -2.699219 5.625 -2.871094 5.503906 -3.015625 C 5.386719 -3.15625 5.175781 -3.28125 4.882812 -3.386719 C 4.675781 -3.457031 4.214844 -3.582031 3.492188 -3.761719 C 2.5625 -3.992188 1.910156 -4.273438 1.535156 -4.609375 C 1.007812 -5.082031 0.742188 -5.660156 0.742188 -6.339844 C 0.742188 -6.777344 0.867188 -7.1875 1.117188 -7.566406 C 1.363281 -7.949219 1.722656 -8.238281 2.1875 -8.4375 C 2.65625 -8.636719 3.21875 -8.734375 3.878906 -8.734375 C 4.957031 -8.734375 5.769531 -8.5 6.3125 -8.027344 C 6.859375 -7.554688 7.144531 -6.921875 7.171875 -6.132812 L 5.4375 -6.058594 C 5.363281 -6.5 5.203125 -6.816406 4.960938 -7.011719 C 4.714844 -7.203125 4.347656 -7.300781 3.859375 -7.300781 C 3.359375 -7.300781 2.960938 -7.195312 2.679688 -6.992188 C 2.492188 -6.855469 2.402344 -6.679688 2.402344 -6.457031 C 2.402344 -6.253906 2.488281 -6.078125 2.660156 -5.9375 C 2.878906 -5.75 3.410156 -5.558594 4.253906 -5.359375 C 5.097656 -5.160156 5.722656 -4.957031 6.125 -4.742188 C 6.53125 -4.53125 6.847656 -4.238281 7.074219 -3.871094 C 7.304688 -3.5 7.417969 -3.042969 7.417969 -2.5 C 7.417969 -2.007812 7.28125 -1.546875 7.007812 -1.117188 C 6.734375 -0.6875 6.347656 -0.371094 5.847656 -0.160156 C 5.347656 0.046875 4.722656 0.152344 3.976562 0.152344 C 2.890625 0.152344 2.058594 -0.0976562 1.476562 -0.601562 C 0.894531 -1.101562 0.546875 -1.835938 0.433594 -2.796875 Z M 0.433594 -2.796875 "/>
</g>
<g id="glyph-2-11">
<path d="M 4.464844 -1.980469 L 6.105469 -1.703125 C 5.894531 -1.101562 5.5625 -0.644531 5.105469 -0.332031 C 4.652344 -0.015625 4.082031 0.140625 3.398438 0.140625 C 2.316406 0.140625 1.515625 -0.214844 0.996094 -0.921875 C 0.585938 -1.484375 0.382812 -2.203125 0.382812 -3.0625 C 0.382812 -4.09375 0.648438 -4.902344 1.1875 -5.488281 C 1.726562 -6.070312 2.410156 -6.363281 3.234375 -6.363281 C 4.160156 -6.363281 4.890625 -6.058594 5.425781 -5.445312 C 5.960938 -4.835938 6.21875 -3.898438 6.195312 -2.636719 L 2.070312 -2.636719 C 2.078125 -2.148438 2.210938 -1.769531 2.46875 -1.496094 C 2.71875 -1.226562 3.035156 -1.089844 3.414062 -1.089844 C 3.671875 -1.089844 3.890625 -1.160156 4.066406 -1.300781 C 4.242188 -1.441406 4.375 -1.667969 4.464844 -1.980469 M 4.558594 -3.644531 C 4.546875 -4.121094 4.421875 -4.484375 4.1875 -4.730469 C 3.953125 -4.980469 3.667969 -5.101562 3.335938 -5.101562 C 2.972656 -5.101562 2.675781 -4.972656 2.445312 -4.710938 C 2.210938 -4.449219 2.09375 -4.09375 2.097656 -3.644531 Z M 4.558594 -3.644531 "/>
</g>
<g id="glyph-2-12">
<path d="M 2.4375 0 L 0.789062 0 L 0.789062 -6.222656 L 2.320312 -6.222656 L 2.320312 -5.335938 C 2.582031 -5.753906 2.816406 -6.03125 3.027344 -6.164062 C 3.234375 -6.296875 3.472656 -6.363281 3.738281 -6.363281 C 4.113281 -6.363281 4.472656 -6.257812 4.820312 -6.054688 L 4.3125 -4.617188 C 4.035156 -4.796875 3.777344 -4.886719 3.539062 -4.886719 C 3.308594 -4.886719 3.113281 -4.824219 2.953125 -4.695312 C 2.792969 -4.570312 2.667969 -4.339844 2.574219 -4.007812 C 2.484375 -3.675781 2.4375 -2.980469 2.4375 -1.921875 Z M 2.4375 0 "/>
</g>
<g id="glyph-2-13">
<path d="M 8.617188 0 L 6.734375 0 L 5.984375 -1.953125 L 2.546875 -1.953125 L 1.839844 0 L 0 0 L 3.34375 -8.589844 L 5.179688 -8.589844 L 8.617188 0 M 5.425781 -3.398438 L 4.242188 -6.585938 L 3.082031 -3.398438 Z M 5.425781 -3.398438 "/>
</g>
<g id="glyph-2-14">
<path d="M 0.738281 -6.222656 L 2.257812 -6.222656 L 2.257812 -5.375 C 2.796875 -6.03125 3.445312 -6.363281 4.195312 -6.363281 C 4.59375 -6.363281 4.9375 -6.28125 5.234375 -6.117188 C 5.523438 -5.953125 5.765625 -5.703125 5.953125 -5.375 C 6.226562 -5.703125 6.523438 -5.953125 6.835938 -6.117188 C 7.15625 -6.28125 7.492188 -6.363281 7.851562 -6.363281 C 8.308594 -6.363281 8.695312 -6.269531 9.011719 -6.085938 C 9.328125 -5.898438 9.5625 -5.625 9.71875 -5.265625 C 9.832031 -5 9.890625 -4.570312 9.890625 -3.976562 L 9.890625 0 L 8.242188 0 L 8.242188 -3.554688 C 8.242188 -4.171875 8.1875 -4.570312 8.074219 -4.75 C 7.921875 -4.984375 7.6875 -5.101562 7.371094 -5.101562 C 7.140625 -5.101562 6.921875 -5.03125 6.71875 -4.890625 C 6.515625 -4.75 6.371094 -4.546875 6.28125 -4.273438 C 6.191406 -4.003906 6.148438 -3.574219 6.148438 -2.988281 L 6.148438 0 L 4.5 0 L 4.5 -3.410156 C 4.5 -4.015625 4.46875 -4.40625 4.414062 -4.582031 C 4.351562 -4.757812 4.261719 -4.886719 4.140625 -4.976562 C 4.015625 -5.058594 3.851562 -5.101562 3.640625 -5.101562 C 3.382812 -5.101562 3.15625 -5.035156 2.953125 -4.898438 C 2.75 -4.761719 2.605469 -4.5625 2.515625 -4.304688 C 2.429688 -4.046875 2.382812 -3.621094 2.382812 -3.023438 L 2.382812 0 L 0.738281 0 Z M 0.738281 -6.222656 "/>
</g>
<g id="glyph-2-15">
<path d="M 0.199219 0 L 0.199219 -1.28125 L 2.53125 -3.960938 C 2.914062 -4.398438 3.195312 -4.707031 3.382812 -4.890625 C 3.1875 -4.882812 2.9375 -4.871094 2.625 -4.867188 L 0.429688 -4.859375 L 0.429688 -6.222656 L 5.570312 -6.222656 L 5.570312 -5.054688 L 3.195312 -2.3125 L 2.355469 -1.40625 C 2.8125 -1.433594 3.09375 -1.445312 3.203125 -1.445312 L 5.753906 -1.445312 L 5.753906 0 Z M 0.199219 0 "/>
</g>
<g id="glyph-2-16">
<path d="M 0.859375 0 L 0.859375 -6.222656 L 2.507812 -6.222656 L 2.507812 0 L 0.859375 0 M 0.738281 -6.984375 L 1.546875 -8.734375 L 3.390625 -8.734375 L 1.78125 -6.984375 Z M 0.738281 -6.984375 "/>
</g>
<g id="glyph-2-17">
<path d="M -0.015625 0.148438 L 2.109375 -8.734375 L 3.34375 -8.734375 L 1.195312 0.148438 Z M -0.015625 0.148438 "/>
</g>
<g id="glyph-2-18">
<path d="M 0.523438 -4.242188 C 0.523438 -5.117188 0.652344 -5.851562 0.914062 -6.445312 C 1.109375 -6.882812 1.375 -7.273438 1.714844 -7.625 C 2.050781 -7.96875 2.421875 -8.226562 2.824219 -8.398438 C 3.359375 -8.621094 3.976562 -8.734375 4.675781 -8.734375 C 5.941406 -8.734375 6.953125 -8.34375 7.714844 -7.558594 C 8.472656 -6.773438 8.851562 -5.679688 8.851562 -4.28125 C 8.851562 -2.894531 8.476562 -1.8125 7.722656 -1.027344 C 6.96875 -0.246094 5.960938 0.148438 4.699219 0.148438 C 3.421875 0.148438 2.40625 -0.242188 1.652344 -1.023438 C 0.898438 -1.800781 0.523438 -2.875 0.523438 -4.242188 M 2.308594 -4.300781 C 2.308594 -3.328125 2.53125 -2.589844 2.984375 -2.089844 C 3.429688 -1.585938 4 -1.335938 4.695312 -1.335938 C 5.382812 -1.335938 5.953125 -1.585938 6.394531 -2.082031 C 6.839844 -2.582031 7.0625 -3.328125 7.0625 -4.324219 C 7.0625 -5.308594 6.84375 -6.042969 6.414062 -6.527344 C 5.980469 -7.011719 5.40625 -7.253906 4.695312 -7.253906 C 3.976562 -7.253906 3.402344 -7.007812 2.964844 -6.519531 C 2.527344 -6.027344 2.308594 -5.289062 2.308594 -4.300781 Z M 2.308594 -4.300781 "/>
</g>
</g>
<clipPath id="clip-0">
<path clip-rule="nonzero" d="M 119.722656 7.96875 L 450.066406 7.96875 L 450.066406 379.523438 L 119.722656 379.523438 Z M 119.722656 7.96875 "/>
</clipPath>
</defs>
<rect x="-46.8" y="-40.3" width="561.6" height="483.6" fill="rgb(100%, 100%, 100%)" fill-opacity="1"/>
<rect x="-46.8" y="-40.3" width="561.6" height="483.6" fill="rgb(100%, 100%, 100%)" fill-opacity="1"/>
<path fill="none" stroke-width="1.163976" stroke-linecap="round" stroke-linejoin="round" stroke="rgb(100%, 100%, 100%)" stroke-opacity="1" stroke-miterlimit="10" d="M 0 403 L 468 403 L 468 0 L 0 0 Z M 0 403 "/>
<g clip-path="url(#clip-0)">
<path fill-rule="nonzero" fill="rgb(100%, 100%, 100%)" fill-opacity="1" d="M 119.722656 379.523438 L 450.066406 379.523438 L 450.066406 7.96875 L 119.722656 7.96875 Z M 119.722656 379.523438 "/>
</g>
<path fill-rule="nonzero" fill="rgb(21.176471%, 31.764706%, 43.137255%)" fill-opacity="1" stroke-width="1.707165" stroke-linecap="butt" stroke-linejoin="miter" stroke="rgb(100%, 100%, 100%)" stroke-opacity="1" stroke-miterlimit="10" d="M 130.734375 119.4375 L 203.09375 119.4375 L 203.09375 85.925781 L 130.734375 85.925781 Z M 130.734375 119.4375 "/>
<path fill-rule="nonzero" fill="rgb(29.019608%, 38.431373%, 49.019608%)" fill-opacity="1" stroke-width="1.707165" stroke-linecap="butt" stroke-linejoin="miter" stroke="rgb(100%, 100%, 100%)" stroke-opacity="1" stroke-miterlimit="10" d="M 130.734375 155.863281 L 203.09375 155.863281 L 203.09375 122.351562 L 130.734375 122.351562 Z M 130.734375 155.863281 "/>
<path fill-rule="nonzero" fill="rgb(32.54902%, 41.176471%, 51.764706%)" fill-opacity="1" stroke-width="1.707165" stroke-linecap="butt" stroke-linejoin="miter" stroke="rgb(100%, 100%, 100%)" stroke-opacity="1" stroke-miterlimit="10" d="M 130.734375 192.289062 L 203.09375 192.289062 L 203.09375 158.777344 L 130.734375 158.777344 Z M 130.734375 192.289062 "/>
<path fill-rule="nonzero" fill="rgb(19.607843%, 30.196078%, 41.960784%)" fill-opacity="1" stroke-width="1.707165" stroke-linecap="butt" stroke-linejoin="miter" stroke="rgb(100%, 100%, 100%)" stroke-opacity="1" stroke-miterlimit="10" d="M 130.734375 83.007812 L 203.09375 83.007812 L 203.09375 49.496094 L 130.734375 49.496094 Z M 130.734375 83.007812 "/>
<path fill-rule="nonzero" fill="rgb(41.568627%, 49.019608%, 58.431373%)" fill-opacity="1" stroke-width="1.707165" stroke-linecap="butt" stroke-linejoin="miter" stroke="rgb(100%, 100%, 100%)" stroke-opacity="1" stroke-miterlimit="10" d="M 130.734375 265.144531 L 203.09375 265.144531 L 203.09375 231.632812 L 130.734375 231.632812 Z M 130.734375 265.144531 "/>
<path fill-rule="nonzero" fill="rgb(40.784314%, 48.235294%, 58.039216%)" fill-opacity="1" stroke-width="1.707165" stroke-linecap="butt" stroke-linejoin="miter" stroke="rgb(100%, 100%, 100%)" stroke-opacity="1" stroke-miterlimit="10" d="M 130.734375 228.714844 L 203.09375 228.714844 L 203.09375 195.203125 L 130.734375 195.203125 Z M 130.734375 228.714844 "/>
<path fill-rule="nonzero" fill="rgb(74.509804%, 78.823529%, 84.313725%)" fill-opacity="1" stroke-width="1.707165" stroke-linecap="butt" stroke-linejoin="miter" stroke="rgb(100%, 100%, 100%)" stroke-opacity="1" stroke-miterlimit="10" d="M 130.734375 374.425781 L 203.09375 374.425781 L 203.09375 340.914062 L 130.734375 340.914062 Z M 130.734375 374.425781 "/>
<path fill-rule="nonzero" fill="rgb(49.803922%, 56.470588%, 65.098039%)" fill-opacity="1" stroke-width="1.707165" stroke-linecap="butt" stroke-linejoin="miter" stroke="rgb(100%, 100%, 100%)" stroke-opacity="1" stroke-miterlimit="10" d="M 130.734375 301.570312 L 203.09375 301.570312 L 203.09375 268.058594 L 130.734375 268.058594 Z M 130.734375 301.570312 "/>
<path fill-rule="nonzero" fill="rgb(18.823529%, 29.803922%, 41.568627%)" fill-opacity="1" stroke-width="1.707165" stroke-linecap="butt" stroke-linejoin="miter" stroke="rgb(100%, 100%, 100%)" stroke-opacity="1" stroke-miterlimit="10" d="M 130.734375 46.582031 L 203.09375 46.582031 L 203.09375 13.070312 L 130.734375 13.070312 Z M 130.734375 46.582031 "/>
<path fill-rule="nonzero" fill="rgb(73.333333%, 77.647059%, 83.137255%)" fill-opacity="1" stroke-width="1.707165" stroke-linecap="butt" stroke-linejoin="miter" stroke="rgb(100%, 100%, 100%)" stroke-opacity="1" stroke-miterlimit="10" d="M 130.734375 337.996094 L 203.09375 337.996094 L 203.09375 304.484375 L 130.734375 304.484375 Z M 130.734375 337.996094 "/>
<path fill-rule="nonzero" fill="rgb(28.235294%, 37.254902%, 48.235294%)" fill-opacity="1" stroke-width="1.707165" stroke-linecap="butt" stroke-linejoin="miter" stroke="rgb(100%, 100%, 100%)" stroke-opacity="1" stroke-miterlimit="10" d="M 366.695312 119.4375 L 439.054688 119.4375 L 439.054688 85.925781 L 366.695312 85.925781 Z M 366.695312 119.4375 "/>
<path fill-rule="nonzero" fill="rgb(38.039216%, 45.882353%, 55.686275%)" fill-opacity="1" stroke-width="1.707165" stroke-linecap="butt" stroke-linejoin="miter" stroke="rgb(100%, 100%, 100%)" stroke-opacity="1" stroke-miterlimit="10" d="M 366.695312 155.863281 L 439.054688 155.863281 L 439.054688 122.351562 L 366.695312 122.351562 Z M 366.695312 155.863281 "/>
<path fill-rule="nonzero" fill="rgb(46.666667%, 53.72549%, 62.352941%)" fill-opacity="1" stroke-width="1.707165" stroke-linecap="butt" stroke-linejoin="miter" stroke="rgb(100%, 100%, 100%)" stroke-opacity="1" stroke-miterlimit="10" d="M 366.695312 192.289062 L 439.054688 192.289062 L 439.054688 158.777344 L 366.695312 158.777344 Z M 366.695312 192.289062 "/>
<path fill-rule="nonzero" fill="rgb(34.901961%, 43.137255%, 53.333333%)" fill-opacity="1" stroke-width="1.707165" stroke-linecap="butt" stroke-linejoin="miter" stroke="rgb(100%, 100%, 100%)" stroke-opacity="1" stroke-miterlimit="10" d="M 366.695312 83.007812 L 439.054688 83.007812 L 439.054688 49.496094 L 366.695312 49.496094 Z M 366.695312 83.007812 "/>
<path fill-rule="nonzero" fill="rgb(57.647059%, 63.529412%, 70.980392%)" fill-opacity="1" stroke-width="1.707165" stroke-linecap="butt" stroke-linejoin="miter" stroke="rgb(100%, 100%, 100%)" stroke-opacity="1" stroke-miterlimit="10" d="M 366.695312 265.144531 L 439.054688 265.144531 L 439.054688 231.632812 L 366.695312 231.632812 Z M 366.695312 265.144531 "/>
<path fill-rule="nonzero" fill="rgb(54.509804%, 60.784314%, 68.627451%)" fill-opacity="1" stroke-width="1.707165" stroke-linecap="butt" stroke-linejoin="miter" stroke="rgb(100%, 100%, 100%)" stroke-opacity="1" stroke-miterlimit="10" d="M 366.695312 228.714844 L 439.054688 228.714844 L 439.054688 195.203125 L 366.695312 195.203125 Z M 366.695312 228.714844 "/>
<path fill-rule="nonzero" fill="rgb(75.294118%, 79.607843%, 84.705882%)" fill-opacity="1" stroke-width="1.707165" stroke-linecap="butt" stroke-linejoin="miter" stroke="rgb(100%, 100%, 100%)" stroke-opacity="1" stroke-miterlimit="10" d="M 366.695312 374.425781 L 439.054688 374.425781 L 439.054688 340.914062 L 366.695312 340.914062 Z M 366.695312 374.425781 "/>
<path fill-rule="nonzero" fill="rgb(38.823529%, 46.666667%, 56.470588%)" fill-opacity="1" stroke-width="1.707165" stroke-linecap="butt" stroke-linejoin="miter" stroke="rgb(100%, 100%, 100%)" stroke-opacity="1" stroke-miterlimit="10" d="M 366.695312 301.570312 L 439.054688 301.570312 L 439.054688 268.058594 L 366.695312 268.058594 Z M 366.695312 301.570312 "/>
<path fill-rule="nonzero" fill="rgb(25.882353%, 35.686275%, 46.666667%)" fill-opacity="1" stroke-width="1.707165" stroke-linecap="butt" stroke-linejoin="miter" stroke="rgb(100%, 100%, 100%)" stroke-opacity="1" stroke-miterlimit="10" d="M 366.695312 46.582031 L 439.054688 46.582031 L 439.054688 13.070312 L 366.695312 13.070312 Z M 366.695312 46.582031 "/>
<path fill-rule="nonzero" fill="rgb(58.823529%, 64.705882%, 71.764706%)" fill-opacity="1" stroke-width="1.707165" stroke-linecap="butt" stroke-linejoin="miter" stroke="rgb(100%, 100%, 100%)" stroke-opacity="1" stroke-miterlimit="10" d="M 366.695312 337.996094 L 439.054688 337.996094 L 439.054688 304.484375 L 366.695312 304.484375 Z M 366.695312 337.996094 "/>
<path fill-rule="nonzero" fill="rgb(8.627451%, 22.745098%, 34.901961%)" fill-opacity="1" stroke-width="1.707165" stroke-linecap="butt" stroke-linejoin="miter" stroke="rgb(100%, 100%, 100%)" stroke-opacity="1" stroke-miterlimit="10" d="M 209.386719 119.4375 L 281.746094 119.4375 L 281.746094 85.925781 L 209.386719 85.925781 Z M 209.386719 119.4375 "/>
<path fill-rule="nonzero" fill="rgb(26.27451%, 35.686275%, 46.666667%)" fill-opacity="1" stroke-width="1.707165" stroke-linecap="butt" stroke-linejoin="miter" stroke="rgb(100%, 100%, 100%)" stroke-opacity="1" stroke-miterlimit="10" d="M 209.386719 155.863281 L 281.746094 155.863281 L 281.746094 122.351562 L 209.386719 122.351562 Z M 209.386719 155.863281 "/>
<path fill-rule="nonzero" fill="rgb(30.196078%, 39.215686%, 49.803922%)" fill-opacity="1" stroke-width="1.707165" stroke-linecap="butt" stroke-linejoin="miter" stroke="rgb(100%, 100%, 100%)" stroke-opacity="1" stroke-miterlimit="10" d="M 209.386719 192.289062 L 281.746094 192.289062 L 281.746094 158.777344 L 209.386719 158.777344 Z M 209.386719 192.289062 "/>
<path fill-rule="nonzero" fill="rgb(25.098039%, 34.901961%, 45.882353%)" fill-opacity="1" stroke-width="1.707165" stroke-linecap="butt" stroke-linejoin="miter" stroke="rgb(100%, 100%, 100%)" stroke-opacity="1" stroke-miterlimit="10" d="M 209.386719 83.007812 L 281.746094 83.007812 L 281.746094 49.496094 L 209.386719 49.496094 Z M 209.386719 83.007812 "/>
<path fill-rule="nonzero" fill="rgb(24.705882%, 34.509804%, 45.490196%)" fill-opacity="1" stroke-width="1.707165" stroke-linecap="butt" stroke-linejoin="miter" stroke="rgb(100%, 100%, 100%)" stroke-opacity="1" stroke-miterlimit="10" d="M 209.386719 265.144531 L 281.746094 265.144531 L 281.746094 231.632812 L 209.386719 231.632812 Z M 209.386719 265.144531 "/>
<path fill-rule="nonzero" fill="rgb(25.490196%, 35.294118%, 46.27451%)" fill-opacity="1" stroke-width="1.707165" stroke-linecap="butt" stroke-linejoin="miter" stroke="rgb(100%, 100%, 100%)" stroke-opacity="1" stroke-miterlimit="10" d="M 209.386719 228.714844 L 281.746094 228.714844 L 281.746094 195.203125 L 209.386719 195.203125 Z M 209.386719 228.714844 "/>
<path fill-rule="nonzero" fill="rgb(78.431373%, 82.745098%, 87.45098%)" fill-opacity="1" stroke-width="1.707165" stroke-linecap="butt" stroke-linejoin="miter" stroke="rgb(100%, 100%, 100%)" stroke-opacity="1" stroke-miterlimit="10" d="M 209.386719 374.425781 L 281.746094 374.425781 L 281.746094 340.914062 L 209.386719 340.914062 Z M 209.386719 374.425781 "/>
<path fill-rule="nonzero" fill="rgb(40.392157%, 47.843137%, 57.647059%)" fill-opacity="1" stroke-width="1.707165" stroke-linecap="butt" stroke-linejoin="miter" stroke="rgb(100%, 100%, 100%)" stroke-opacity="1" stroke-miterlimit="10" d="M 209.386719 301.570312 L 281.746094 301.570312 L 281.746094 268.058594 L 209.386719 268.058594 Z M 209.386719 301.570312 "/>
<path fill-rule="nonzero" fill="rgb(10.196078%, 23.921569%, 35.686275%)" fill-opacity="1" stroke-width="1.707165" stroke-linecap="butt" stroke-linejoin="miter" stroke="rgb(100%, 100%, 100%)" stroke-opacity="1" stroke-miterlimit="10" d="M 209.386719 46.582031 L 281.746094 46.582031 L 281.746094 13.070312 L 209.386719 13.070312 Z M 209.386719 46.582031 "/>
<path fill-rule="nonzero" fill="rgb(69.019608%, 73.72549%, 80%)" fill-opacity="1" stroke-width="1.707165" stroke-linecap="butt" stroke-linejoin="miter" stroke="rgb(100%, 100%, 100%)" stroke-opacity="1" stroke-miterlimit="10" d="M 209.386719 337.996094 L 281.746094 337.996094 L 281.746094 304.484375 L 209.386719 304.484375 Z M 209.386719 337.996094 "/>
<path fill-rule="nonzero" fill="rgb(32.941176%, 41.568627%, 51.764706%)" fill-opacity="1" stroke-width="1.707165" stroke-linecap="butt" stroke-linejoin="miter" stroke="rgb(100%, 100%, 100%)" stroke-opacity="1" stroke-miterlimit="10" d="M 288.039062 119.4375 L 360.398438 119.4375 L 360.398438 85.925781 L 288.039062 85.925781 Z M 288.039062 119.4375 "/>
<path fill-rule="nonzero" fill="rgb(31.372549%, 40%, 50.588235%)" fill-opacity="1" stroke-width="1.707165" stroke-linecap="butt" stroke-linejoin="miter" stroke="rgb(100%, 100%, 100%)" stroke-opacity="1" stroke-miterlimit="10" d="M 288.039062 155.863281 L 360.398438 155.863281 L 360.398438 122.351562 L 288.039062 122.351562 Z M 288.039062 155.863281 "/>
<path fill-rule="nonzero" fill="rgb(34.117647%, 42.352941%, 52.54902%)" fill-opacity="1" stroke-width="1.707165" stroke-linecap="butt" stroke-linejoin="miter" stroke="rgb(100%, 100%, 100%)" stroke-opacity="1" stroke-miterlimit="10" d="M 288.039062 192.289062 L 360.398438 192.289062 L 360.398438 158.777344 L 288.039062 158.777344 Z M 288.039062 192.289062 "/>
<path fill-rule="nonzero" fill="rgb(10.980392%, 23.921569%, 36.078431%)" fill-opacity="1" stroke-width="1.707165" stroke-linecap="butt" stroke-linejoin="miter" stroke="rgb(100%, 100%, 100%)" stroke-opacity="1" stroke-miterlimit="10" d="M 288.039062 83.007812 L 360.398438 83.007812 L 360.398438 49.496094 L 288.039062 49.496094 Z M 288.039062 83.007812 "/>
<path fill-rule="nonzero" fill="rgb(58.431373%, 64.313725%, 71.764706%)" fill-opacity="1" stroke-width="1.707165" stroke-linecap="butt" stroke-linejoin="miter" stroke="rgb(100%, 100%, 100%)" stroke-opacity="1" stroke-miterlimit="10" d="M 288.039062 265.144531 L 360.398438 265.144531 L 360.398438 231.632812 L 288.039062 231.632812 Z M 288.039062 265.144531 "/>
<path fill-rule="nonzero" fill="rgb(56.078431%, 62.352941%, 69.803922%)" fill-opacity="1" stroke-width="1.707165" stroke-linecap="butt" stroke-linejoin="miter" stroke="rgb(100%, 100%, 100%)" stroke-opacity="1" stroke-miterlimit="10" d="M 288.039062 228.714844 L 360.398438 228.714844 L 360.398438 195.203125 L 288.039062 195.203125 Z M 288.039062 228.714844 "/>
<path fill-rule="nonzero" fill="rgb(70.196078%, 74.901961%, 80.784314%)" fill-opacity="1" stroke-width="1.707165" stroke-linecap="butt" stroke-linejoin="miter" stroke="rgb(100%, 100%, 100%)" stroke-opacity="1" stroke-miterlimit="10" d="M 288.039062 374.425781 L 360.398438 374.425781 L 360.398438 340.914062 L 288.039062 340.914062 Z M 288.039062 374.425781 "/>
<path fill-rule="nonzero" fill="rgb(61.568627%, 67.058824%, 74.117647%)" fill-opacity="1" stroke-width="1.707165" stroke-linecap="butt" stroke-linejoin="miter" stroke="rgb(100%, 100%, 100%)" stroke-opacity="1" stroke-miterlimit="10" d="M 288.039062 301.570312 L 360.398438 301.570312 L 360.398438 268.058594 L 288.039062 268.058594 Z M 288.039062 301.570312 "/>
<path fill-rule="nonzero" fill="rgb(26.666667%, 36.078431%, 47.058824%)" fill-opacity="1" stroke-width="1.707165" stroke-linecap="butt" stroke-linejoin="miter" stroke="rgb(100%, 100%, 100%)" stroke-opacity="1" stroke-miterlimit="10" d="M 288.039062 46.582031 L 360.398438 46.582031 L 360.398438 13.070312 L 288.039062 13.070312 Z M 288.039062 46.582031 "/>
<path fill-rule="nonzero" fill="rgb(79.607843%, 83.529412%, 88.235294%)" fill-opacity="1" stroke-width="1.707165" stroke-linecap="butt" stroke-linejoin="miter" stroke="rgb(100%, 100%, 100%)" stroke-opacity="1" stroke-miterlimit="10" d="M 288.039062 337.996094 L 360.398438 337.996094 L 360.398438 304.484375 L 288.039062 304.484375 Z M 288.039062 337.996094 "/>
<g fill="rgb(100%, 100%, 100%)" fill-opacity="1">
<use xlink:href="#glyph-0-0" x="149.972656" y="107.457031"/>
<use xlink:href="#glyph-0-1" x="156.618764" y="107.457031"/>
<use xlink:href="#glyph-0-2" x="163.264872" y="107.457031"/>
<use xlink:href="#glyph-0-3" x="166.585009" y="107.457031"/>
<use xlink:href="#glyph-0-4" x="173.231117" y="107.457031"/>
</g>
<g fill="rgb(100%, 100%, 100%)" fill-opacity="1">
<use xlink:href="#glyph-0-5" x="149.972656" y="143.882812"/>
<use xlink:href="#glyph-0-5" x="156.618764" y="143.882812"/>
<use xlink:href="#glyph-0-2" x="163.264872" y="143.882812"/>
<use xlink:href="#glyph-0-5" x="166.585009" y="143.882812"/>
<use xlink:href="#glyph-0-4" x="173.231117" y="143.882812"/>
</g>
<g fill="rgb(100%, 100%, 100%)" fill-opacity="1">
<use xlink:href="#glyph-0-5" x="149.972656" y="180.308594"/>
<use xlink:href="#glyph-0-1" x="156.618764" y="180.308594"/>
<use xlink:href="#glyph-0-2" x="163.264872" y="180.308594"/>
<use xlink:href="#glyph-0-6" x="166.585009" y="180.308594"/>
<use xlink:href="#glyph-0-4" x="173.231117" y="180.308594"/>
</g>
<g fill="rgb(100%, 100%, 100%)" fill-opacity="1">
<use xlink:href="#glyph-0-0" x="149.972656" y="71.03125"/>
<use xlink:href="#glyph-0-7" x="156.618764" y="71.03125"/>
<use xlink:href="#glyph-0-2" x="163.264872" y="71.03125"/>
<use xlink:href="#glyph-0-7" x="166.585009" y="71.03125"/>
<use xlink:href="#glyph-0-4" x="173.231117" y="71.03125"/>
</g>
<g fill="rgb(100%, 100%, 100%)" fill-opacity="1">
<use xlink:href="#glyph-0-7" x="149.972656" y="253.164062"/>
<use xlink:href="#glyph-0-8" x="156.618764" y="253.164062"/>
<use xlink:href="#glyph-0-2" x="163.264872" y="253.164062"/>
<use xlink:href="#glyph-0-9" x="166.585009" y="253.164062"/>
<use xlink:href="#glyph-0-4" x="173.231117" y="253.164062"/>
</g>
<g fill="rgb(100%, 100%, 100%)" fill-opacity="1">
<use xlink:href="#glyph-0-7" x="149.972656" y="216.738281"/>
<use xlink:href="#glyph-0-7" x="156.618764" y="216.738281"/>
<use xlink:href="#glyph-0-2" x="163.264872" y="216.738281"/>
<use xlink:href="#glyph-0-5" x="166.585009" y="216.738281"/>
<use xlink:href="#glyph-0-4" x="173.231117" y="216.738281"/>
</g>
<g fill="rgb(8.627451%, 22.745098%, 34.901961%)" fill-opacity="1">
<use xlink:href="#glyph-0-6" x="149.972656" y="362.445312"/>
<use xlink:href="#glyph-0-8" x="156.618764" y="362.445312"/>
<use xlink:href="#glyph-0-2" x="163.264872" y="362.445312"/>
<use xlink:href="#glyph-0-9" x="166.585009" y="362.445312"/>
<use xlink:href="#glyph-0-4" x="173.231117" y="362.445312"/>
</g>
<g fill="rgb(8.627451%, 22.745098%, 34.901961%)" fill-opacity="1">
<use xlink:href="#glyph-0-8" x="149.972656" y="289.589844"/>
<use xlink:href="#glyph-0-0" x="156.618764" y="289.589844"/>
<use xlink:href="#glyph-0-2" x="163.264872" y="289.589844"/>
<use xlink:href="#glyph-0-1" x="166.585009" y="289.589844"/>
<use xlink:href="#glyph-0-4" x="173.231117" y="289.589844"/>
</g>
<g fill="rgb(100%, 100%, 100%)" fill-opacity="1">
<use xlink:href="#glyph-0-0" x="149.972656" y="34.601562"/>
<use xlink:href="#glyph-0-7" x="156.618764" y="34.601562"/>
<use xlink:href="#glyph-0-2" x="163.264872" y="34.601562"/>
<use xlink:href="#glyph-0-9" x="166.585009" y="34.601562"/>
<use xlink:href="#glyph-0-4" x="173.231117" y="34.601562"/>
</g>
<g fill="rgb(8.627451%, 22.745098%, 34.901961%)" fill-opacity="1">
<use xlink:href="#glyph-0-6" x="149.972656" y="326.019531"/>
<use xlink:href="#glyph-0-5" x="156.618764" y="326.019531"/>
<use xlink:href="#glyph-0-2" x="163.264872" y="326.019531"/>
<use xlink:href="#glyph-0-10" x="166.585009" y="326.019531"/>
<use xlink:href="#glyph-0-4" x="173.231117" y="326.019531"/>
</g>
<g fill="rgb(100%, 100%, 100%)" fill-opacity="1">
<use xlink:href="#glyph-0-5" x="385.933594" y="107.457031"/>
<use xlink:href="#glyph-0-0" x="392.579702" y="107.457031"/>
<use xlink:href="#glyph-0-2" x="399.22581" y="107.457031"/>
<use xlink:href="#glyph-0-5" x="402.545946" y="107.457031"/>
<use xlink:href="#glyph-0-4" x="409.192055" y="107.457031"/>
</g>
<g fill="rgb(100%, 100%, 100%)" fill-opacity="1">
<use xlink:href="#glyph-0-7" x="385.933594" y="143.882812"/>
<use xlink:href="#glyph-0-11" x="392.579702" y="143.882812"/>
<use xlink:href="#glyph-0-2" x="399.22581" y="143.882812"/>
<use xlink:href="#glyph-0-6" x="402.545946" y="143.882812"/>
<use xlink:href="#glyph-0-4" x="409.192055" y="143.882812"/>
</g>
<g fill="rgb(8.627451%, 22.745098%, 34.901961%)" fill-opacity="1">
<use xlink:href="#glyph-0-8" x="385.933594" y="180.308594"/>
<use xlink:href="#glyph-0-9" x="392.579702" y="180.308594"/>
<use xlink:href="#glyph-0-2" x="399.22581" y="180.308594"/>
<use xlink:href="#glyph-0-6" x="402.545946" y="180.308594"/>
<use xlink:href="#glyph-0-4" x="409.192055" y="180.308594"/>
</g>
<g fill="rgb(100%, 100%, 100%)" fill-opacity="1">
<use xlink:href="#glyph-0-5" x="385.933594" y="71.03125"/>
<use xlink:href="#glyph-0-10" x="392.579702" y="71.03125"/>
<use xlink:href="#glyph-0-2" x="399.22581" y="71.03125"/>
<use xlink:href="#glyph-0-10" x="402.545946" y="71.03125"/>
<use xlink:href="#glyph-0-4" x="409.192055" y="71.03125"/>
</g>
<g fill="rgb(8.627451%, 22.745098%, 34.901961%)" fill-opacity="1">
<use xlink:href="#glyph-0-1" x="385.933594" y="253.164062"/>
<use xlink:href="#glyph-0-9" x="392.579702" y="253.164062"/>
<use xlink:href="#glyph-0-2" x="399.22581" y="253.164062"/>
<use xlink:href="#glyph-0-6" x="402.545946" y="253.164062"/>
<use xlink:href="#glyph-0-4" x="409.192055" y="253.164062"/>
</g>
<g fill="rgb(8.627451%, 22.745098%, 34.901961%)" fill-opacity="1">
<use xlink:href="#glyph-0-8" x="385.933594" y="216.738281"/>
<use xlink:href="#glyph-0-6" x="392.579702" y="216.738281"/>
<use xlink:href="#glyph-0-2" x="399.22581" y="216.738281"/>
<use xlink:href="#glyph-0-9" x="402.545946" y="216.738281"/>
<use xlink:href="#glyph-0-4" x="409.192055" y="216.738281"/>
</g>
<g fill="rgb(8.627451%, 22.745098%, 34.901961%)" fill-opacity="1">
<use xlink:href="#glyph-0-6" x="385.933594" y="362.445312"/>
<use xlink:href="#glyph-0-8" x="392.579702" y="362.445312"/>
<use xlink:href="#glyph-0-2" x="399.22581" y="362.445312"/>
<use xlink:href="#glyph-0-1" x="402.545946" y="362.445312"/>
<use xlink:href="#glyph-0-4" x="409.192055" y="362.445312"/>
</g>
<g fill="rgb(100%, 100%, 100%)" fill-opacity="1">
<use xlink:href="#glyph-0-7" x="385.933594" y="289.589844"/>
<use xlink:href="#glyph-0-0" x="392.579702" y="289.589844"/>
<use xlink:href="#glyph-0-2" x="399.22581" y="289.589844"/>
<use xlink:href="#glyph-0-7" x="402.545946" y="289.589844"/>
<use xlink:href="#glyph-0-4" x="409.192055" y="289.589844"/>
</g>
<g fill="rgb(100%, 100%, 100%)" fill-opacity="1">
<use xlink:href="#glyph-0-5" x="385.933594" y="34.601562"/>
<use xlink:href="#glyph-0-3" x="392.579702" y="34.601562"/>
<use xlink:href="#glyph-0-2" x="399.22581" y="34.601562"/>
<use xlink:href="#glyph-0-5" x="402.545946" y="34.601562"/>
<use xlink:href="#glyph-0-4" x="409.192055" y="34.601562"/>
</g>
<g fill="rgb(8.627451%, 22.745098%, 34.901961%)" fill-opacity="1">
<use xlink:href="#glyph-0-1" x="385.933594" y="326.019531"/>
<use xlink:href="#glyph-0-3" x="392.579702" y="326.019531"/>
<use xlink:href="#glyph-0-2" x="399.22581" y="326.019531"/>
<use xlink:href="#glyph-0-10" x="402.545946" y="326.019531"/>
<use xlink:href="#glyph-0-4" x="409.192055" y="326.019531"/>
</g>
<g fill="rgb(100%, 100%, 100%)" fill-opacity="1">
<use xlink:href="#glyph-0-11" x="228.625" y="107.457031"/>
<use xlink:href="#glyph-0-8" x="235.271108" y="107.457031"/>
<use xlink:href="#glyph-0-2" x="241.917216" y="107.457031"/>
<use xlink:href="#glyph-0-7" x="245.237353" y="107.457031"/>
<use xlink:href="#glyph-0-4" x="251.883461" y="107.457031"/>
</g>
<g fill="rgb(100%, 100%, 100%)" fill-opacity="1">
<use xlink:href="#glyph-0-5" x="228.625" y="143.882812"/>
<use xlink:href="#glyph-0-3" x="235.271108" y="143.882812"/>
<use xlink:href="#glyph-0-2" x="241.917216" y="143.882812"/>
<use xlink:href="#glyph-0-1" x="245.237353" y="143.882812"/>
<use xlink:href="#glyph-0-4" x="251.883461" y="143.882812"/>
</g>
<g fill="rgb(100%, 100%, 100%)" fill-opacity="1">
<use xlink:href="#glyph-0-5" x="228.625" y="180.308594"/>
<use xlink:href="#glyph-0-7" x="235.271108" y="180.308594"/>
<use xlink:href="#glyph-0-2" x="241.917216" y="180.308594"/>
<use xlink:href="#glyph-0-5" x="245.237353" y="180.308594"/>
<use xlink:href="#glyph-0-4" x="251.883461" y="180.308594"/>
</g>
<g fill="rgb(100%, 100%, 100%)" fill-opacity="1">
<use xlink:href="#glyph-0-5" x="228.625" y="71.03125"/>
<use xlink:href="#glyph-0-9" x="235.271108" y="71.03125"/>
<use xlink:href="#glyph-0-2" x="241.917216" y="71.03125"/>
<use xlink:href="#glyph-0-6" x="245.237353" y="71.03125"/>
<use xlink:href="#glyph-0-4" x="251.883461" y="71.03125"/>
</g>
<g fill="rgb(100%, 100%, 100%)" fill-opacity="1">
<use xlink:href="#glyph-0-5" x="228.625" y="253.164062"/>
<use xlink:href="#glyph-0-9" x="235.271108" y="253.164062"/>
<use xlink:href="#glyph-0-2" x="241.917216" y="253.164062"/>
<use xlink:href="#glyph-0-0" x="245.237353" y="253.164062"/>
<use xlink:href="#glyph-0-4" x="251.883461" y="253.164062"/>
</g>
<g fill="rgb(100%, 100%, 100%)" fill-opacity="1">
<use xlink:href="#glyph-0-5" x="228.625" y="216.738281"/>
<use xlink:href="#glyph-0-3" x="235.271108" y="216.738281"/>
<use xlink:href="#glyph-0-2" x="241.917216" y="216.738281"/>
<use xlink:href="#glyph-0-9" x="245.237353" y="216.738281"/>
<use xlink:href="#glyph-0-4" x="251.883461" y="216.738281"/>
</g>
<g fill="rgb(8.627451%, 22.745098%, 34.901961%)" fill-opacity="1">
<use xlink:href="#glyph-0-6" x="228.625" y="362.445312"/>
<use xlink:href="#glyph-0-10" x="235.271108" y="362.445312"/>
<use xlink:href="#glyph-0-2" x="241.917216" y="362.445312"/>
<use xlink:href="#glyph-0-8" x="245.237353" y="362.445312"/>
<use xlink:href="#glyph-0-4" x="251.883461" y="362.445312"/>
</g>
<g fill="rgb(100%, 100%, 100%)" fill-opacity="1">
<use xlink:href="#glyph-0-7" x="228.625" y="289.589844"/>
<use xlink:href="#glyph-0-5" x="235.271108" y="289.589844"/>
<use xlink:href="#glyph-0-2" x="241.917216" y="289.589844"/>
<use xlink:href="#glyph-0-6" x="245.237353" y="289.589844"/>
<use xlink:href="#glyph-0-4" x="251.883461" y="289.589844"/>
</g>
<g fill="rgb(100%, 100%, 100%)" fill-opacity="1">
<use xlink:href="#glyph-0-11" x="228.625" y="34.601562"/>
<use xlink:href="#glyph-0-1" x="235.271108" y="34.601562"/>
<use xlink:href="#glyph-0-2" x="241.917216" y="34.601562"/>
<use xlink:href="#glyph-0-6" x="245.237353" y="34.601562"/>
<use xlink:href="#glyph-0-4" x="251.883461" y="34.601562"/>
</g>
<g fill="rgb(8.627451%, 22.745098%, 34.901961%)" fill-opacity="1">
<use xlink:href="#glyph-0-6" x="228.625" y="326.019531"/>
<use xlink:href="#glyph-0-3" x="235.271108" y="326.019531"/>
<use xlink:href="#glyph-0-2" x="241.917216" y="326.019531"/>
<use xlink:href="#glyph-0-11" x="245.237353" y="326.019531"/>
<use xlink:href="#glyph-0-4" x="251.883461" y="326.019531"/>
</g>
<g fill="rgb(100%, 100%, 100%)" fill-opacity="1">
<use xlink:href="#glyph-0-5" x="307.28125" y="107.457031"/>
<use xlink:href="#glyph-0-1" x="313.927358" y="107.457031"/>
<use xlink:href="#glyph-0-2" x="320.573466" y="107.457031"/>
<use xlink:href="#glyph-0-10" x="323.893603" y="107.457031"/>
<use xlink:href="#glyph-0-4" x="330.539711" y="107.457031"/>
</g>
<g fill="rgb(100%, 100%, 100%)" fill-opacity="1">
<use xlink:href="#glyph-0-5" x="307.28125" y="143.882812"/>
<use xlink:href="#glyph-0-8" x="313.927358" y="143.882812"/>
<use xlink:href="#glyph-0-2" x="320.573466" y="143.882812"/>
<use xlink:href="#glyph-0-5" x="323.893603" y="143.882812"/>
<use xlink:href="#glyph-0-4" x="330.539711" y="143.882812"/>
</g>
<g fill="rgb(100%, 100%, 100%)" fill-opacity="1">
<use xlink:href="#glyph-0-5" x="307.28125" y="180.308594"/>
<use xlink:href="#glyph-0-6" x="313.927358" y="180.308594"/>
<use xlink:href="#glyph-0-2" x="320.573466" y="180.308594"/>
<use xlink:href="#glyph-0-10" x="323.893603" y="180.308594"/>
<use xlink:href="#glyph-0-4" x="330.539711" y="180.308594"/>
</g>
<g fill="rgb(100%, 100%, 100%)" fill-opacity="1">
<use xlink:href="#glyph-0-11" x="307.28125" y="71.03125"/>
<use xlink:href="#glyph-0-6" x="313.927358" y="71.03125"/>
<use xlink:href="#glyph-0-2" x="320.573466" y="71.03125"/>
<use xlink:href="#glyph-0-11" x="323.893603" y="71.03125"/>
<use xlink:href="#glyph-0-4" x="330.539711" y="71.03125"/>
</g>
<g fill="rgb(8.627451%, 22.745098%, 34.901961%)" fill-opacity="1">
<use xlink:href="#glyph-0-1" x="307.28125" y="253.164062"/>
<use xlink:href="#glyph-0-3" x="313.927358" y="253.164062"/>
<use xlink:href="#glyph-0-2" x="320.573466" y="253.164062"/>
<use xlink:href="#glyph-0-8" x="323.893603" y="253.164062"/>
<use xlink:href="#glyph-0-4" x="330.539711" y="253.164062"/>
</g>
<g fill="rgb(8.627451%, 22.745098%, 34.901961%)" fill-opacity="1">
<use xlink:href="#glyph-0-8" x="307.28125" y="216.738281"/>
<use xlink:href="#glyph-0-10" x="313.927358" y="216.738281"/>
<use xlink:href="#glyph-0-2" x="320.573466" y="216.738281"/>
<use xlink:href="#glyph-0-8" x="323.893603" y="216.738281"/>
<use xlink:href="#glyph-0-4" x="330.539711" y="216.738281"/>
</g>
<g fill="rgb(8.627451%, 22.745098%, 34.901961%)" fill-opacity="1">
<use xlink:href="#glyph-0-6" x="307.28125" y="362.445312"/>
<use xlink:href="#glyph-0-11" x="313.927358" y="362.445312"/>
<use xlink:href="#glyph-0-2" x="320.573466" y="362.445312"/>
<use xlink:href="#glyph-0-3" x="323.893603" y="362.445312"/>
<use xlink:href="#glyph-0-4" x="330.539711" y="362.445312"/>
</g>
<g fill="rgb(8.627451%, 22.745098%, 34.901961%)" fill-opacity="1">
<use xlink:href="#glyph-0-1" x="307.28125" y="289.589844"/>
<use xlink:href="#glyph-0-5" x="313.927358" y="289.589844"/>
<use xlink:href="#glyph-0-2" x="320.573466" y="289.589844"/>
<use xlink:href="#glyph-0-8" x="323.893603" y="289.589844"/>
<use xlink:href="#glyph-0-4" x="330.539711" y="289.589844"/>
</g>
<g fill="rgb(100%, 100%, 100%)" fill-opacity="1">
<use xlink:href="#glyph-0-5" x="307.28125" y="34.601562"/>
<use xlink:href="#glyph-0-11" x="313.927358" y="34.601562"/>
<use xlink:href="#glyph-0-2" x="320.573466" y="34.601562"/>
<use xlink:href="#glyph-0-3" x="323.893603" y="34.601562"/>
<use xlink:href="#glyph-0-4" x="330.539711" y="34.601562"/>
</g>
<g fill="rgb(8.627451%, 22.745098%, 34.901961%)" fill-opacity="1">
<use xlink:href="#glyph-0-9" x="310.605469" y="326.019531"/>
<use xlink:href="#glyph-0-2" x="317.251577" y="326.019531"/>
<use xlink:href="#glyph-0-7" x="320.571713" y="326.019531"/>
<use xlink:href="#glyph-0-4" x="327.217821" y="326.019531"/>
</g>
<g fill="rgb(20%, 20%, 20%)" fill-opacity="1">
<use xlink:href="#glyph-1-0" x="32.613281" y="362.460938"/>
<use xlink:href="#glyph-1-1" x="40.617188" y="362.460938"/>
<use xlink:href="#glyph-1-2" x="43.283203" y="362.460938"/>
<use xlink:href="#glyph-1-3" x="49.957031" y="362.460938"/>
<use xlink:href="#glyph-1-4" x="53.291016" y="362.460938"/>
<use xlink:href="#glyph-1-5" x="59.964844" y="362.460938"/>
<use xlink:href="#glyph-1-6" x="66.638672" y="362.460938"/>
<use xlink:href="#glyph-1-7" x="73.3125" y="362.460938"/>
<use xlink:href="#glyph-1-8" x="76.646484" y="362.460938"/>
<use xlink:href="#glyph-1-4" x="86.642578" y="362.460938"/>
<use xlink:href="#glyph-1-9" x="93.316406" y="362.460938"/>
<use xlink:href="#glyph-1-10" x="99.990234" y="362.460938"/>
<use xlink:href="#glyph-1-11" x="106.664062" y="362.460938"/>
<use xlink:href="#glyph-1-6" x="110.660156" y="362.460938"/>
</g>
<g fill="rgb(20%, 20%, 20%)" fill-opacity="1">
<use xlink:href="#glyph-1-12" x="89.980469" y="326.035156"/>
<use xlink:href="#glyph-1-10" x="97.984375" y="326.035156"/>
<use xlink:href="#glyph-1-13" x="104.658203" y="326.035156"/>
<use xlink:href="#glyph-1-4" x="110.658203" y="326.035156"/>
</g>
<g fill="rgb(20%, 20%, 20%)" fill-opacity="1">
<use xlink:href="#glyph-1-0" x="43.28125" y="289.609375"/>
<use xlink:href="#glyph-1-1" x="51.285156" y="289.609375"/>
<use xlink:href="#glyph-1-2" x="53.951172" y="289.609375"/>
<use xlink:href="#glyph-1-3" x="60.625" y="289.609375"/>
<use xlink:href="#glyph-1-4" x="63.958984" y="289.609375"/>
<use xlink:href="#glyph-1-5" x="70.632812" y="289.609375"/>
<use xlink:href="#glyph-1-6" x="77.306641" y="289.609375"/>
<use xlink:href="#glyph-1-7" x="83.980469" y="289.609375"/>
<use xlink:href="#glyph-1-14" x="87.314453" y="289.609375"/>
<use xlink:href="#glyph-1-15" x="93.314453" y="289.609375"/>
<use xlink:href="#glyph-1-11" x="99.988281" y="289.609375"/>
<use xlink:href="#glyph-1-9" x="103.984375" y="289.609375"/>
<use xlink:href="#glyph-1-15" x="110.658203" y="289.609375"/>
</g>
<g fill="rgb(20%, 20%, 20%)" fill-opacity="1">
<use xlink:href="#glyph-1-0" x="57.285156" y="253.183594"/>
<use xlink:href="#glyph-1-4" x="65.289062" y="253.183594"/>
<use xlink:href="#glyph-1-16" x="71.962891" y="253.183594"/>
<use xlink:href="#glyph-1-4" x="78.636719" y="253.183594"/>
<use xlink:href="#glyph-1-7" x="85.310547" y="253.183594"/>
<use xlink:href="#glyph-1-13" x="88.644531" y="253.183594"/>
<use xlink:href="#glyph-1-17" x="94.644531" y="253.183594"/>
<use xlink:href="#glyph-1-6" x="101.318359" y="253.183594"/>
<use xlink:href="#glyph-1-1" x="107.992188" y="253.183594"/>
<use xlink:href="#glyph-1-4" x="110.658203" y="253.183594"/>
</g>
<g fill="rgb(20%, 20%, 20%)" fill-opacity="1">
<use xlink:href="#glyph-1-0" x="37.292969" y="216.753906"/>
<use xlink:href="#glyph-1-18" x="45.296875" y="216.753906"/>
<use xlink:href="#glyph-1-8" x="47.962891" y="216.753906"/>
<use xlink:href="#glyph-1-18" x="57.958984" y="216.753906"/>
<use xlink:href="#glyph-1-15" x="60.625" y="216.753906"/>
<use xlink:href="#glyph-1-5" x="67.298828" y="216.753906"/>
<use xlink:href="#glyph-1-3" x="73.972656" y="216.753906"/>
<use xlink:href="#glyph-1-6" x="77.306641" y="216.753906"/>
<use xlink:href="#glyph-1-7" x="83.980469" y="216.753906"/>
<use xlink:href="#glyph-1-14" x="87.314453" y="216.753906"/>
<use xlink:href="#glyph-1-15" x="93.314453" y="216.753906"/>
<use xlink:href="#glyph-1-11" x="99.988281" y="216.753906"/>
<use xlink:href="#glyph-1-9" x="103.984375" y="216.753906"/>
<use xlink:href="#glyph-1-15" x="110.658203" y="216.753906"/>
</g>
<g fill="rgb(20%, 20%, 20%)" fill-opacity="1">
<use xlink:href="#glyph-1-19" x="47.277344" y="180.328125"/>
<use xlink:href="#glyph-1-15" x="53.951172" y="180.328125"/>
<use xlink:href="#glyph-1-13" x="60.625" y="180.328125"/>
<use xlink:href="#glyph-1-17" x="66.625" y="180.328125"/>
<use xlink:href="#glyph-1-15" x="73.298828" y="180.328125"/>
<use xlink:href="#glyph-1-7" x="79.972656" y="180.328125"/>
<use xlink:href="#glyph-1-15" x="83.306641" y="180.328125"/>
<use xlink:href="#glyph-1-5" x="89.980469" y="180.328125"/>
<use xlink:href="#glyph-1-3" x="96.654297" y="180.328125"/>
<use xlink:href="#glyph-1-15" x="99.988281" y="180.328125"/>
<use xlink:href="#glyph-1-11" x="106.662109" y="180.328125"/>
<use xlink:href="#glyph-1-4" x="110.658203" y="180.328125"/>
</g>
<g fill="rgb(20%, 20%, 20%)" fill-opacity="1">
<use xlink:href="#glyph-1-20" x="76.644531" y="143.902344"/>
<use xlink:href="#glyph-1-10" x="85.310547" y="143.902344"/>
<use xlink:href="#glyph-1-15" x="91.984375" y="143.902344"/>
<use xlink:href="#glyph-1-14" x="98.658203" y="143.902344"/>
<use xlink:href="#glyph-1-6" x="104.658203" y="143.902344"/>
<use xlink:href="#glyph-1-21" x="111.332031" y="143.902344"/>
</g>
<g fill="rgb(20%, 20%, 20%)" fill-opacity="1">
<use xlink:href="#glyph-1-22" x="33.933594" y="107.476562"/>
<use xlink:href="#glyph-1-15" x="42.599609" y="107.476562"/>
<use xlink:href="#glyph-1-23" x="49.273438" y="107.476562"/>
<use xlink:href="#glyph-1-6" x="55.947266" y="107.476562"/>
<use xlink:href="#glyph-1-1" x="62.621094" y="107.476562"/>
<use xlink:href="#glyph-1-1" x="65.287109" y="107.476562"/>
<use xlink:href="#glyph-1-4" x="67.953125" y="107.476562"/>
<use xlink:href="#glyph-1-7" x="74.626953" y="107.476562"/>
<use xlink:href="#glyph-1-16" x="77.960938" y="107.476562"/>
<use xlink:href="#glyph-1-4" x="84.634766" y="107.476562"/>
<use xlink:href="#glyph-1-18" x="91.308594" y="107.476562"/>
<use xlink:href="#glyph-1-3" x="93.974609" y="107.476562"/>
<use xlink:href="#glyph-1-15" x="97.308594" y="107.476562"/>
<use xlink:href="#glyph-1-24" x="103.982422" y="107.476562"/>
<use xlink:href="#glyph-1-4" x="110.65625" y="107.476562"/>
</g>
<g fill="rgb(20%, 20%, 20%)" fill-opacity="1">
<use xlink:href="#glyph-1-0" x="17.933594" y="71.046875"/>
<use xlink:href="#glyph-1-4" x="25.9375" y="71.046875"/>
<use xlink:href="#glyph-1-5" x="32.611328" y="71.046875"/>
<use xlink:href="#glyph-1-7" x="39.285156" y="71.046875"/>
<use xlink:href="#glyph-1-13" x="42.619141" y="71.046875"/>
<use xlink:href="#glyph-1-6" x="48.619141" y="71.046875"/>
<use xlink:href="#glyph-1-8" x="55.292969" y="71.046875"/>
<use xlink:href="#glyph-1-25" x="65.289062" y="71.046875"/>
<use xlink:href="#glyph-1-5" x="71.962891" y="71.046875"/>
<use xlink:href="#glyph-1-7" x="78.636719" y="71.046875"/>
<use xlink:href="#glyph-1-23" x="81.970703" y="71.046875"/>
<use xlink:href="#glyph-1-1" x="88.644531" y="71.046875"/>
<use xlink:href="#glyph-1-4" x="91.310547" y="71.046875"/>
<use xlink:href="#glyph-1-5" x="97.984375" y="71.046875"/>
<use xlink:href="#glyph-1-13" x="104.658203" y="71.046875"/>
<use xlink:href="#glyph-1-6" x="110.658203" y="71.046875"/>
</g>
<g fill="rgb(20%, 20%, 20%)" fill-opacity="1">
<use xlink:href="#glyph-1-26" x="46.632812" y="34.621094"/>
<use xlink:href="#glyph-1-6" x="53.962891" y="34.621094"/>
<use xlink:href="#glyph-1-8" x="60.636719" y="34.621094"/>
<use xlink:href="#glyph-1-4" x="70.632812" y="34.621094"/>
<use xlink:href="#glyph-1-3" x="77.306641" y="34.621094"/>
<use xlink:href="#glyph-1-15" x="80.640625" y="34.621094"/>
<use xlink:href="#glyph-1-7" x="87.314453" y="34.621094"/>
<use xlink:href="#glyph-1-11" x="90.648438" y="34.621094"/>
<use xlink:href="#glyph-1-18" x="94.644531" y="34.621094"/>
<use xlink:href="#glyph-1-24" x="97.310547" y="34.621094"/>
<use xlink:href="#glyph-1-27" x="103.984375" y="34.621094"/>
<use xlink:href="#glyph-1-5" x="110.658203" y="34.621094"/>
</g>
<g fill="rgb(20%, 20%, 20%)" fill-opacity="1">
<use xlink:href="#glyph-2-0" x="141.90625" y="391.503906"/>
<use xlink:href="#glyph-2-1" x="150.572266" y="391.503906"/>
<use xlink:href="#glyph-2-2" x="157.246094" y="391.503906"/>
<use xlink:href="#glyph-2-3" x="163.919922" y="391.503906"/>
<use xlink:href="#glyph-2-4" x="167.253906" y="391.503906"/>
<use xlink:href="#glyph-2-5" x="174.583984" y="391.503906"/>
<use xlink:href="#glyph-2-1" x="181.914062" y="391.503906"/>
<use xlink:href="#glyph-2-6" x="188.587891" y="391.503906"/>
</g>
<g fill="rgb(20%, 20%, 20%)" fill-opacity="1">
<use xlink:href="#glyph-2-7" x="228.894531" y="391.503906"/>
<use xlink:href="#glyph-2-4" x="237.560547" y="391.503906"/>
<use xlink:href="#glyph-2-8" x="244.890625" y="391.503906"/>
<use xlink:href="#glyph-2-9" x="251.564453" y="391.503906"/>
<use xlink:href="#glyph-2-1" x="255.560547" y="391.503906"/>
</g>
<g fill="rgb(20%, 20%, 20%)" fill-opacity="1">
<use xlink:href="#glyph-2-10" x="307.210938" y="391.503906"/>
<use xlink:href="#glyph-2-3" x="315.214844" y="391.503906"/>
<use xlink:href="#glyph-2-11" x="318.548828" y="391.503906"/>
<use xlink:href="#glyph-2-12" x="325.222656" y="391.503906"/>
<use xlink:href="#glyph-2-12" x="329.892578" y="391.503906"/>
<use xlink:href="#glyph-2-1" x="334.5625" y="391.503906"/>
</g>
<g fill="rgb(20%, 20%, 20%)" fill-opacity="1">
<use xlink:href="#glyph-2-13" x="351.863281" y="391.503906"/>
<use xlink:href="#glyph-2-14" x="360.529297" y="391.503906"/>
<use xlink:href="#glyph-2-1" x="371.199219" y="391.503906"/>
<use xlink:href="#glyph-2-15" x="377.873047" y="391.503906"/>
<use xlink:href="#glyph-2-4" x="383.873047" y="391.503906"/>
<use xlink:href="#glyph-2-5" x="391.203125" y="391.503906"/>
<use xlink:href="#glyph-2-16" x="398.533203" y="391.503906"/>
<use xlink:href="#glyph-2-1" x="401.867188" y="391.503906"/>
<use xlink:href="#glyph-2-17" x="408.541016" y="391.503906"/>
<use xlink:href="#glyph-2-18" x="411.875" y="391.503906"/>
<use xlink:href="#glyph-2-12" x="421.208984" y="391.503906"/>
<use xlink:href="#glyph-2-3" x="425.878906" y="391.503906"/>
<use xlink:href="#glyph-2-11" x="429.212891" y="391.503906"/>
<use xlink:href="#glyph-2-5" x="435.886719" y="391.503906"/>
<use xlink:href="#glyph-2-9" x="443.216797" y="391.503906"/>
<use xlink:href="#glyph-2-11" x="447.212891" y="391.503906"/>
</g>
</svg>
